<?xml version="1.0" standalone="no"?>
<!DOCTYPE svg PUBLIC "-//W3C//DTD SVG 1.1//EN" "http://www.w3.org/Graphics/SVG/1.1/DTD/svg11.dtd" >
<svg xmlns="http://www.w3.org/2000/svg" xmlns:xlink="http://www.w3.org/1999/xlink" version="1.1">
<metadata>
Created by FontForge 20170731 at Sat Sep 14 16:48:39 2019
 By Aleksey,,,
Copyright (c) 2018 by Mostafa Amin . All rights reserved.
</metadata>
<defs>
<font id="Fairuz-Bold" horiz-adv-x="0" >
  <font-face 
    font-family="Fairuz"
    font-weight="700"
    font-stretch="normal"
    units-per-em="470"
    panose-1="0 0 8 0 0 0 0 0 0 0"
    ascent="376"
    descent="-94"
    x-height="259"
    cap-height="360"
    bbox="-23 -280 741 620"
    underline-thickness="50"
    underline-position="-200"
    unicode-range="U+0020-FEFC"
  />
<missing-glyph horiz-adv-x="450" 
d="M369 620v-900h-285v900h285zM300 560h-149v-30h59v-33h-60v-30h150v30h-60v33h60v30zM240 444h-90v-94h150v31h-60v63zM210 413v-32h-30v32h30zM300 326h-150v-30h60v-33h-60v-30h90v63h60v30zM300 272h-30v-60h-120v-30h150v90zM300 162h-90v-50h30v20h30v-42h-90v72
h-30v-102h150v102zM300 6h-150v-102h150v102zM270 -24v-42h-90v42h90zM300 -116h-150v-30h63l-63 -42v-30h150v30h-92l63 42h29v30z" />
    <glyph glyph-name="uniFEF5" unicode="&#xfedf;&#xfe82;" horiz-adv-x="288" arabic-form="isolated" 
d="M222 339q0 15 11.5 21.5t23 0t11.5 -21.5v-249q0 -87 -89 -90h-80q-26 0 -47.5 14.5t-29.5 35.5q-5 14 3.5 23t21 7.5t18.5 -15.5q7 -20 35 -20h74q26 0 37 10.5t11 34.5v249zM82 310q-7 -6 -13 -4t-7 8t2 11q23 22 47 7q13 -7 21.5 -5t12.5 10q6 6 13 6t11 -5t1 -12
q-14 -25 -47 -21q-5 1 -14 5.5t-13 5t-14 -5.5zM99 263q0 15 11.5 21.5t23.5 0t12 -21.5v-162q0 -13 -12 -19t-23.5 -0.5t-11.5 19.5v162z" />
    <glyph glyph-name="uniFEF6" unicode="&#xfee0;&#xfe82;" horiz-adv-x="331" arabic-form="final" 
d="M344 45l6 -23l-5 -22h-39q-39 0 -57 21q-22 -19 -63 -21h-80q-26 0 -47.5 14.5t-29.5 35.5q-5 14 3.5 23t21 7.5t18.5 -15.5q7 -20 35 -20h74q26 0 37 10.5t11 34.5v249q0 15 12 21.5t23.5 0t11.5 -21.5v-243q0 -31 5.5 -41t24.5 -10h38zM91 313q-6 -6 -12.5 -4t-7.5 8
t2 11q23 22 47 7q23 -15 35 4q5 6 12.5 6t11 -5t0.5 -12q-14 -25 -47 -20q-5 1 -14 5t-13 4.5t-14 -4.5zM106 263q0 15 12 21.5t23.5 0t11.5 -21.5v-162q0 -13 -11.5 -19t-23.5 -0.5t-12 19.5v162z" />
    <glyph glyph-name="uniFEF7" unicode="&#xfedf;&#xfe84;" horiz-adv-x="288" arabic-form="isolated" 
d="M84 316q-11 0 -16 8t-0.5 15.5t14.5 7.5h14q-14 23 -8.5 41t18.5 28.5t32.5 10t34.5 -15.5q8 -8 0 -18.5t-19 -1.5q-12 10 -26.5 6.5t-15.5 -17.5q-2 -16 6 -24.5t18 -8.5h22q10 0 14 -7.5t0 -15.5t-14 -8h-74zM222 339q0 15 11.5 21.5t23 0t11.5 -21.5v-249
q0 -87 -89 -90h-80q-26 0 -47.5 14.5t-29.5 35.5q-5 14 3.5 23t21 7.5t18.5 -15.5q7 -20 35 -20h74q26 0 37 10.5t11 34.5v249zM99 263q0 15 11.5 21.5t23.5 0t12 -21.5v-162q0 -13 -12 -19t-23.5 -0.5t-11.5 19.5v162z" />
    <glyph glyph-name="uniFEF8" unicode="&#xfee0;&#xfe84;" horiz-adv-x="331" arabic-form="final" 
d="M91 316q-11 0 -16 8t-0.5 15.5t14.5 7.5h14q-14 23 -8.5 41t18.5 28.5t32.5 10t34.5 -15.5q8 -8 0 -18.5t-19 -1.5q-12 10 -26.5 6.5t-15.5 -17.5q-2 -16 6 -24.5t18 -8.5h22q10 0 14 -7.5t0 -15.5t-14 -8h-74zM343 45l6 -23l-5 -22h-39q-39 0 -56 20q-23 -18 -63 -20
h-80q-26 0 -47.5 14.5t-29.5 35.5q-5 14 3.5 23t21 7.5t18.5 -15.5q7 -20 35 -20h74q26 0 37 10.5t11 34.5v249q0 15 12 21.5t23.5 0t11.5 -21.5v-249q0 -9 -1 -13q2 -19 8 -25.5t22 -6.5h38zM106 263q0 15 12 21.5t23.5 0t11.5 -21.5v-162q0 -13 -11.5 -19t-23.5 -0.5
t-12 19.5v162z" />
    <glyph glyph-name="uniFEF9" unicode="&#xfedf;&#xfe88;" horiz-adv-x="288" arabic-form="isolated" 
d="M222 339q0 15 11.5 21.5t23 0t11.5 -21.5v-249q0 -87 -89 -90h-80q-26 0 -47.5 14.5t-29.5 35.5q-5 14 3.5 23t21 7.5t18.5 -15.5q7 -20 35 -20h74q26 0 37 10.5t11 34.5v249zM146 101q0 -13 -12 -19t-23.5 -0.5t-11.5 19.5v162q0 15 11.5 21.5t23.5 0t12 -21.5v-162z
M131 -69q-12 10 -26.5 6.5t-15.5 -17.5q-2 -16 6 -24.5t17 -8.5h23q15 0 15 -15.5t-15 -15.5h-75q-11 0 -15.5 8t0 15.5t14.5 7.5h13q-16 28 -4.5 52t35.5 27t46 -15q9 -8 1 -18.5t-19 -1.5z" />
    <glyph glyph-name="uniFEFA" unicode="&#xfee0;&#xfe88;" horiz-adv-x="331" arabic-form="final" 
d="M344 45l6 -23l-5 -22h-39q-39 0 -57 21q-22 -19 -63 -21h-80q-26 0 -47.5 14.5t-29.5 35.5q-5 14 3.5 23t21 7.5t18.5 -15.5q7 -20 35 -20h74q26 0 37 10.5t11 34.5v249q0 15 12 21.5t23.5 0t11.5 -21.5v-243q0 -31 5.5 -41t24.5 -10h38zM153 101q0 -13 -11.5 -19
t-23.5 -0.5t-12 19.5v162q0 15 12 21.5t23.5 0t11.5 -21.5v-162zM146 -56q-12 10 -26.5 6.5t-15.5 -17.5q-2 -16 6 -24.5t17 -8.5h22q10 0 14 -8t0 -15.5t-14 -7.5h-74q-11 0 -15.5 7.5t-0.5 15.5t14 8h14q-14 23 -8.5 41t18.5 28.5t32.5 10t34.5 -15.5q8 -9 0.5 -19
t-18.5 -1z" />
    <glyph glyph-name="uniFEFB" unicode="&#xfedf;&#xfe8e;" horiz-adv-x="288" arabic-form="isolated" 
d="M222 339q0 15 11.5 21.5t23 0t11.5 -21.5v-249q0 -87 -89 -90h-80q-26 0 -47.5 14.5t-29.5 35.5q-5 14 3.5 23t21 7.5t18.5 -15.5q7 -20 35 -20h74q26 0 37 10.5t11 34.5v249zM146 101q0 -13 -12 -19t-23.5 -0.5t-11.5 19.5v162q0 15 11.5 21.5t23.5 0t12 -21.5v-162z
" />
    <glyph glyph-name="uniFEFC" unicode="&#xfee0;&#xfe8e;" horiz-adv-x="331" arabic-form="final" 
d="M344 45l6 -23l-5 -22h-39q-39 0 -57 21q-22 -19 -63 -21h-80q-26 0 -47.5 14.5t-29.5 35.5q-5 14 3.5 23t21 7.5t18.5 -15.5q7 -20 35 -20h74q26 0 37 10.5t11 34.5v249q0 15 12 21.5t23.5 0t11.5 -21.5v-243q0 -31 5.5 -41t24.5 -10h38zM153 101q0 -13 -11.5 -19
t-23.5 -0.5t-12 19.5v162q0 15 12 21.5t23.5 0t11.5 -21.5v-162z" />
    <glyph glyph-name="uni06440671" unicode="&#xfedf;&#xfb51;" horiz-adv-x="288" 
d="M53 304q-10 5 -1 18l12 19q6 11 17 4l18 -9q1 2 6 9.5l7 10.5t7 8t9 6.5t10 1.5t12 -3q24 -17 23.5 -34.5t-22 -28t-44.5 -0.5q-7 3 -13 6l-9 4.5t-5.5 2.5t-4 0t-3.5 -4l-5 -8q-5 -9 -14 -3zM222 339q0 15 11.5 21.5t23 0t11.5 -21.5v-249q0 -87 -89 -90h-81
q-25 0 -46.5 14.5t-29.5 35.5q-5 14 3 23t20.5 7.5t18.5 -15.5q8 -20 36 -20h74q26 0 37 10.5t11 34.5v249zM136 349q-4 -1 -8.5 -6.5t-7.5 -10.5l-2 -5q11 -3 19.5 -1t13.5 6l5 4q-3 6 -9.5 10t-10.5 3zM99 263q0 15 11.5 21.5t23.5 0t12 -21.5v-162q0 -13 -12 -19
t-23.5 -0.5t-11.5 19.5v162z" />
    <glyph glyph-name="uni06440671.fina" unicode="&#xfee0;&#xfb51;" horiz-adv-x="328" 
d="M53 304q-10 5 -1 18l12 19q6 11 17 4l18 -9q1 2 6 9.5l7 10.5t7 8t9 6.5t10 1.5t12 -3q24 -17 23.5 -34.5t-22 -28t-44.5 -0.5q-7 3 -13 6l-9 4.5t-5.5 2.5t-4 0t-3.5 -4l-5 -8q-5 -9 -14 -3zM332 45l6 -23l-5 -22h-39q-37 0 -55 19q-22 -17 -60 -19h-81
q-25 0 -46.5 14.5t-29.5 35.5q-5 14 3 23t20.5 7.5t18.5 -15.5q8 -20 36 -20h74q41 0 47 32v19h1v243q0 15 11.5 21.5t23 0t11.5 -21.5v-249q0 -14 -3 -26q5 -19 29 -19h38zM136 349q-4 -1 -8.5 -6.5t-7.5 -10.5l-2 -5q11 -3 19.5 -1t13.5 6l5 4q-3 6 -9.5 10t-10.5 3z
M99 263q0 15 11.5 21.5t23.5 0t12 -21.5v-162q0 -13 -12 -19t-23.5 -0.5t-11.5 19.5v162z" />
    <glyph glyph-name="uniFED3" unicode="&#x641;" horiz-adv-x="285" arabic-form="initial" 
d="M173 328q0 -15 -11.5 -21t-23 0t-11.5 21v16q0 14 11.5 20t23 0.5t11.5 -20.5v-16zM257 137v-137l-59 1v-1h-208v45h86q-30 40 -30 92q0 56 28.5 92t73.5 36h1q49 0 78.5 -36.5t29.5 -91.5zM214 45l-2 92q0 39 -16.5 62t-45.5 23h-1q-28 0 -43 -22t-15 -63
q0 -37 22.5 -64.5t54.5 -27.5h46z" />
    <glyph glyph-name="uni066E.init" unicode="&#x66e;" horiz-adv-x="187" 
d="M-10 45h93q16 0 26 11t10 30v138q0 14 11 19.5t22.5 0t11.5 -20.5v-138q0 -41 -21.5 -63t-59.5 -22h-93v45z" />
    <glyph glyph-name="uni066E.medi" unicode="&#x66e;" horiz-adv-x="231" 
d="M233 45l6 -23l-6 -22h-38q-38 0 -56 19q-21 -19 -56 -19h-93v45h93q16 0 26 11t10 30v138q0 14 11 19.5t22.5 0t11.5 -20.5v-127q0 -32 5.5 -41.5t25.5 -9.5h38z" />
    <glyph glyph-name="uni066E.fina" unicode="&#x66e;" horiz-adv-x="386" 
d="M391 45l12 -24l-12 -21h-22q-33 0 -48 19q-22 -19 -56 -19h-164q-38 0 -59.5 22.5t-21.5 62.5v109q0 14 11 20t22.5 0t11.5 -20v-108q0 -19 10 -30t26 -11h164q16 0 26 11t10 30v138q0 14 11.5 19.5t22.5 0t11 -20.5v-138v-3q0 -27 7 -32t38 -5z" />
    <glyph glyph-name="uni066F.fina" unicode="&#x66f;" horiz-adv-x="446" 
d="M370 45h86l-1 -45h-85v-26q-1 -55 -45.5 -83.5t-124.5 -28.5h-1q-74 0 -124 54.5t-46 133.5q1 19 5.5 28t17.5 9q25 0 20 -37q-4 -62 34 -103t93 -41q57 0 91 18t36 50v26h-45q-35 0 -60.5 15.5t-37.5 38.5t-17.5 43.5t-5.5 38.5q0 56 28.5 92t73.5 36h1q48 0 77.5 -36.5
t29.5 -91.5v-91zM204 136q0 -37 22.5 -64.5t54.5 -27.5h46l-1 92q0 38 -17 61.5t-45 23.5h-1q-59 0 -59 -85z" />
    <glyph glyph-name="uni06A1.init" unicode="&#x6a1;" horiz-adv-x="285" 
d="M257 137v-137l-59 1v-1h-208v45h86q-30 40 -30 92q0 56 28.5 92t73.5 36h1q49 0 78.5 -36.5t29.5 -91.5zM214 45l-2 92q0 39 -16.5 62t-45.5 23h-1q-28 0 -43 -22t-15 -63q0 -37 22.5 -64.5t54.5 -27.5h46z" />
    <glyph glyph-name="uni06A1.medi" unicode="&#x6a1;" horiz-adv-x="304" 
d="M257 45h64l-1 -45h-330v45h86q-30 40 -30 92q0 56 28.5 92t73.5 36h1q49 0 78.5 -36.5t29.5 -91.5v-92zM91 137q0 -37 22.5 -64.5t54.5 -27.5h46l-2 92q0 39 -16.5 62t-45.5 23h-1q-28 0 -43 -22t-15 -63z" />
    <glyph glyph-name="uni06A1.fina" unicode="&#x6a1;" horiz-adv-x="510" 
d="M454 45h74l-1 -45h-128v1h-4v-1h-223q-68 0 -110 44.5t-42 116.5v13q0 10 6 16.5t16 6.5t16.5 -6.5t6.5 -16.5v-9q0 -55 29 -87.5t78 -32.5h101q-30 40 -30 92q0 56 28.5 92t73.5 36h1q49 0 78.5 -36.5t29.5 -91.5v-92zM411 45l-2 92q0 39 -16.5 62t-45.5 23h-1
q-28 0 -43 -22t-15 -63q0 -37 22.5 -64.5t54.5 -27.5h46z" />
    <glyph glyph-name="uni06C2.fina" unicode="&#x6c2;" horiz-adv-x="323" 
d="M115 298q-11 0 -15.5 8t0 16t14.5 8h13q-16 28 -4.5 52t35.5 26.5t46 -15.5q9 -8 1 -18.5t-19 -1.5q-12 11 -26.5 7t-15.5 -18q-2 -16 6 -24t17 -8h23q15 0 15 -16t-15 -16h-75zM241 131q0 38 -25.5 64t-63.5 26q-37 0 -62 -26.5t-25 -63.5v-1q0 -126 1 -130h-45
q-1 4 -1 129v1q0 56 39 95.5t95 39.5t94 -38.5t38 -95.5v-86h39l8 -24l-8 -21h-84v131z" />
    <glyph glyph-name="uni06C3.fina" unicode="&#x6c3;" horiz-adv-x="323" 
d="M99 322v16q0 14 11.5 20t23 0.5t11.5 -20.5v-16q0 -15 -11.5 -21t-23 0t-11.5 21zM161 322v16q0 14 11.5 20t23 0.5t11.5 -20.5v-16q0 -15 -11.5 -21t-23 0t-11.5 21zM241 131q0 38 -25.5 64t-63.5 26q-37 0 -62 -26.5t-25 -63.5v-1q0 -126 1 -130h-45q-1 4 -1 129v1
q0 56 39 95.5t95 39.5t94 -38.5t38 -95.5v-86h39l8 -24l-8 -21h-84v131z" />
    <glyph glyph-name="uniFB51" unicode="&#x671;" horiz-adv-x="125" arabic-form="final" 
d="M2 391q-6 -9 -15 -3q-9 4 -1 18l12 19q7 10 18 4l17 -10q2 3 6.5 10t6.5 10t7 8t9 7t10 2t13 -3q24 -17 23 -35t-22 -28t-45 0q-7 3 -13 6l-9 4.5t-5.5 2.5t-4 0t-3.5 -4zM53 411q11 -3 19.5 -1t13.5 6l5 4q-8 15 -21 13q-4 -1 -8.5 -6.5t-6.5 -10.5zM108 0q-37 0 -58 19
t-22 57v263q0 15 11 21t22.5 0t11.5 -21v-256q0 -25 11 -31.5t46 -6.5v-45h-22z" />
    <glyph glyph-name="uniFB57" unicode="&#x67e;" horiz-adv-x="386" arabic-form="final" 
d="M391 45l12 -24l-12 -21h-22q-33 0 -48 19q-22 -19 -56 -19h-164q-38 0 -59.5 22.5t-21.5 62.5v109q0 14 11 20t22.5 0t11.5 -20v-108q0 -19 10 -30t26 -11h164q16 0 26 11t10 30v138q0 14 11.5 19.5t22.5 0t11 -20.5v-138v-3q0 -27 7 -32t38 -5zM183 -85
q0 -15 -11.5 -20.5t-23 0.5t-11.5 20v16q0 15 11.5 21t23 0t11.5 -21v-16zM199 -69q0 15 11.5 21t23 0t11.5 -21v-16q0 -15 -11.5 -20.5t-23 0.5t-11.5 20v16zM168 -151q0 15 11.5 21t23 0t11.5 -21v-16q0 -15 -11.5 -20.5t-23 0.5t-11.5 20v16z" />
    <glyph glyph-name="uniFB58" unicode="&#x67e;" horiz-adv-x="187" arabic-form="initial" 
d="M-10 45h93q16 0 26 11t10 30v138q0 14 11 19.5t22.5 0t11.5 -20.5v-138q0 -41 -21.5 -63t-59.5 -22h-93v45zM28 -68q0 15 11.5 21t23 0t11.5 -21v-16q0 -15 -11.5 -20.5t-23 0.5t-11.5 20v16zM90 -68q0 15 11.5 21t23 0t11.5 -21v-16q0 -15 -11.5 -20.5t-23 0.5t-11.5 20
v16zM59 -150q0 15 11.5 21t23 0t11.5 -21v-16q0 -15 -11.5 -20.5t-23 0.5t-11.5 20v16z" />
    <glyph glyph-name="uniFB59" unicode="&#x67e;" horiz-adv-x="231" arabic-form="medial" 
d="M233 45l6 -23l-6 -22h-38q-38 0 -56 19q-21 -19 -56 -19h-93v45h93q16 0 26 11t10 30v138q0 14 11 19.5t22.5 0t11.5 -20.5v-127q0 -32 5.5 -41.5t25.5 -9.5h38zM100 -90q0 -15 -11.5 -20.5t-23 0.5t-11.5 20v16q0 15 11.5 21t23 0t11.5 -21v-16zM116 -74q0 15 11.5 21
t23 0t11.5 -21v-16q0 -15 -11.5 -20.5t-23 0.5t-11.5 20v16zM85 -156q0 15 11.5 21t23 0t11.5 -21v-16q0 -15 -11.5 -20.5t-23 0.5t-11.5 20v16z" />
    <glyph glyph-name="uniFB67" unicode="&#x679;" horiz-adv-x="386" arabic-form="final" 
d="M128 264q-10 0 -10 8v10q0 7 10 7h9v73q0 8 9 8t9 -8v-23q10 10 32 10q43 0 43 -51q0 -34 -26 -34h-76zM187 324q-14 0 -20 -8t-8 -27h41q7 0 7 10q0 25 -20 25zM391 45l12 -24l-12 -21h-22q-33 0 -48 19q-22 -19 -56 -19h-164q-38 0 -59.5 22.5t-21.5 62.5v109
q0 14 11 20t22.5 0t11.5 -20v-108q0 -19 10 -30t26 -11h164q16 0 26 11t10 30v138q0 14 11.5 19.5t22.5 0t11 -20.5v-138v-3q0 -27 7 -32t38 -5z" />
    <glyph glyph-name="uniFB68" unicode="&#x679;" horiz-adv-x="187" arabic-form="initial" 
d="M138 349q43 0 43 -51q0 -34 -26 -34h-76q-10 0 -10 8v10q0 7 10 7h9v73q0 8 9 8t9 -8v-23q10 10 32 10zM151 289q7 0 7 10q0 25 -20 25q-14 0 -20 -8t-8 -27h41zM119 224q0 14 11 19.5t22.5 0t11.5 -20.5v-138q0 -41 -21.5 -63t-59.5 -22h-93v45h93q16 0 26 11t10 30v138
z" />
    <glyph glyph-name="uniFB69" unicode="&#x679;" horiz-adv-x="231" arabic-form="medial" 
d="M93 264q-10 0 -10 8v10q0 7 10 7h9v73q0 8 9 8t9 -8v-23q10 10 32 10q43 0 43 -51q0 -34 -26 -34h-76zM152 324q-14 0 -20 -8t-8 -27h41q7 0 7 10q0 25 -20 25zM233 45l6 -23l-6 -22h-38q-38 0 -56 19q-21 -19 -56 -19h-93v45h93q16 0 26 11t10 30v138q0 14 11 19.5
t22.5 0t11.5 -20.5v-127q0 -32 5.5 -41.5t25.5 -9.5h38z" />
    <glyph glyph-name="uniFB6B" unicode="&#x6a4;" horiz-adv-x="510" arabic-form="final" 
d="M361 415q0 -14 -11.5 -20t-23 0t-11.5 20v16q0 14 11.5 20t23 0.5t11.5 -20.5v-16zM330 333q0 -15 -11.5 -21t-23 0t-11.5 21v16q0 14 11.5 20t23 0.5t11.5 -20.5v-16zM346 349q0 14 11.5 20t23 0.5t11.5 -20.5v-16q0 -15 -11.5 -21t-23 0t-11.5 21v16zM454 45h74l-1 -45
h-128v1h-4v-1h-223q-68 0 -110 44.5t-42 116.5v13q0 10 6 16.5t16 6.5t16.5 -6.5t6.5 -16.5v-9q0 -55 29 -87.5t78 -32.5h101q-30 40 -30 92q0 56 28.5 92t73.5 36h1q49 0 78.5 -36.5t29.5 -91.5v-92zM411 45l-2 92q0 39 -16.5 62t-45.5 23h-1q-28 0 -43 -22t-15 -63
q0 -37 22.5 -64.5t54.5 -27.5h46z" />
    <glyph glyph-name="uniFB6C" unicode="&#x6a4;" horiz-adv-x="285" arabic-form="initial" 
d="M173 410q0 -22 -23 -22t-23 22v16q0 14 11.5 20t23 0.5t11.5 -20.5v-16zM142 328q0 -15 -11.5 -21t-23 0t-11.5 21v16q0 14 11.5 20t23 0.5t11.5 -20.5v-16zM158 344q0 14 11.5 20t23 0.5t11.5 -20.5v-16q0 -15 -11.5 -21t-23 0t-11.5 21v16zM257 137v-137l-59 1v-1h-208
v45h86q-30 40 -30 92q0 56 28.5 92t73.5 36h1q49 0 78.5 -36.5t29.5 -91.5zM214 45l-2 92q0 39 -16.5 62t-45.5 23h-1q-28 0 -43 -22t-15 -63q0 -37 22.5 -64.5t54.5 -27.5h46z" />
    <glyph glyph-name="uniFB6D" unicode="&#x6a4;" horiz-adv-x="304" arabic-form="medial" 
d="M173 410q0 -22 -23 -22t-23 22v16q0 14 11.5 20t23 0.5t11.5 -20.5v-16zM142 328q0 -15 -11.5 -21t-23 0t-11.5 21v16q0 14 11.5 20t23 0.5t11.5 -20.5v-16zM158 344q0 14 11.5 20t23 0.5t11.5 -20.5v-16q0 -15 -11.5 -21t-23 0t-11.5 21v16zM257 45h64l-1 -45h-330v45
h86q-30 40 -30 92q0 56 28.5 92t73.5 36h1q49 0 78.5 -36.5t29.5 -91.5v-92zM91 137q0 -37 22.5 -64.5t54.5 -27.5h46l-2 92q0 39 -16.5 62t-45.5 23h-1q-28 0 -43 -22t-15 -63z" />
    <glyph glyph-name="uniFB7B" unicode="&#x686;" horiz-adv-x="410" arabic-form="final" 
d="M414 45l6 -23l-5 -22h-39q-18 0 -30 4v-4h-243q-18 0 -28.5 -13t-10.5 -35q0 -23 16.5 -38.5t39.5 -15.5q10 0 16.5 -7t5.5 -17q-3 -20 -23 -20q-41 0 -70 28.5t-29 69.5q0 35 20.5 61t52.5 31q2 1 7 1h200v57q0 57 -28 87.5t-81 30.5q-47 0 -83 -35q-9 -9 -20 -6t-14 13
t4 20q17 23 49 38t67 15q70 0 111 -43t41 -116v-34q1 -15 8 -21t22 -6h38zM227 -71q0 -15 -11.5 -20.5t-23 0.5t-11.5 20v16q0 15 11.5 21t23 0t11.5 -21v-16zM243 -55q0 15 11.5 21t23 0t11.5 -21v-16q0 -15 -11.5 -20.5t-23 0.5t-11.5 20v16zM212 -137q0 15 11.5 21t23 0
t11.5 -21v-16q0 -15 -11.5 -20.5t-23 0.5t-11.5 20v16z" />
    <glyph glyph-name="uniFB7C" unicode="&#x686;" horiz-adv-x="338" arabic-form="initial" 
d="M166 265q70 0 111 -44t41 -117v-104h-322l-4 22l4 23h277v55q0 57 -28.5 88.5t-81.5 31.5q-49 0 -81 -35q-10 -11 -23.5 -6t-13.5 19q0 9 5 14q45 53 116 53zM174 -84q0 -15 -11.5 -20.5t-23 0.5t-11.5 20v16q0 15 11.5 21t23 0t11.5 -21v-16zM190 -68q0 15 11.5 21t23 0
t11.5 -21v-16q0 -15 -11.5 -20.5t-23 0.5t-11.5 20v16zM159 -150q0 15 11.5 21t23 0t11.5 -21v-16q0 -15 -11.5 -20.5t-23 0.5t-11.5 20v16z" />
    <glyph glyph-name="uniFB7D" unicode="&#x686;" horiz-adv-x="345" arabic-form="medial" 
d="M315 45h39l-1 -45h-360l-4 22l4 23h277v55q0 57 -28.5 88.5t-81.5 31.5q-49 0 -81 -35q-11 -11 -24 -6t-13 19q0 9 5 14q45 53 116 53q70 0 111 -44t41 -117v-59zM164 -92q0 -15 -11.5 -20.5t-23 0.5t-11.5 20v16q0 15 11.5 21t23 0t11.5 -21v-16zM180 -76q0 15 11.5 21
t23 0t11.5 -21v-16q0 -15 -11.5 -20.5t-23 0.5t-11.5 20v16zM149 -158q0 15 11.5 21t23 0t11.5 -21v-16q0 -15 -11.5 -20.5t-23 0.5t-11.5 20v16z" />
    <glyph glyph-name="uniFB89" unicode="&#x688;" horiz-adv-x="279" arabic-form="final" 
d="M38 292q-10 0 -10 8v10q0 7 10 7h9v73q0 8 9 8t9 -8v-23q10 10 32 10q43 0 43 -51q0 -34 -26 -34h-76zM97 352q-14 0 -20 -8t-8 -27h41q7 0 7 10q0 25 -20 25zM219 45h70l-1 -45h-246q-14 0 -19.5 11t0 22.5t19.5 11.5h131v58q0 52 -24.5 82.5t-69.5 34.5q-21 4 -21 23
q0 11 7.5 17t18.5 5q61 -4 98 -49t37 -113v-58z" />
    <glyph glyph-name="uniFB8B" unicode="&#x698;" horiz-adv-x="189" arabic-form="final" 
d="M115 394q0 -22 -23 -22t-23 22v16q0 14 11.5 20t23 0.5t11.5 -20.5v-16zM84 312q0 -15 -11.5 -21t-23 0t-11.5 21v16q0 14 11.5 20t23 0.5t11.5 -20.5v-16zM100 328q0 14 11.5 20t23 0.5t11.5 -20.5v-16q0 -15 -11.5 -21t-23 0t-11.5 21v16zM192 45l10 -21l-10 -24h-37
q-21 0 -40 8v-2q0 -43 -22 -67.5t-60 -24.5q-16 0 -22.5 11t-0.5 22t22 11q37 0 37 46v222q0 14 11.5 19.5t23 0t11.5 -19.5v-134q1 -47 40 -47h37z" />
    <glyph glyph-name="uniFB8D" unicode="&#x691;" horiz-adv-x="189" arabic-form="final" 
d="M43 268q-10 0 -10 8v10q0 7 10 7h9v73q0 8 9 8t9 -8v-23q10 10 32 10q43 0 43 -51q0 -34 -26 -34h-76zM102 328q-14 0 -20 -8t-8 -27h41q7 0 7 10q0 25 -20 25zM192 45l10 -21l-10 -24h-37q-21 0 -40 8v-2q0 -43 -22 -67.5t-60 -24.5q-16 0 -22.5 11t-0.5 22t22 11
q37 0 37 46v222q0 14 11.5 19.5t23 0t11.5 -19.5v-134q1 -47 40 -47h37z" />
    <glyph glyph-name="uniFB8F" unicode="&#x6a9;" horiz-adv-x="501" arabic-form="final" 
d="M504 45l7 -23l-6 -22h-39q-26 0 -43 9q-9 -9 -24 -9h-252q-66 3 -96 49.5t-12 98.5q11 35 33 30q17 -4 17 -22l-2 -10q-20 -38 -2.5 -69.5t69.5 -31.5h235v57q0 56 -27 87.5t-79 31.5h-106q-12 0 -20.5 8.5t-8.5 20.5q0 14 9 20l92 80q5 7 15 7q15 0 20.5 -14t-5.5 -24
l-64 -54h68q74 0 113.5 -44.5t39.5 -118.5v-6q0 -31 5.5 -41t24.5 -10h38z" />
    <glyph glyph-name="uniFB90" unicode="&#x6a9;" horiz-adv-x="342" arabic-form="initial" 
d="M166 265q76 0 116.5 -45.5t40.5 -121.5v-61q0 -16 -11 -26.5t-26 -10.5h-291l-11 23l11 22h281v57q0 56 -26.5 87.5t-76.5 31.5h-109q-12 0 -20.5 8.5t-8.5 20.5q0 14 9 20l92 80q5 7 15 7q14 0 20 -14t-5 -23l-64 -55h64z" />
    <glyph glyph-name="uniFB91" unicode="&#x6a9;" horiz-adv-x="380" arabic-form="medial" 
d="M391 45l7 -23l-6 -22h-39q-27 0 -43 9q-9 -9 -24 -9h-291l-11 23l11 22h281v57q0 56 -26.5 87.5t-76.5 31.5h-109q-12 0 -20.5 8.5t-8.5 20.5q0 14 9 20l92 80q5 7 15 7q14 0 20 -14t-5 -23l-64 -55h64q76 0 116.5 -45.5t40.5 -121.5v-2q0 -31 5.5 -41t24.5 -10h38z" />
    <glyph glyph-name="uniFB93" unicode="&#x6af;" horiz-adv-x="501" arabic-form="final" 
d="M140 283q-8 -7 -17 -3.5t-11 12t6 16.5l112 96q12 8 22 -4.5t-2 -22.5zM504 45l7 -23l-6 -22h-39q-26 0 -43 9q-9 -9 -24 -9h-252q-66 3 -96 49.5t-12 98.5q11 35 33 30q17 -4 17 -22l-2 -10q-20 -38 -2.5 -69.5t69.5 -31.5h235v57q0 56 -27 87.5t-79 31.5h-106
q-12 0 -20.5 8.5t-8.5 20.5q0 14 9 20l92 80q5 7 15 7q15 0 20.5 -14t-5.5 -24l-64 -54h68q74 0 113.5 -44.5t39.5 -118.5v-6q0 -31 5.5 -41t24.5 -10h38z" />
    <glyph glyph-name="uniFB94" unicode="&#x6af;" horiz-adv-x="342" arabic-form="initial" 
d="M27 283q-8 -7 -17 -3.5t-11 12t6 16.5l113 96q7 5 15 1t9.5 -12t-5.5 -16zM166 265q76 0 116.5 -45.5t40.5 -121.5v-61q0 -16 -11 -26.5t-26 -10.5h-291l-11 23l11 22h281v57q0 56 -26.5 87.5t-76.5 31.5h-109q-12 0 -20.5 8.5t-8.5 20.5q0 14 9 20l92 80q5 7 15 7
q14 0 20 -14t-5 -23l-64 -55h64z" />
    <glyph glyph-name="uniFB95" unicode="&#x6af;" horiz-adv-x="380" arabic-form="medial" 
d="M32 293q-8 -7 -17 -3t-11 12.5t6 16.5l101 85q7 5 15.5 1t9.5 -12t-6 -16zM391 45l7 -23l-6 -22h-39q-27 0 -43 9q-9 -9 -24 -9h-291l-11 23l11 22h281v57q0 56 -26.5 87.5t-76.5 31.5h-109q-12 0 -20.5 8.5t-8.5 20.5q0 14 9 20l92 80q5 7 15 7q14 0 20 -14t-5 -23
l-64 -55h64q76 0 116.5 -45.5t40.5 -121.5v-2q0 -31 5.5 -41t24.5 -10h38z" />
    <glyph glyph-name="uniFB9F" unicode="&#x6ba;" horiz-adv-x="385" arabic-form="final" 
d="M389 45l6 -23l-5 -22h-39q-28 0 -44 10q-18 -46 -55 -70.5t-82 -25.5q-64 -1 -109.5 43t-42.5 122l8 110q1 14 12.5 18.5t22.5 -2.5t10 -21l-8 -105q-4 -54 25.5 -85t81.5 -33q106 3 106 130v133q0 14 11 19.5t22.5 0t11.5 -20.5v-127q0 -31 5.5 -41t24.5 -10h38z" />
    <glyph glyph-name="uniFBA7" unicode="&#x6c1;" horiz-adv-x="323" arabic-form="final" 
d="M241 131q0 38 -25.5 64t-63.5 26q-37 0 -62 -26.5t-25 -63.5v-1q0 -126 1 -130h-45q-1 4 -1 129v1q0 56 39 95.5t95 39.5t94 -38.5t38 -95.5v-86h39l8 -24l-8 -21h-84v131z" />
    <glyph glyph-name="uniFBA8" unicode="&#x6c1;" horiz-adv-x="187" arabic-form="initial" 
d="M-10 45h93q16 0 26 11t10 30v138q0 14 11 19.5t22.5 0t11.5 -20.5v-138q0 -41 -21.5 -63t-59.5 -22h-93v45zM69 -122q-8 0 -6 8l16 80q1 5 6 5h16q7 0 7 -8l-13 -79q0 -6 -7 -6h-19z" />
    <glyph glyph-name="uniFBA9" unicode="&#x6c1;" horiz-adv-x="241" arabic-form="medial" 
d="M244 45l7 -22l-7 -23h-39v-140h-62q-112 0 -112 92v48h-32l-9 23l9 22h77v-93q0 -22 13.5 -35t53.5 -13h17v141h84z" />
    <glyph glyph-name="uniFBAB" unicode="&#x6be;" horiz-adv-x="466" arabic-form="final" 
d="M477 45l6 -23l-5 -22h-39q-18 0 -30 4v-4h-412l-7 22l7 23h72q-31 36 -31 92q0 58 35 92t85 37q38 35 97 35q71 0 112.5 -44t41.5 -118v-43q0 -31 5.5 -41t24.5 -10h38zM269 45h94v94q0 55 -29 86.5t-79 31.5q-14 0 -26 -3q71 -34 71 -117q0 -56 -31 -92zM83 137
q0 -38 24.5 -65t61.5 -27t61.5 26t24.5 66q0 34 -25.5 59.5t-60.5 25.5q-37 0 -61.5 -25t-24.5 -60z" />
    <glyph glyph-name="uniFBAC" unicode="&#x6be;" horiz-adv-x="429" arabic-form="initial" 
d="M255 301q71 0 112.5 -44t41.5 -118v-139h-412l-7 22l7 23h72q-31 36 -31 92q0 58 35 92t85 37q38 35 97 35zM269 45h94v94q0 55 -29 86.5t-79 31.5q-14 0 -26 -3q71 -34 71 -117q0 -56 -31 -92zM83 137q0 -38 24.5 -65t61.5 -27t61.5 26t24.5 66q0 34 -25.5 59.5
t-60.5 25.5q-37 0 -61.5 -25t-24.5 -60z" />
    <glyph glyph-name="uniFBAD" unicode="&#x6be;" horiz-adv-x="466" arabic-form="medial" 
d="M477 45l6 -23l-5 -22h-39q-18 0 -30 4v-4h-412l-7 22l7 23h72q-31 36 -31 92q0 58 35 92t85 37q38 35 97 35q71 0 112.5 -44t41.5 -118v-43q0 -31 5.5 -41t24.5 -10h38zM269 45h94v94q0 55 -29 86.5t-79 31.5q-14 0 -26 -3q71 -34 71 -117q0 -56 -31 -92zM83 137
q0 -38 24.5 -65t61.5 -27t61.5 26t24.5 66q0 34 -25.5 59.5t-60.5 25.5q-37 0 -61.5 -25t-24.5 -60z" />
    <glyph glyph-name="uniFBAF" unicode="&#x6d2;" horiz-adv-x="404" arabic-form="final" 
d="M168 -118q-66 0 -99.5 35t-33.5 126l383 2v-45h-329q0 -36 22.5 -56t56.5 -20h96q7 0 12.5 -5t5.5 -12v-5q0 -20 -18 -20h-96z" />
    <glyph glyph-name="uniFBB1" unicode="&#x6d3;" horiz-adv-x="404" arabic-form="final" 
d="M29 91q-11 0 -15.5 8t0 16t14.5 8h13q-16 28 -4.5 52t35.5 26.5t46 -15.5q9 -8 1 -18.5t-19 -1.5q-12 11 -26.5 7t-15.5 -18q-2 -16 6 -24t17 -8h23q15 0 15 -16t-15 -16h-75zM168 -118q-66 0 -99.5 35t-33.5 126l383 2v-45h-329q0 -36 22.5 -56t56.5 -20h96q7 0 12.5 -5
t5.5 -12v-5q0 -20 -18 -20h-96z" />
    <glyph glyph-name="uniFBFD" unicode="&#x6cc;" horiz-adv-x="390" arabic-form="final" 
d="M400 45v-45h-49q-12 -62 -57.5 -101t-114.5 -39q-80 0 -123.5 57.5t-20.5 145.5q6 20 26 22q18 1 19 -14l-1 -8q-23 -76 10 -119t90 -45q45 -2 81.5 24.5t46.5 76.5q-52 5 -62 41q-4 13 4.5 22t20.5 6.5t17 -16.5q3 -8 32 -8h81z" />
    <glyph glyph-name="uniFBFE" unicode="&#x6cc;" horiz-adv-x="187" arabic-form="initial" 
d="M-10 45h93q16 0 26 11t10 30v138q0 14 11 19.5t22.5 0t11.5 -20.5v-138q0 -41 -21.5 -63t-59.5 -22h-93v45zM28 -78v16q0 14 11.5 20t23 0.5t11.5 -20.5v-16q0 -15 -11.5 -21t-23 0t-11.5 21zM90 -78v16q0 14 11.5 20t23 0.5t11.5 -20.5v-16q0 -15 -11.5 -21t-23 0
t-11.5 21z" />
    <glyph glyph-name="uniFBFF" unicode="&#x6cc;" horiz-adv-x="231" arabic-form="medial" 
d="M233 45l6 -23l-6 -22h-38q-38 0 -56 19q-21 -19 -56 -19h-93v45h93q16 0 26 11t10 30v138q0 14 11 19.5t22.5 0t11.5 -20.5v-127q0 -32 5.5 -41.5t25.5 -9.5h38zM54 -68q0 14 11.5 20t23 0.5t11.5 -20.5v-16q0 -15 -11.5 -21t-23 0t-11.5 21v16zM116 -68q0 14 11.5 20
t23 0.5t11.5 -20.5v-16q0 -15 -11.5 -21t-23 0t-11.5 21v16z" />
    <glyph glyph-name="uniFE82" unicode="&#x622;" horiz-adv-x="125" arabic-form="final" 
d="M13 399q-7 -6 -13 -3.5t-7 8.5t2 11q25 22 47 6q23 -14 34 5q6 6 13 6t11 -5t1 -12q-14 -25 -47 -20q-5 1 -14 5t-13 4.5t-14 -5.5zM108 0q-37 0 -58 19t-22 57v263q0 15 11 21t22.5 0t11.5 -21v-256q0 -25 11 -31.5t46 -6.5v-45h-22z" />
    <glyph glyph-name="uniFE84" unicode="&#x623;" horiz-adv-x="125" arabic-form="final" 
d="M14 399q-11 0 -16 7.5t-0.5 15.5t14.5 8h14q-16 28 -4.5 52t35.5 27t46 -15q8 -8 0 -18.5t-19 -1.5q-12 10 -26.5 6.5t-15.5 -17.5q-2 -16 6 -24.5t18 -8.5h22q10 0 14 -8t0 -15.5t-14 -7.5h-74zM108 0q-37 0 -58 19t-22 57v263q0 15 11 21t22.5 0t11.5 -21v-256
q0 -25 11 -31.5t46 -6.5v-45h-22z" />
    <glyph glyph-name="uniFE86" unicode="&#x624;" horiz-adv-x="301" arabic-form="final" 
d="M103 303q-11 0 -15.5 8t0 16t14.5 8h13q-16 28 -4.5 52t35.5 26.5t46 -15.5q9 -8 1 -18.5t-19 -1.5q-12 11 -26.5 7t-15.5 -18q-2 -16 6 -24t17 -8h23q15 0 15 -16t-15 -16h-75zM322 22l-13 -22h-49q-1 -40 -23.5 -63t-58.5 -23q-16 0 -22.5 11t-0.5 22t22 11q35 0 37 42
h-48q-146 0 -146 131q0 57 34 95.5t85 38.5q58 0 89.5 -34t31.5 -95v-91h49zM65 131q0 -86 101 -86h48v91q0 45 -17.5 64t-57.5 19q-33 0 -53.5 -24.5t-20.5 -63.5z" />
    <glyph glyph-name="uniFE88" unicode="&#x625;" horiz-adv-x="125" arabic-form="final" 
d="M108 0q-37 0 -58 19t-22 57v263q0 15 11 21t22.5 0t11.5 -21v-256q0 -25 11 -31.5t46 -6.5v-45h-22zM25 -157q-11 0 -15.5 8t0 16t14.5 8h13q-16 28 -4.5 52t35.5 26.5t46 -15.5q9 -8 1 -18.5t-19 -1.5q-12 11 -26.5 7t-15.5 -18q-2 -16 6 -24t17 -8h23q15 0 15 -16
t-15 -16h-75z" />
    <glyph glyph-name="uniFE8A" unicode="&#x626;" horiz-adv-x="390" arabic-form="final" 
d="M90 161q15 0 15 -16t-15 -16h-75q-11 0 -15.5 8t0 16t14.5 8h13q-16 28 -4.5 52t35.5 26.5t46 -15.5q9 -8 1 -18.5t-19 -1.5q-12 11 -26.5 7t-15.5 -18q-2 -16 6 -24t17 -8h23zM400 45v-45h-49q-12 -62 -57.5 -101t-114.5 -39q-80 0 -123.5 57.5t-20.5 145.5q6 20 26 22
q18 1 19 -14l-1 -8q-23 -76 10 -119t90 -45q45 -2 81.5 24.5t46.5 76.5q-52 5 -62 41q-4 13 4.5 22t20.5 6.5t17 -16.5q3 -8 32 -8h81z" />
    <glyph glyph-name="uniFE8B" unicode="&#x626;" horiz-adv-x="187" arabic-form="initial" 
d="M90 284q-11 0 -15.5 8t0 16t14.5 8h13q-16 28 -4.5 52t35.5 26.5t46 -15.5q9 -8 1 -18.5t-19 -1.5q-12 11 -26.5 7t-15.5 -18q-2 -16 6 -24t17 -8h23q15 0 15 -16t-15 -16h-75zM-10 45h93q16 0 26 11t10 30v138q0 14 11 19.5t22.5 0t11.5 -20.5v-138q0 -41 -21.5 -63
t-59.5 -22h-93v45z" />
    <glyph glyph-name="uniFE8C" unicode="&#x626;" horiz-adv-x="231" arabic-form="medial" 
d="M104 284q-11 0 -15.5 8t0 16t14.5 8h13q-16 28 -4.5 52t35.5 26.5t46 -15.5q9 -8 1 -18.5t-19 -1.5q-12 11 -26.5 7t-15.5 -18q-2 -16 6 -24t17 -8h23q15 0 15 -16t-15 -16h-75zM233 45l6 -23l-6 -22h-38q-38 0 -56 19q-21 -19 -56 -19h-93v45h93q16 0 26 11t10 30v138
q0 14 11 19.5t22.5 0t11.5 -20.5v-127q0 -32 5.5 -41.5t25.5 -9.5h38z" />
    <glyph glyph-name="uniFE8E" unicode="&#x627;" horiz-adv-x="125" arabic-form="final" 
d="M108 0q-37 0 -58 19t-22 57v263q0 15 11 21t22.5 0t11.5 -21v-256q0 -25 11 -31.5t46 -6.5v-45h-22z" />
    <glyph glyph-name="uniFE90" unicode="&#x628;" horiz-adv-x="386" arabic-form="final" 
d="M391 45l12 -24l-12 -21h-22q-33 0 -48 19q-22 -19 -56 -19h-164q-38 0 -59.5 22.5t-21.5 62.5v109q0 14 11 20t22.5 0t11.5 -20v-108q0 -19 10 -30t26 -11h164q16 0 26 11t10 30v138q0 14 11.5 19.5t22.5 0t11 -20.5v-138v-3q0 -27 7 -32t38 -5zM168 -69q0 14 11.5 20
t23 0.5t11.5 -20.5v-16q0 -15 -11.5 -21t-23 0t-11.5 21v16z" />
    <glyph glyph-name="uniFE91" unicode="&#x628;" horiz-adv-x="187" arabic-form="initial" 
d="M-10 45h93q16 0 26 11t10 30v138q0 14 11 19.5t22.5 0t11.5 -20.5v-138q0 -41 -21.5 -63t-59.5 -22h-93v45zM59 -85v16q0 14 11.5 20t23 0.5t11.5 -20.5v-16q0 -15 -11.5 -21t-23 0t-11.5 21z" />
    <glyph glyph-name="uniFE92" unicode="&#x628;" horiz-adv-x="231" arabic-form="medial" 
d="M233 45l6 -23l-6 -22h-38q-38 0 -56 19q-21 -19 -56 -19h-93v45h93q16 0 26 11t10 30v138q0 14 11 19.5t22.5 0t11.5 -20.5v-127q0 -32 5.5 -41.5t25.5 -9.5h38zM85 -75q0 14 11.5 20t23 0.5t11.5 -20.5v-16q0 -15 -11.5 -21t-23 0t-11.5 21v16z" />
    <glyph glyph-name="uniFE94" unicode="&#x629;" horiz-adv-x="324" arabic-form="final" 
d="M98 322v16q0 14 11.5 20t23 0.5t11.5 -20.5v-16q0 -15 -11.5 -21t-23 0t-11.5 21zM160 322v16q0 14 11.5 20t23 0.5t11.5 -20.5v-16q0 -15 -11.5 -21t-23 0t-11.5 21zM20 129v1q0 56 39 95.5t95 39.5t94 -38.5t38 -95.5v-86h39l8 -24l-8 -21h-191q-46 0 -80 39t-34 90z
M65 130q0 -32 20.5 -58.5t42.5 -26.5h113v86q0 38 -25.5 64t-63.5 26q-37 0 -62 -26.5t-25 -63.5v-1z" />
    <glyph glyph-name="uniFE96" unicode="&#x62a;" horiz-adv-x="386" arabic-form="final" 
d="M169 308q0 -15 -11.5 -21t-23 0t-11.5 21v16q0 14 11.5 20t23 0.5t11.5 -20.5v-16zM231 308q0 -15 -11.5 -21t-23 0t-11.5 21v16q0 14 11.5 20t23 0.5t11.5 -20.5v-16zM391 45l12 -24l-12 -21h-22q-33 0 -48 19q-22 -19 -56 -19h-164q-38 0 -59.5 22.5t-21.5 62.5v109
q0 14 11 20t22.5 0t11.5 -20v-108q0 -19 10 -30t26 -11h164q16 0 26 11t10 30v138q0 14 11.5 19.5t22.5 0t11 -20.5v-138v-3q0 -27 7 -32t38 -5z" />
    <glyph glyph-name="uniFE97" unicode="&#x62a;" horiz-adv-x="187" arabic-form="initial" 
d="M74 308v16q0 14 11.5 20t23 0.5t11.5 -20.5v-16q0 -15 -11.5 -21t-23 0t-11.5 21zM136 308v16q0 14 11.5 20t23 0.5t11.5 -20.5v-16q0 -15 -11.5 -21t-23 0t-11.5 21zM-10 45h93q16 0 26 11t10 30v138q0 14 11 19.5t22.5 0t11.5 -20.5v-138q0 -41 -21.5 -63t-59.5 -22
h-93v45z" />
    <glyph glyph-name="uniFE98" unicode="&#x62a;" horiz-adv-x="231" arabic-form="medial" 
d="M134 308q0 -15 -11.5 -21t-23 0t-11.5 21v16q0 14 11.5 20t23 0.5t11.5 -20.5v-16zM196 308q0 -15 -11.5 -21t-23 0t-11.5 21v16q0 14 11.5 20t23 0.5t11.5 -20.5v-16zM233 45l6 -23l-6 -22h-38q-38 0 -56 19q-21 -19 -56 -19h-93v45h93q16 0 26 11t10 30v138
q0 14 11 19.5t22.5 0t11.5 -20.5v-127q0 -32 5.5 -41.5t25.5 -9.5h38z" />
    <glyph glyph-name="uniFE9A" unicode="&#x62b;" horiz-adv-x="386" arabic-form="final" 
d="M200 390q0 -22 -23 -22t-23 22v16q0 14 11.5 20t23 0.5t11.5 -20.5v-16zM169 308q0 -15 -11.5 -21t-23 0t-11.5 21v16q0 14 11.5 20t23 0.5t11.5 -20.5v-16zM185 324q0 14 11.5 20t23 0.5t11.5 -20.5v-16q0 -15 -11.5 -21t-23 0t-11.5 21v16zM391 45l12 -24l-12 -21h-22
q-33 0 -48 19q-22 -19 -56 -19h-164q-38 0 -59.5 22.5t-21.5 62.5v109q0 14 11 20t22.5 0t11.5 -20v-108q0 -19 10 -30t26 -11h164q16 0 26 11t10 30v138q0 14 11.5 19.5t22.5 0t11 -20.5v-138v-3q0 -27 7 -32t38 -5z" />
    <glyph glyph-name="uniFE9B" unicode="&#x62b;" horiz-adv-x="187" arabic-form="initial" 
d="M105 390v16q0 14 11.5 20t23 0.5t11.5 -20.5v-16q0 -22 -23 -22t-23 22zM74 308v16q0 14 11.5 20t23 0.5t11.5 -20.5v-16q0 -15 -11.5 -21t-23 0t-11.5 21zM136 308v16q0 14 11.5 20t23 0.5t11.5 -20.5v-16q0 -15 -11.5 -21t-23 0t-11.5 21zM-10 45h93q16 0 26 11t10 30
v138q0 14 11 19.5t22.5 0t11.5 -20.5v-138q0 -41 -21.5 -63t-59.5 -22h-93v45z" />
    <glyph glyph-name="uniFE9C" unicode="&#x62b;" horiz-adv-x="231" arabic-form="medial" 
d="M165 390q0 -22 -23 -22t-23 22v16q0 14 11.5 20t23 0.5t11.5 -20.5v-16zM134 308q0 -15 -11.5 -21t-23 0t-11.5 21v16q0 14 11.5 20t23 0.5t11.5 -20.5v-16zM150 324q0 14 11.5 20t23 0.5t11.5 -20.5v-16q0 -15 -11.5 -21t-23 0t-11.5 21v16zM233 45l6 -23l-6 -22h-38
q-38 0 -56 19q-21 -19 -56 -19h-93v45h93q16 0 26 11t10 30v138q0 14 11 19.5t22.5 0t11.5 -20.5v-127q0 -32 5.5 -41.5t25.5 -9.5h38z" />
    <glyph glyph-name="uniFE9E" unicode="&#x62c;" horiz-adv-x="409" arabic-form="final" 
d="M414 45l7 -23l-6 -22h-39q-19 0 -30 4v-4h-243q-18 0 -28.5 -13t-10.5 -35q0 -23 16.5 -38.5t39.5 -15.5q10 0 16.5 -7t5.5 -17q-3 -20 -23 -20q-41 0 -70 28.5t-29 69.5q0 35 20.5 61t52.5 31q2 1 7 1h200v57q0 57 -28 87.5t-81 30.5q-47 0 -83 -35q-9 -9 -20 -6t-14 13
t4 20q17 23 49 38t67 15q70 0 111 -43t41 -116v-10q0 -31 5.5 -41t24.5 -10h38zM215 -56q0 14 11.5 20t23 0.5t11.5 -20.5v-16q0 -15 -11.5 -21t-23 0t-11.5 21v16z" />
    <glyph glyph-name="uniFE9F" unicode="&#x62c;" horiz-adv-x="338" arabic-form="initial" 
d="M166 265q70 0 111 -44t41 -117v-104h-322l-4 22l4 23h277v55q0 57 -28.5 88.5t-81.5 31.5q-49 0 -81 -35q-10 -11 -23.5 -6t-13.5 19q0 9 5 14q45 53 116 53zM159 -69q0 14 11.5 20t23 0.5t11.5 -20.5v-16q0 -15 -11.5 -21t-23 0t-11.5 21v16z" />
    <glyph glyph-name="uniFEA0" unicode="&#x62c;" horiz-adv-x="347" arabic-form="medial" 
d="M318 45h44l-1 -45h-365l-4 22l4 23h277v55q0 57 -28.5 88.5t-81.5 31.5q-49 0 -81 -35q-10 -11 -23.5 -6t-13.5 19q0 9 5 14q45 53 116 53q70 0 111 -44t41 -117v-59zM159 -68q0 14 11.5 19.5t23 0t11.5 -19.5v-16q0 -15 -11.5 -21t-23 0t-11.5 21v16z" />
    <glyph glyph-name="uniFEA2" unicode="&#x62d;" horiz-adv-x="393" arabic-form="final" 
d="M346 45h57l-1 -45h-299q-18 0 -28.5 -13t-10.5 -35q0 -23 16.5 -38.5t39.5 -15.5q10 0 16.5 -7t5.5 -17q-3 -20 -23 -20q-41 0 -70 28.5t-29 69.5q0 35 20.5 61t52.5 31q2 1 7 1h200v57q0 57 -28 87.5t-81 30.5q-47 0 -83 -35q-9 -9 -20 -6t-14 13t4 20q17 23 49 38
t67 15q70 0 111 -43t41 -116v-61z" />
    <glyph glyph-name="uniFEA3" unicode="&#x62d;" horiz-adv-x="338" arabic-form="initial" 
d="M166 265q70 0 111 -44t41 -117v-104h-322l-4 22l4 23h277v55q0 57 -28.5 88.5t-81.5 31.5q-49 0 -81 -35q-10 -11 -23.5 -6t-13.5 19q0 9 5 14q45 53 116 53z" />
    <glyph glyph-name="uniFEA4" unicode="&#x62d;" horiz-adv-x="345" arabic-form="medial" 
d="M315 45h39l-1 -45h-360l-4 22l4 23h277v55q0 57 -28.5 88.5t-81.5 31.5q-49 0 -81 -35q-11 -11 -24 -6t-13 19q0 9 5 14q45 53 116 53q70 0 111 -44t41 -117v-59z" />
    <glyph glyph-name="uniFEA6" unicode="&#x62e;" horiz-adv-x="393" arabic-form="final" 
d="M225 337q0 -15 -11.5 -21t-23 0t-11.5 21v16q0 14 11.5 20t23 0.5t11.5 -20.5v-16zM346 45h57l-1 -45h-299q-18 0 -28.5 -13t-10.5 -35q0 -23 16.5 -38.5t39.5 -15.5q10 0 16.5 -7t5.5 -17q-3 -20 -23 -20q-41 0 -70 28.5t-29 69.5q0 35 20.5 61t52.5 31q2 1 7 1h200v57
q0 57 -28 87.5t-81 30.5q-47 0 -83 -35q-9 -9 -20 -6t-14 13t4 20q17 23 49 38t67 15q70 0 111 -43t41 -116v-61z" />
    <glyph glyph-name="uniFEA7" unicode="&#x62e;" horiz-adv-x="338" arabic-form="initial" 
d="M188 336q0 -15 -11.5 -21t-23 0t-11.5 21v16q0 14 11.5 20t23 0.5t11.5 -20.5v-16zM166 265q70 0 111 -44t41 -117v-104h-322l-4 22l4 23h277v55q0 57 -28.5 88.5t-81.5 31.5q-49 0 -81 -35q-10 -11 -23.5 -6t-13.5 19q0 9 5 14q45 53 116 53z" />
    <glyph glyph-name="uniFEA8" unicode="&#x62e;" horiz-adv-x="345" arabic-form="medial" 
d="M176 336q0 -15 -11.5 -21t-23 0t-11.5 21v16q0 14 11.5 20t23 0.5t11.5 -20.5v-16zM315 45h39l-1 -45h-360l-4 22l4 23h277v55q0 57 -28.5 88.5t-81.5 31.5q-49 0 -81 -35q-11 -11 -24 -6t-13 19q0 9 5 14q45 53 116 53q70 0 111 -44t41 -117v-59z" />
    <glyph glyph-name="uniFEAA" unicode="&#x62f;" horiz-adv-x="279" arabic-form="final" 
d="M219 45h70l-1 -45h-246q-14 0 -19.5 11t0 22.5t19.5 11.5h131v58q0 52 -24.5 82.5t-69.5 34.5q-21 4 -21 23q0 11 7.5 17t18.5 5q61 -4 98 -49t37 -113v-58z" />
    <glyph glyph-name="uniFEAC" unicode="&#x630;" horiz-adv-x="256" arabic-form="final" 
d="M110 336q0 -15 -11.5 -21t-23 0t-11.5 21v16q0 14 11.5 20t23 0.5t11.5 -20.5v-16zM299 45l-1 -45h-256q-14 0 -19.5 11t0 22.5t19.5 11.5h131v58q0 52 -24.5 82.5t-69.5 34.5q-21 4 -21 23q0 11 7.5 17t18.5 5q61 -4 98 -49t37 -113v-58h80z" />
    <glyph glyph-name="uniFEAE" unicode="&#x631;" horiz-adv-x="189" arabic-form="final" 
d="M192 45l10 -21l-10 -24h-37q-21 0 -40 8v-2q0 -43 -22 -67.5t-60 -24.5q-16 0 -22.5 11t-0.5 22t22 11q37 0 37 46v222q0 14 11.5 19.5t23 0t11.5 -19.5v-134q1 -47 40 -47h37z" />
    <glyph glyph-name="uniFEB0" unicode="&#x632;" horiz-adv-x="189" arabic-form="final" 
d="M115 312q0 -15 -11.5 -21t-23 0t-11.5 21v16q0 14 11.5 20t23 0.5t11.5 -20.5v-16zM192 45l10 -21l-10 -24h-37q-21 0 -40 8v-2q0 -43 -22 -67.5t-60 -24.5q-16 0 -22.5 11t-0.5 22t22 11q37 0 37 46v222q0 14 11.5 19.5t23 0t11.5 -19.5v-134q1 -47 40 -47h37z" />
    <glyph glyph-name="uniFEB2" unicode="&#x633;" horiz-adv-x="637" arabic-form="final" 
d="M644 45l6 -23l-5 -22h-39q-46 0 -62 28q-32 -30 -113 -28v24q-34 -24 -104 -24h-21q-19 -41 -55 -63t-78 -23q-64 -1 -109.5 43t-43.5 122l18 145q2 14 13.5 19t22 -2t8.5 -22l-17 -140q-7 -54 22.5 -85t82.5 -33q107 3 107 130v107q0 14 11.5 19.5t23 0t11.5 -19.5v-153
q63 0 84.5 16t23.5 63v117q0 14 11 19.5t22 0t11 -19.5v-94v-25v-77q31 -1 45.5 24.5t14.5 79.5v105q0 21 22 21t22 -21v-105q0 -34 -4 -55q0 -30 6 -39.5t25 -9.5h38z" />
    <glyph glyph-name="uniFEB3" unicode="&#x633;" horiz-adv-x="378" arabic-form="initial" 
d="M313 244q0 21 22 21t22 -21v-95q0 -86 -33 -118.5t-115 -30.5v24q-34 -24 -104 -24h-50v9q-18 -9 -42 -9h-23l-9 24l9 21h23q41 0 42 46v107q0 14 11.5 19.5t23 0t11.5 -19.5v-102v-9v-42q62 0 83 15.5t25 64.5v106q0 14 11 19.5t22 0t11 -19.5v-84v-14v-88q32 0 46 25
t14 79v95z" />
    <glyph glyph-name="uniFEB4" unicode="&#x633;" horiz-adv-x="403" arabic-form="medial" 
d="M403 45l9 -22l-9 -23h-9q-49 0 -69 31q-34 -34 -116 -31v25q-33 -25 -104 -25h-50v9q-19 -9 -43 -9h-20l-9 24l9 21h20q42 0 43 46v107q0 14 11.5 19.5t23 0t11.5 -19.5v-153q62 0 83 15.5t25 64.5v106q0 14 11 19.5t22 0t11 -19.5v-84v-7v-95q32 0 46 25t14 79v95
q0 21 22 21t22 -21v-148q0 -51 37 -51h9z" />
    <glyph glyph-name="uniFEB6" unicode="&#x634;" horiz-adv-x="637" arabic-form="final" 
d="M478 396q0 -22 -23 -22t-23 22v16q0 14 11.5 20t23 0.5t11.5 -20.5v-16zM447 314q0 -15 -11.5 -21t-23 0t-11.5 21v16q0 14 11.5 20t23 0.5t11.5 -20.5v-16zM463 330q0 14 11.5 20t23 0.5t11.5 -20.5v-16q0 -15 -11.5 -21t-23 0t-11.5 21v16zM644 45l6 -23l-5 -22h-39
q-46 0 -62 28q-32 -30 -113 -28v24q-34 -24 -104 -24h-21q-19 -41 -55 -63t-78 -23q-64 -1 -109.5 43t-43.5 122l18 145q2 14 13.5 19t22 -2t8.5 -22l-17 -140q-7 -54 22.5 -85t82.5 -33q107 3 107 130v107q0 14 11.5 19.5t23 0t11.5 -19.5v-153q63 0 84.5 16t23.5 63v117
q0 14 11 19.5t22 0t11 -19.5v-94v-25v-77q31 -1 45.5 24.5t14.5 79.5v105q0 21 22 21t22 -21v-105q0 -34 -4 -55q0 -30 6 -39.5t25 -9.5h38z" />
    <glyph glyph-name="uniFEB7" unicode="&#x634;" horiz-adv-x="378" arabic-form="initial" 
d="M252 398q0 -22 -23 -22t-23 22v16q0 14 11.5 20t23 0.5t11.5 -20.5v-16zM221 316q0 -15 -11.5 -21t-23 0t-11.5 21v16q0 14 11.5 20t23 0.5t11.5 -20.5v-16zM237 332q0 14 11.5 20t23 0.5t11.5 -20.5v-16q0 -15 -11.5 -21t-23 0t-11.5 21v16zM313 244q0 21 22 21t22 -21
v-95q0 -86 -33 -118.5t-115 -30.5v24q-34 -24 -104 -24h-50v9q-18 -9 -42 -9h-23l-9 24l9 21h23q41 0 42 46v107q0 14 11.5 19.5t23 0t11.5 -19.5v-102v-9v-42q62 0 83 15.5t25 64.5v106q0 14 11 19.5t22 0t11 -19.5v-84v-14v-88q32 0 46 25t14 79v95z" />
    <glyph glyph-name="uniFEB8" unicode="&#x634;" horiz-adv-x="403" arabic-form="medial" 
d="M252 398q0 -22 -23 -22t-23 22v16q0 14 11.5 20t23 0.5t11.5 -20.5v-16zM221 316q0 -15 -11.5 -21t-23 0t-11.5 21v16q0 14 11.5 20t23 0.5t11.5 -20.5v-16zM237 332q0 14 11.5 20t23 0.5t11.5 -20.5v-16q0 -15 -11.5 -21t-23 0t-11.5 21v16zM403 45l9 -22l-9 -23h-9
q-49 0 -69 31q-34 -34 -116 -31v25q-33 -25 -104 -25h-50v9q-19 -9 -43 -9h-20l-9 24l9 21h20q42 0 43 46v107q0 14 11.5 19.5t23 0t11.5 -19.5v-153q62 0 83 15.5t25 64.5v106q0 14 11 19.5t22 0t11 -19.5v-84v-7v-95q32 0 46 25t14 79v95q0 21 22 21t22 -21v-148
q0 -51 37 -51h9z" />
    <glyph glyph-name="uniFEBA" unicode="&#x635;" horiz-adv-x="658" arabic-form="final" 
d="M662 45l6 -23l-5 -22h-39q-39 0 -56 20q-22 -20 -55 -20h-208q-20 -41 -55 -63t-77 -23q-64 -1 -109.5 43t-43.5 122l18 145q2 14 14 19t22 -2t9 -22l-18 -140q-7 -54 23.5 -85t84.5 -33q105 3 105 130v133q0 14 11 19.5t22.5 0t11.5 -20.5v-8q44 50 118 50
q70 0 111.5 -45t41.5 -118v-6q0 -31 5.5 -41t24.5 -10h38zM548 84v18q0 64 -47.5 95t-103 16t-74.5 -68v-60q0 -16 -4 -40h193q36 0 36 39z" />
    <glyph glyph-name="uniFEBB" unicode="&#x635;" horiz-adv-x="377" arabic-form="initial" 
d="M204 265q69 0 111 -45t42 -118v-19q-1 -39 -23 -61t-58 -22h-283l-12 21l11 24h48v179q0 14 11.5 19.5t23 0t11.5 -20.5v-7q44 49 118 49zM310 84v18q0 64 -44.5 96t-99 17.5t-80.5 -68.5v-102h188q36 0 36 39z" />
    <glyph glyph-name="uniFEBC" unicode="&#x635;" horiz-adv-x="421" arabic-form="medial" 
d="M425 45l6 -23l-5 -22h-39q-39 0 -56 20q-22 -20 -55 -20h-283l-12 21l11 24h48v179q0 14 11.5 19.5t23 0t11.5 -20.5v-7q44 49 118 49q69 0 111 -45t42 -118v-6q0 -31 5.5 -41t24.5 -10h38zM310 84v18q0 64 -44.5 96t-99 17.5t-80.5 -68.5v-102h188q36 0 36 39z" />
    <glyph glyph-name="uniFEBE" unicode="&#x636;" horiz-adv-x="658" arabic-form="final" 
d="M464 314q0 -15 -11.5 -21t-23 0t-11.5 21v16q0 14 11.5 20t23 0.5t11.5 -20.5v-16zM662 45l6 -23l-5 -22h-39q-39 0 -56 20q-22 -20 -55 -20h-208q-20 -41 -55 -63t-77 -23q-64 -1 -109.5 43t-43.5 122l18 145q2 14 14 19t22 -2t9 -22l-18 -140q-7 -54 23.5 -85t84.5 -33
q105 3 105 130v133q0 14 11 19.5t22.5 0t11.5 -20.5v-8q44 50 118 50q70 0 111.5 -45t41.5 -118v-6q0 -31 5.5 -41t24.5 -10h38zM548 84v18q0 64 -47.5 95t-103 16t-74.5 -68v-60q0 -16 -4 -40h193q36 0 36 39z" />
    <glyph glyph-name="uniFEBF" unicode="&#x636;" horiz-adv-x="377" arabic-form="initial" 
d="M227 314q0 -15 -11.5 -21t-23 0t-11.5 21v16q0 14 11.5 20t23 0.5t11.5 -20.5v-16zM204 265q69 0 111 -45t42 -118v-19q-1 -39 -23 -61t-58 -22h-283l-12 21l11 24h48v179q0 14 11.5 19.5t23 0t11.5 -20.5v-7q44 49 118 49zM310 84v18q0 64 -44.5 96t-99 17.5
t-80.5 -68.5v-102h188q36 0 36 39z" />
    <glyph glyph-name="uniFEC0" unicode="&#x636;" horiz-adv-x="421" arabic-form="medial" 
d="M226 314q0 -15 -11.5 -21t-23 0t-11.5 21v16q0 14 11.5 20t23 0.5t11.5 -20.5v-16zM425 45l6 -23l-5 -22h-39q-39 0 -56 20q-22 -20 -55 -20h-283l-12 21l11 24h48v179q0 14 11.5 19.5t23 0t11.5 -20.5v-7q44 49 118 49q69 0 111 -45t42 -118v-6q0 -31 5.5 -41t24.5 -10
h38zM310 84v18q0 64 -44.5 96t-99 17.5t-80.5 -68.5v-102h188q36 0 36 39z" />
    <glyph glyph-name="uniFEC2" unicode="&#x637;" horiz-adv-x="478" arabic-form="final" 
d="M482 45l6 -23l-5 -22h-39q-38 0 -56 19q-22 -19 -55 -19h-311l-9 45h84v316q0 15 11.5 21t23 0t11.5 -21v-156q41 60 118 60q69 0 111 -45t42 -118v-6q0 -31 5.5 -41t24.5 -10h38zM368 84v18q0 49 -27 80.5t-62.5 37.5t-72 -13t-54.5 -61q-9 -22 -9 -101h188q37 0 37 39z
" />
    <glyph glyph-name="uniFEC3" unicode="&#x637;" horiz-adv-x="407" arabic-form="initial" 
d="M227 265q69 0 111 -45t42 -118v-19q0 -38 -22.5 -60.5t-58.5 -22.5h-311l-9 45h84v316q0 15 11.5 21t23 0t11.5 -21v-156q41 60 118 60zM334 84v18q0 49 -27 80.5t-62.5 37.5t-72 -13t-54.5 -61q-9 -22 -9 -101h188q37 0 37 39z" />
    <glyph glyph-name="uniFEC4" unicode="&#x637;" horiz-adv-x="455" arabic-form="medial" 
d="M459 45l6 -23l-6 -22h-38q-40 0 -56 20q-22 -20 -56 -20h-310l-9 45h83v316q0 15 11.5 21t23 0t11.5 -21v-156q42 60 118 60q70 0 111.5 -45t41.5 -118v-6q0 -31 6 -41t25 -10h38zM344 84v18q0 39 -17.5 68t-44.5 40.5t-56 10t-56 -21t-41 -53.5q-8 -21 -10 -101h188
q37 0 37 39z" />
    <glyph glyph-name="uniFEC6" unicode="&#x638;" horiz-adv-x="478" arabic-form="final" 
d="M482 45l6 -23l-5 -22h-39q-38 0 -56 19q-22 -19 -55 -19h-311l-9 45h84v316q0 15 11.5 21t23 0t11.5 -21v-156q41 60 118 60q69 0 111 -45t42 -118v-6q0 -31 5.5 -41t24.5 -10h38zM283 318q0 -15 -11.5 -21t-23 0t-11.5 21v16q0 14 11.5 20t23 0.5t11.5 -20.5v-16z
M368 84v18q0 49 -27 80.5t-62.5 37.5t-72 -13t-54.5 -61q-9 -22 -9 -101h188q37 0 37 39z" />
    <glyph glyph-name="uniFEC7" unicode="&#x638;" horiz-adv-x="407" arabic-form="initial" 
d="M227 265q69 0 111 -45t42 -118v-19q0 -38 -22.5 -60.5t-58.5 -22.5h-311l-9 45h84v316q0 15 11.5 21t23 0t11.5 -21v-156q41 60 118 60zM245 326q0 -15 -11.5 -21t-23 0t-11.5 21v16q0 14 11.5 20t23 0.5t11.5 -20.5v-16zM334 84v18q0 49 -27 80.5t-62.5 37.5t-72 -13
t-54.5 -61q-9 -22 -9 -101h188q37 0 37 39z" />
    <glyph glyph-name="uniFEC8" unicode="&#x638;" horiz-adv-x="455" arabic-form="medial" 
d="M459 45l6 -23l-6 -22h-38q-40 0 -56 20q-22 -20 -56 -20h-310l-9 45h83v316q0 15 11.5 21t23 0t11.5 -21v-156q42 60 118 60q70 0 111.5 -45t41.5 -118v-6q0 -31 6 -41t25 -10h38zM260 318q0 -15 -11.5 -21t-23 0t-11.5 21v16q0 14 11.5 20t23 0.5t11.5 -20.5v-16z
M344 84v18q0 39 -17.5 68t-44.5 40.5t-56 10t-56 -21t-41 -53.5q-8 -21 -10 -101h188q37 0 37 39z" />
    <glyph glyph-name="uniFECA" unicode="&#x639;" horiz-adv-x="396" arabic-form="final" 
d="M405 45l15 -23l-14 -22h-15q-89 0 -172 56q-22 -10 -56.5 -21.5t-52.5 -18.5t-32.5 -21.5t-14.5 -35.5q0 -57 54 -57h7q12 0 17 -10.5t0 -21t-17 -10.5h-7q-44 0 -70.5 27.5t-26.5 71.5q0 26 8 44t27 29.5t35 18t47 15.5t48 15q-75 62 -133 158q-6 9 -3 18q5 7 17 7h199
q138 0 78 -104q-28 -49 -78 -80q59 -35 125 -35h15zM119 221q67 -82 112 -118q40 22 68 62q39 56 -24 56h-156z" />
    <glyph glyph-name="uniFECB" unicode="&#x639;" horiz-adv-x="307" arabic-form="initial" 
d="M268 45q14 0 19.5 -11t0 -22.5t-19.5 -11.5h-274l-12 21l11 24h84q-4 19 -4 57q0 74 42 118.5t112 44.5h22q15 0 21.5 -11t0 -22.5t-21.5 -11.5h-22q-52 0 -80.5 -31.5t-27.5 -86.5q1 -42 5.5 -49.5t29.5 -7.5h114z" />
    <glyph glyph-name="uniFECC" unicode="&#x639;" horiz-adv-x="321" arabic-form="medial" 
d="M326 45l14 -23l-14 -22h-23q-75 0 -138 38q-68 -38 -143 -38h-25l-15 22l13 23h26q60 0 105 22q-15 13 -30.5 29.5t-25.5 29t-22 31.5t-16.5 26.5t-14.5 25.5l-10 18q-7 14 -1 24q6 13 22 13h182q56 0 78 -37.5t-8 -81.5q-29 -42 -67 -74q47 -26 90 -26h23zM64 221
q38 -70 111 -124q34 26 66 73q13 20 4 35.5t-35 15.5h-146z" />
    <glyph glyph-name="uniFECE" unicode="&#x63a;" horiz-adv-x="396" arabic-form="final" 
d="M227 337q0 -15 -11.5 -21t-23 0t-11.5 21v16q0 14 11.5 20t23 0.5t11.5 -20.5v-16zM405 45l15 -23l-14 -22h-15q-89 0 -172 56q-22 -10 -56.5 -21.5t-52.5 -18.5t-32.5 -21.5t-14.5 -35.5q0 -57 54 -57h7q12 0 17 -10.5t0 -21t-17 -10.5h-7q-44 0 -70.5 27.5t-26.5 71.5
q0 26 8 44t27 29.5t35 18t47 15.5t48 15q-75 62 -133 158q-6 9 -3 18q5 7 17 7h199q138 0 78 -104q-28 -49 -78 -80q59 -35 125 -35h15zM119 221q67 -82 112 -118q40 22 68 62q39 56 -24 56h-156z" />
    <glyph glyph-name="uniFECF" unicode="&#x63a;" horiz-adv-x="307" arabic-form="initial" 
d="M220 337q0 -15 -11.5 -21t-23 0t-11.5 21v16q0 14 11.5 20t23 0.5t11.5 -20.5v-16zM268 45q14 0 19.5 -11t0 -22.5t-19.5 -11.5h-274l-12 21l11 24h84q-4 19 -4 57q0 74 42 118.5t112 44.5h22q15 0 21.5 -11t0 -22.5t-21.5 -11.5h-22q-52 0 -80.5 -31.5t-27.5 -86.5
q1 -42 5.5 -49.5t29.5 -7.5h114z" />
    <glyph glyph-name="uniFED0" unicode="&#x63a;" horiz-adv-x="321" arabic-form="medial" 
d="M176 322q0 -15 -11.5 -21t-23 0t-11.5 21v16q0 14 11.5 20t23 0.5t11.5 -20.5v-16zM326 45l14 -23l-14 -22h-23q-75 0 -138 38q-68 -38 -143 -38h-25l-15 22l13 23h26q60 0 105 22q-15 13 -30.5 29.5t-25.5 29t-22 31.5t-16.5 26.5t-14.5 25.5l-10 18q-7 14 -1 24
q6 13 22 13h182q56 0 78 -37.5t-8 -81.5q-29 -42 -67 -74q47 -26 90 -26h23zM64 221q38 -70 111 -124q34 26 66 73q13 20 4 35.5t-35 15.5h-146z" />
    <glyph glyph-name="uniFED2" unicode="&#x641;" horiz-adv-x="510" arabic-form="final" 
d="M361 333q0 -15 -11.5 -21t-23 0t-11.5 21v16q0 14 11.5 20t23 0.5t11.5 -20.5v-16zM454 45h74l-1 -45h-128v1h-4v-1h-223q-68 0 -110 44.5t-42 116.5v13q0 10 6 16.5t16 6.5t16.5 -6.5t6.5 -16.5v-9q0 -55 29 -87.5t78 -32.5h101q-30 40 -30 92q0 56 28.5 92t73.5 36h1
q49 0 78.5 -36.5t29.5 -91.5v-92zM411 45l-2 92q0 39 -16.5 62t-45.5 23h-1q-28 0 -43 -22t-15 -63q0 -37 22.5 -64.5t54.5 -27.5h46z" />
    <glyph glyph-name="uniFED4" unicode="&#x641;" horiz-adv-x="304" arabic-form="medial" 
d="M173 328q0 -15 -11.5 -21t-23 0t-11.5 21v16q0 14 11.5 20t23 0.5t11.5 -20.5v-16zM257 45h64l-1 -45h-330v45h86q-30 40 -30 92q0 56 28.5 92t73.5 36h1q49 0 78.5 -36.5t29.5 -91.5v-92zM91 137q0 -37 22.5 -64.5t54.5 -27.5h46l-2 92q0 39 -16.5 62t-45.5 23h-1
q-28 0 -43 -22t-15 -63z" />
    <glyph glyph-name="uniFED6" unicode="&#x642;" horiz-adv-x="446" arabic-form="final" 
d="M240 324q0 -15 -11.5 -21t-23 0t-11.5 21v16q0 14 11.5 20t23 0.5t11.5 -20.5v-16zM302 324q0 -15 -11.5 -21t-23 0t-11.5 21v16q0 14 11.5 20t23 0.5t11.5 -20.5v-16zM370 45h86l-1 -45h-85v-26q-1 -55 -45.5 -83.5t-124.5 -28.5h-1q-74 0 -124 54.5t-46 133.5
q1 19 5.5 28t17.5 9q25 0 20 -37q-4 -62 34 -103t93 -41q57 0 91 18t36 50v26h-45q-35 0 -60.5 15.5t-37.5 38.5t-17.5 43.5t-5.5 38.5q0 56 28.5 92t73.5 36h1q48 0 77.5 -36.5t29.5 -91.5v-91zM204 136q0 -37 22.5 -64.5t54.5 -27.5h46l-1 92q0 38 -17 61.5t-45 23.5h-1
q-59 0 -59 -85z" />
    <glyph glyph-name="uniFED7" unicode="&#x642;" horiz-adv-x="285" arabic-form="initial" 
d="M142 328q0 -15 -11.5 -21t-23 0t-11.5 21v16q0 14 11.5 20t23 0.5t11.5 -20.5v-16zM204 328q0 -15 -11.5 -21t-23 0t-11.5 21v16q0 14 11.5 20t23 0.5t11.5 -20.5v-16zM257 137v-137l-59 1v-1h-208v45h86q-30 40 -30 92q0 56 28.5 92t73.5 36h1q49 0 78.5 -36.5
t29.5 -91.5zM214 45l-2 92q0 39 -16.5 62t-45.5 23h-1q-28 0 -43 -22t-15 -63q0 -37 22.5 -64.5t54.5 -27.5h46z" />
    <glyph glyph-name="uniFED8" unicode="&#x642;" horiz-adv-x="304" arabic-form="medial" 
d="M142 328q0 -15 -11.5 -21t-23 0t-11.5 21v16q0 14 11.5 20t23 0.5t11.5 -20.5v-16zM204 328q0 -15 -11.5 -21t-23 0t-11.5 21v16q0 14 11.5 20t23 0.5t11.5 -20.5v-16zM257 45h64l-1 -45h-330v45h86q-30 40 -30 92q0 56 28.5 92t73.5 36h1q49 0 78.5 -36.5t29.5 -91.5
v-92zM91 137q0 -37 22.5 -64.5t54.5 -27.5h46l-2 92q0 39 -16.5 62t-45.5 23h-1q-28 0 -43 -22t-15 -63z" />
    <glyph glyph-name="uniFEDA" unicode="&#x643;" horiz-adv-x="498" arabic-form="final" 
d="M501 45l7 -23l-6 -22h-38q-28 0 -44 9q-9 -9 -24 -9h-307q-35 0 -57.5 21t-23.5 59q0 2 1.5 6t6.5 9.5t13 5.5q9 0 14.5 -5.5t6.5 -9t1 -6.5q1 -21 10.5 -28t28.5 -7h296v57q0 56 -27 87.5t-79 31.5h-106q-12 0 -20.5 8.5t-8.5 20.5q0 14 9 20l92 80q5 7 15 7
q15 0 20.5 -14t-5.5 -24l-64 -54h68q74 0 113.5 -44.5t39.5 -118.5v-6q0 -32 5.5 -41.5t25.5 -9.5h37z" />
    <glyph glyph-name="uniFEDB" unicode="&#x643;" horiz-adv-x="342" arabic-form="initial" 
d="M166 265q76 0 116.5 -45.5t40.5 -121.5v-61q0 -16 -11 -26.5t-26 -10.5h-291l-11 23l11 22h281v57q0 56 -26.5 87.5t-76.5 31.5h-109q-12 0 -20.5 8.5t-8.5 20.5q0 14 9 20l92 80q5 7 15 7q14 0 20 -14t-5 -23l-64 -55h64z" />
    <glyph glyph-name="uniFEDC" unicode="&#x643;" horiz-adv-x="380" arabic-form="medial" 
d="M391 45l7 -23l-6 -22h-39q-27 0 -43 9q-9 -9 -24 -9h-291l-11 23l11 22h281v57q0 56 -26.5 87.5t-76.5 31.5h-109q-12 0 -20.5 8.5t-8.5 20.5q0 14 9 20l92 80q5 7 15 7q14 0 20 -14t-5 -23l-64 -55h64q76 0 116.5 -45.5t40.5 -121.5v-2q0 -31 5.5 -41t24.5 -10h38z" />
    <glyph glyph-name="uniFEDE" unicode="&#x644;" horiz-adv-x="323" arabic-form="final" 
d="M327 45l6 -23l-5 -22h-39q-18 0 -33 5q-9 -53 -40 -84.5t-78 -31.5h-2q-50 0 -83 38t-33 96q0 14 11 19.5t22.5 0t11.5 -19.5q0 -40 20 -64t53 -24h1q35 0 54.5 27.5t19.5 76.5v295q0 22 23 22t23 -22v-262q1 -15 8 -21t22 -6h38z" />
    <glyph glyph-name="uniFEDF" unicode="&#x644;" horiz-adv-x="117" arabic-form="initial" 
d="M73 362q9 0 15.5 -6t6.5 -15v-245q-1 -44 -22.5 -70t-59.5 -26h-21v45h21q36 0 36 51v246q0 10 6.5 15.5t17.5 4.5z" />
    <glyph glyph-name="uniFEE0" unicode="&#x644;" horiz-adv-x="124" arabic-form="medial" 
d="M131 45l12 -23l-12 -22h-21q-31 0 -46 16q-16 -16 -46 -16h-26l-11 22l11 23h26q14 0 18.5 10.5t4.5 42.5v242q0 10 7.5 17t17.5 6q21 -4 21 -24v-261q1 -19 6 -26t17 -7h21z" />
    <glyph glyph-name="uniFEE2" unicode="&#x645;" horiz-adv-x="345" arabic-form="final" 
d="M20 -103v97q0 55 48 74q-15 32 -15 65q0 50 27 84.5t65.5 42.5t77 0t65.5 -42.5t27 -84.5q0 -27 -10 -54q0 -14 7 -22t13.5 -10t11.5 -2h21l13 -23l-13 -22h-21q-51 0 -66 32q-35 -32 -84 -33.5t-89 30.5q-34 -4 -34 -35v-97q0 -15 -11 -21.5t-22 0t-11 21.5zM184 45
q38 0 62 25t24 63q0 36 -25.5 62t-60.5 26q-37 0 -61.5 -25.5t-24.5 -62.5t25 -62.5t61 -25.5z" />
    <glyph glyph-name="uniFEE3" unicode="&#x645;" horiz-adv-x="327" arabic-form="initial" 
d="M45 133q0 50 27 84.5t65.5 42.5t77 0t65.5 -42.5t27 -84.5q0 -48 -24.5 -81t-58.5 -44.5t-72.5 -5.5t-65.5 31q-15 -33 -65 -33h-38l-6 22l6 23h38q19 0 24.5 8t6.5 33q-7 20 -7 47zM176 45q37 0 61.5 25t24.5 63q0 36 -25.5 62t-60.5 26q-38 0 -62 -25.5t-24 -62.5
t25 -62.5t61 -25.5z" />
    <glyph glyph-name="uniFEE4" unicode="&#x645;" horiz-adv-x="366" arabic-form="medial" 
d="M370 45l6 -23l-5 -22h-39q-50 0 -65 34q-37 -34 -90.5 -34.5t-90.5 33.5q-15 -33 -65 -33h-38l-6 22l6 23h38q19 0 24.5 8t6.5 33q-7 20 -7 47q0 50 27 84.5t65.5 42.5t77 0t65.5 -42.5t27 -84.5q0 -20 -5 -40q0 -29 5.5 -38.5t24.5 -9.5h38zM176 45q37 0 61.5 25
t24.5 63q0 36 -25.5 62t-60.5 26q-38 0 -62 -25.5t-24 -62.5t25 -62.5t61 -25.5z" />
    <glyph glyph-name="uniFEE6" unicode="&#x646;" horiz-adv-x="385" arabic-form="final" 
d="M206 308q0 -15 -11.5 -21t-23 0t-11.5 21v16q0 14 11.5 20t23 0.5t11.5 -20.5v-16zM389 45l6 -23l-5 -22h-39q-28 0 -44 10q-18 -46 -55 -70.5t-82 -25.5q-64 -1 -109.5 43t-42.5 122l8 110q1 14 12.5 18.5t22.5 -2.5t10 -21l-8 -105q-4 -54 25.5 -85t81.5 -33
q106 3 106 130v133q0 14 11 19.5t22.5 0t11.5 -20.5v-127q0 -31 5.5 -41t24.5 -10h38z" />
    <glyph glyph-name="uniFEE7" unicode="&#x646;" horiz-adv-x="187" arabic-form="initial" 
d="M105 308v16q0 14 11.5 20t23 0.5t11.5 -20.5v-16q0 -15 -11.5 -21t-23 0t-11.5 21zM-10 45h93q16 0 26 11t10 30v138q0 14 11 19.5t22.5 0t11.5 -20.5v-138q0 -41 -21.5 -63t-59.5 -22h-93v45z" />
    <glyph glyph-name="uniFEE8" unicode="&#x646;" horiz-adv-x="231" arabic-form="medial" 
d="M165 308q0 -15 -11.5 -21t-23 0t-11.5 21v16q0 14 11.5 20t23 0.5t11.5 -20.5v-16zM233 45l6 -23l-6 -22h-38q-38 0 -56 19q-21 -19 -56 -19h-93v45h93q16 0 26 11t10 30v138q0 14 11 19.5t22.5 0t11.5 -20.5v-127q0 -32 5.5 -41.5t25.5 -9.5h38z" />
    <glyph glyph-name="uniFEEA" unicode="&#x647;" horiz-adv-x="324" arabic-form="final" 
d="M20 129v1q0 56 39 95.5t95 39.5t94 -38.5t38 -95.5v-86h39l8 -24l-8 -21h-191q-46 0 -80 39t-34 90zM65 130q0 -32 20.5 -58.5t42.5 -26.5h113v86q0 38 -25.5 64t-63.5 26q-37 0 -62 -26.5t-25 -63.5v-1z" />
    <glyph glyph-name="uniFEEB" unicode="&#x647;" horiz-adv-x="429" arabic-form="initial" 
d="M255 301q71 0 112.5 -44t41.5 -118v-139h-412l-7 22l7 23h72q-31 36 -31 92q0 58 35 92t85 37q38 35 97 35zM269 45h94v94q0 55 -29 86.5t-79 31.5q-14 0 -26 -3q71 -34 71 -117q0 -56 -31 -92zM83 137q0 -38 24.5 -65t61.5 -27t61.5 26t24.5 66q0 34 -25.5 59.5
t-60.5 25.5q-37 0 -61.5 -25t-24.5 -60z" />
    <glyph glyph-name="uniFEEC" unicode="&#x647;" horiz-adv-x="466" arabic-form="medial" 
d="M477 45l6 -23l-5 -22h-39q-18 0 -30 4v-4h-412l-7 22l7 23h72q-31 36 -31 92q0 58 35 92t85 37q38 35 97 35q71 0 112.5 -44t41.5 -118v-43q0 -31 5.5 -41t24.5 -10h38zM269 45h94v94q0 55 -29 86.5t-79 31.5q-14 0 -26 -3q71 -34 71 -117q0 -56 -31 -92zM83 137
q0 -38 24.5 -65t61.5 -27t61.5 26t24.5 66q0 34 -25.5 59.5t-60.5 25.5q-37 0 -61.5 -25t-24.5 -60z" />
    <glyph glyph-name="uniFEEE" unicode="&#x648;" horiz-adv-x="301" arabic-form="final" 
d="M322 22l-13 -22h-49q-1 -40 -23.5 -63t-58.5 -23q-16 0 -22.5 11t-0.5 22t22 11q35 0 37 42h-48q-146 0 -146 131q0 57 34 95.5t85 38.5q58 0 89.5 -34t31.5 -95v-91h49zM65 131q0 -86 101 -86h48v91q0 45 -17.5 64t-57.5 19q-33 0 -53.5 -24.5t-20.5 -63.5z" />
    <glyph glyph-name="uniFEF0" unicode="&#x649;" horiz-adv-x="390" arabic-form="final" 
d="M400 45v-45h-49q-12 -62 -57.5 -101t-114.5 -39q-80 0 -123.5 57.5t-20.5 145.5q6 20 26 22q18 1 19 -14l-1 -8q-23 -76 10 -119t90 -45q45 -2 81.5 24.5t46.5 76.5q-52 5 -62 41q-4 13 4.5 22t20.5 6.5t17 -16.5q3 -8 32 -8h81z" />
    <glyph glyph-name="uniFEF2" unicode="&#x64a;" horiz-adv-x="390" arabic-form="final" 
d="M400 45v-45h-49q-12 -62 -57.5 -101t-114.5 -39q-80 0 -123.5 57.5t-20.5 145.5q6 20 26 22q18 1 19 -14l-1 -8q-23 -76 10 -119t90 -45q45 -2 81.5 24.5t46.5 76.5q-52 5 -62 41q-4 13 4.5 22t20.5 6.5t17 -16.5q3 -8 32 -8h81zM125 -176q0 14 11.5 20t23 0.5
t11.5 -20.5v-16q0 -15 -11.5 -21t-23 0t-11.5 21v16zM187 -176q0 14 11.5 20t23 0.5t11.5 -20.5v-16q0 -15 -11.5 -21t-23 0t-11.5 21v16z" />
    <glyph glyph-name="uniFEF3" unicode="&#x64a;" horiz-adv-x="187" arabic-form="initial" 
d="M-10 45h93q16 0 26 11t10 30v138q0 14 11 19.5t22.5 0t11.5 -20.5v-138q0 -41 -21.5 -63t-59.5 -22h-93v45zM28 -78v16q0 14 11.5 20t23 0.5t11.5 -20.5v-16q0 -15 -11.5 -21t-23 0t-11.5 21zM90 -78v16q0 14 11.5 20t23 0.5t11.5 -20.5v-16q0 -15 -11.5 -21t-23 0
t-11.5 21z" />
    <glyph glyph-name="uniFEF4" unicode="&#x64a;" horiz-adv-x="231" arabic-form="medial" 
d="M233 45l6 -23l-6 -22h-38q-38 0 -56 19q-21 -19 -56 -19h-93v45h93q16 0 26 11t10 30v138q0 14 11 19.5t22.5 0t11.5 -20.5v-127q0 -32 5.5 -41.5t25.5 -9.5h38zM54 -68q0 14 11.5 20t23 0.5t11.5 -20.5v-16q0 -15 -11.5 -21t-23 0t-11.5 21v16zM116 -68q0 14 11.5 20
t23 0.5t11.5 -20.5v-16q0 -15 -11.5 -21t-23 0t-11.5 21v16z" />
    <glyph glyph-name=".notdef" horiz-adv-x="450" 
d="M369 620v-900h-285v900h285zM300 560h-149v-30h59v-33h-60v-30h150v30h-60v33h60v30zM240 444h-90v-94h150v31h-60v63zM210 413v-32h-30v32h30zM300 326h-150v-30h60v-33h-60v-30h90v63h60v30zM300 272h-30v-60h-120v-30h150v90zM300 162h-90v-50h30v20h30v-42h-90v72
h-30v-102h150v102zM300 6h-150v-102h150v102zM270 -24v-42h-90v42h90zM300 -116h-150v-30h63l-63 -42v-30h150v30h-92l63 42h29v30z" />
    <glyph glyph-name=".null" 
 />
    <glyph glyph-name="nonmarkingreturn" horiz-adv-x="156" 
 />
    <glyph glyph-name="space" unicode=" " horiz-adv-x="110" 
 />
    <glyph glyph-name="exclam" unicode="!" horiz-adv-x="120" 
d="M80 89q-2 -19 -19 -19h-1q-19 0 -19 19q-3 167 -3 246q0 22 22 22h1q9 0 15.5 -6.5t6.5 -15.5zM88 3q0 -12 -8 -19.5t-20 -7.5t-20 8t-8 19t8 19.5t20 8.5q11 0 19.5 -8.5t8.5 -19.5z" />
    <glyph glyph-name="quotedbl" unicode="&#x22;" horiz-adv-x="146" 
d="M44 311q-7 0 -12.5 5t-5.5 12q0 1 -2 28.5t-2 36.5q0 22 22 22t22 -22l-4 -65q0 -7 -5.5 -12t-12.5 -5zM101 311q-7 0 -12 5.5t-5 12.5q0 1 -2 28t-2 36q0 22 21 22q22 0 22 -22l-4 -65q0 -7 -5.5 -12t-12.5 -5z" />
    <glyph glyph-name="numbersign" unicode="#" horiz-adv-x="259" 
d="M47 0l14 99h-20q-13 0 -18 10t0 20t18 10h26l6 43h-19q-13 0 -18 10t0 19.5t18 9.5h25l13 92q1 12 11.5 16.5t19 -2t6.5 -20.5l-13 -86h45l13 92q1 12 11.5 16.5t19.5 -2t7 -20.5l-13 -86h20q19 0 19 -19.5t-19 -19.5h-26l-6 -43h20q13 0 18 -10t0 -20t-18 -10h-26
l-14 -105q-2 -12 -12.5 -16.5t-19 2t-6.5 20.5l14 99h-45l-14 -105q-2 -12 -12 -16.5t-18.5 2t-6.5 20.5zM105 139h44l6 43h-44z" />
    <glyph glyph-name="dollar" unicode="$" horiz-adv-x="266" 
d="M111 -43v30q-31 2 -52.5 12t-28 22t-0.5 21q3 15 20 5q2 -1 8.5 -5.5t11.5 -7t16 -5.5t25 -4v128q-48 15 -69 36t-21 58q0 38 24 62.5t66 29.5v22q0 18 19.5 18.5t19.5 -18.5v-21q34 -2 58 -14t24 -30q0 -14 -11.5 -18.5t-24.5 5.5q-2 1 -9 5.5t-15.5 8t-21.5 4.5v-115
q52 -14 74 -36t22 -62q0 -44 -25.5 -70t-70.5 -31v-30q0 -18 -19.5 -18.5t-19.5 18.5zM111 196v104q-47 -8 -47 -51q0 -21 11 -33t36 -20zM150 26q53 8 53 61q0 23 -11.5 34.5t-41.5 21.5v-117z" />
    <glyph glyph-name="percent" unicode="%" horiz-adv-x="369" 
d="M101 8q-9 -16 -24 -8q-15 9 -7 23l2 2l197 306q11 14 24.5 5.5t4.5 -24.5zM104 168q-30 0 -49.5 21t-19.5 57q0 35 19.5 56t49.5 21t49.5 -21t19.5 -56q0 -36 -19.5 -57t-49.5 -21zM104 199q35 0 35 47t-35 47q-33 0 -33 -47t33 -47zM266 15q-31 0 -50.5 21.5t-19.5 57.5
t19.5 57t50.5 21q30 0 49.5 -21t19.5 -57t-19.5 -57.5t-49.5 -21.5zM266 45q16 0 25.5 13t9.5 36q0 22 -9.5 35t-25.5 13q-35 0 -35 -48q0 -23 9.5 -36t25.5 -13z" />
    <glyph glyph-name="ampersand" unicode="&#x26;" horiz-adv-x="313" 
d="M88 186q-33 45 -10.5 91t80.5 46q28 0 51.5 -10t23.5 -26q0 -8 -5.5 -13.5t-13.5 -5.5q-5 0 -21.5 9t-34.5 9q-43 0 -46.5 -32.5t33.5 -73.5l80 -90q23 48 23 74q0 20 19 20q23 -6 15.5 -43t-31.5 -80l33 -38q9 -11 5 -22t-15 -12t-23 10l-23 27q-58 -61 -129 -35
q-51 19 -71 68q-26 61 25 104q14 13 35 23zM112 157q-57 -28 -48 -75q7 -37 44 -54q50 -22 92 24l2 2z" />
    <glyph glyph-name="quotesingle" unicode="'" horiz-adv-x="87" 
d="M25 272q-3 50 -3 65q0 14 10.5 19.5t21.5 0t11 -19.5l-3 -65q-3 -17 -19 -17.5t-18 17.5z" />
    <glyph glyph-name="parenleft" unicode="(" horiz-adv-x="173" 
d="M47 176q0 140 67 218q10 11 23.5 8.5t17.5 -14.5t-7 -26q-51 -55 -51 -186q0 -125 55 -191q10 -13 4.5 -26.5t-18.5 -14.5t-25 13q-19 27 -29.5 44.5t-23.5 66t-13 108.5z" />
    <glyph glyph-name="parenright" unicode=")" horiz-adv-x="173" 
d="M126 176q0 -60 -13 -108.5t-23.5 -66t-29.5 -44.5q-11 -15 -25.5 -13t-18.5 14.5t5 26.5q56 67 56 191q0 130 -52 186q-12 13 -7 26t18 14.5t24 -8.5q66 -79 66 -218z" />
    <glyph glyph-name="asterisk" unicode="*" horiz-adv-x="204" 
d="M121 235l-20 31l-21 -30q-9 -11 -21 -9.5t-15 11t3 21.5l24 28l-38 13q-11 5 -12.5 16t8 18t23.5 1l31 -15l-1 40q0 14 10 20t20.5 0.5t10.5 -20.5l-2 -41l32 15q13 5 22.5 -2.5t7.5 -18.5t-18 -17l-34 -9l24 -28q9 -11 3.5 -22.5t-17 -12t-20.5 10.5z" />
    <glyph glyph-name="plus" unicode="+" horiz-adv-x="261" 
d="M220 201q10 0 16 -6t6 -15v-1q0 -23 -22 -23h-64v-64q0 -10 -6.5 -16t-15.5 -6h-1q-9 0 -15.5 6t-6.5 16v64h-65q-21 0 -21 23v1q0 9 6 15t15 6h65v65q0 21 22 21h1q22 0 22 -21v-65h64z" />
    <glyph glyph-name="comma" unicode="," horiz-adv-x="108" 
d="M81 63q18 -4 11 -19l-46 -106q-7 -9 -14 -7l-4 1q-10 4 -6 16l35 110q5 9 15 7z" />
    <glyph glyph-name="hyphen" unicode="-" horiz-adv-x="277" 
d="M238 109q0 -22 -21 -22h-174q-21 0 -21 22v1q0 21 21 21h174q21 0 21 -21v-1z" />
    <glyph glyph-name="period" unicode="." horiz-adv-x="104" 
d="M84 32q0 -13 -10 -22.5t-22 -9.5q-14 0 -23 9t-9 23q0 12 9.5 22t22.5 10q12 0 22 -10t10 -22z" />
    <glyph glyph-name="slash" unicode="/" horiz-adv-x="219" 
d="M86 17q-8 -22 -27 -16.5t-12 28.5l91 315q3 10 9 15t12 4.5t11 -4t7 -10.5t0 -16z" />
    <glyph glyph-name="zero" unicode="0" horiz-adv-x="325" 
d="M305 177q0 -81 -39.5 -129t-103.5 -48t-103.5 48t-39.5 129q0 82 39.5 130t103.5 48t103.5 -48t39.5 -130zM68 177q0 -63 25 -97.5t69 -34.5t69 34t25 98t-25 98.5t-69 34.5t-69 -34.5t-25 -98.5z" />
    <glyph glyph-name="one" unicode="1" horiz-adv-x="152" 
d="M84 20v269l-30 -17q-13 -8 -24 -1t-10 18.5t13 20.5l58 34q16 9 28 3.5t12 -19.5v-308q0 -15 -11.5 -21.5t-23.5 0t-12 21.5z" />
    <glyph glyph-name="two" unicode="2" horiz-adv-x="268" 
d="M49 293q-7 8 -4 18.5t12 15.5q67 40 128 18.5t61 -91.5q0 -40 -27 -75.5t-127 -132.5h135q13 0 19 -11.5t0.5 -23t-19.5 -11.5h-185q-21 0 -24.5 17t13.5 34q21 21 43.5 44.5t35.5 37t27.5 28.5t22 23t15.5 18t11 15t6.5 12t4 12.5t0.5 12.5q0 43 -41 52t-74 -17
q-20 -12 -33 4z" />
    <glyph glyph-name="three" unicode="3" horiz-adv-x="266" 
d="M32 25q-23 20 -9.5 37t37.5 1q1 0 9.5 -6t13.5 -8t16 -5t24 -3q56 0 73 37q15 33 -15 59q-25 21 -72 21q-17 0 -23.5 11t0.5 22t23 11q62 0 80 39q15 31 -12 52q-18 13 -46 13q-30 0 -51 -13t-27 -13q-19 0 -22 17t14 29q33 25 87 25q50 0 78 -24.5t28 -70.5
q0 -49 -39 -73q48 -26 48 -79q0 -76 -72.5 -102t-142.5 23z" />
    <glyph glyph-name="four" unicode="4" horiz-adv-x="301" 
d="M217 -9q-10 0 -16 6.5t-6 16.5v68h-150q-17 0 -24 14.5t3 27.5l172 223q12 14 27.5 10t15.5 -21v-215h28q19 0 19 -19q0 -20 -19 -20h-28v-68q0 -10 -6.5 -16.5t-15.5 -6.5zM195 121v162l-123 -161z" />
    <glyph glyph-name="five" unicode="5" horiz-adv-x="268" 
d="M118 0q-30 0 -54.5 12.5t-31.5 28t2 28.5q15 10 21 4t24.5 -18t38.5 -12q40 0 62 21t22 59q0 33 -17 50.5t-47 17.5q-28 0 -50.5 -16.5t-30.5 -16.5q-11 0 -18 7t-7 17l-1 143q0 24 24 24h156q15 0 21.5 -11.5t0 -22.5t-21.5 -11h-137l1 -87q28 17 63 17q49 0 78 -29.5
t29 -81.5q1 -55 -34.5 -89t-92.5 -34z" />
    <glyph glyph-name="six" unicode="6" horiz-adv-x="304" 
d="M159 0q-84 0 -119 80q-32 74 -4 157q28 86 100 110q23 8 49 8q39 0 64 -12t13 -32q-7 -11 -18 -11t-29 5.5t-31 5.5q-46 0 -74.5 -30.5t-33.5 -84.5q41 29 89 29.5t81.5 -28.5t33.5 -78q0 -54 -33.5 -86.5t-87.5 -32.5zM159 44q35 0 54 19.5t19 54.5q0 38 -28.5 54t-66 7
t-62.5 -37q10 -98 84 -98z" />
    <glyph glyph-name="seven" unicode="7" horiz-adv-x="281" 
d="M117 13q-8 -15 -22.5 -16.5t-21.5 9.5t0 29l130 266h-159q-15 0 -21.5 12t0 24t21.5 12h186q23 0 29.5 -15.5t-5.5 -38.5z" />
    <glyph glyph-name="eight" unicode="8" horiz-adv-x="301" 
d="M149 -1q-60 0 -95.5 37t-29.5 83t52 70q-36 21 -38 61t29.5 71.5t81.5 31.5t81 -31.5t29 -71t-37 -61.5q46 -23 52.5 -69t-29.5 -83.5t-96 -37.5zM149 209q29 0 45.5 13.5t16.5 36.5t-16.5 36.5t-45.5 13.5t-45 -13.5t-16 -36.5t16 -36.5t45 -13.5zM149 43q76 0 76 61
q0 28 -20 44.5t-56 16.5t-56 -16.5t-20 -44.5q0 -61 76 -61z" />
    <glyph glyph-name="nine" unicode="9" horiz-adv-x="302" 
d="M151 354q90 0 123 -88.5t-10.5 -177t-138.5 -88.5q-40 0 -64.5 11.5t-12.5 31.5q7 12 18 12t29 -5.5t31 -5.5q47 0 78 30.5t36 84.5q-41 -29 -90.5 -30t-84.5 28t-35 79q0 54 33.5 86t87.5 32zM151 310q-35 0 -54 -19t-19 -54q0 -38 30.5 -54t69 -7.5t63.5 36.5
q-5 49 -29 73.5t-61 24.5z" />
    <glyph glyph-name="colon" unicode=":" horiz-adv-x="109" 
d="M86 187q0 -13 -9.5 -22.5t-22.5 -9.5t-22.5 9.5t-9.5 22.5t9 22.5t23 9.5q13 0 22.5 -9.5t9.5 -22.5zM86 32q0 -12 -9.5 -22t-22.5 -10t-22.5 10t-9.5 22q0 14 9 23t23 9q13 0 22.5 -9.5t9.5 -22.5z" />
    <glyph glyph-name="semicolon" unicode=";" horiz-adv-x="152" 
d="M122 189q0 -12 -10 -22t-23 -10t-22 10t-9 22q0 13 9 22.5t22 9.5t23 -9.5t10 -22.5zM91 65q17 -4 10 -19l-46 -108q-7 -9 -14 -7l-4 1q-11 4 -6 16l35 112q7 9 16 7z" />
    <glyph glyph-name="less" unicode="&#x3c;" horiz-adv-x="253" 
d="M231 267q0 -11 -11 -16l-143 -76l141 -75q13 -8 13 -19t-9.5 -16.5t-19.5 -0.5l-169 91q-11 9 -11 19v1q0 12 11 19l168 92q10 5 20 -1t10 -17v-1z" />
    <glyph glyph-name="equal" unicode="=" horiz-adv-x="264" 
d="M234 253q0 -22 -21 -22h-159q-21 0 -21 22v1q0 21 21 21h159q21 0 21 -21v-1zM234 178q0 -22 -21 -22h-159q-21 0 -21 22v1q0 21 21 21h159q21 0 21 -21v-1z" />
    <glyph glyph-name="greater" unicode="&#x3e;" horiz-adv-x="253" 
d="M220 194q11 -7 11 -19v-1q0 -10 -11 -19l-169 -91q-10 -5 -19.5 0.5t-9.5 16.5t13 19l141 75l-143 76q-11 5 -11 16v1q0 11 10 17t20 1z" />
    <glyph glyph-name="question" unicode="?" horiz-adv-x="244" 
d="M76 70q-2 26 7 48t23.5 37t29 29.5t25 32t10.5 37.5q0 44 -51 44q-16 0 -26 -3t-20 -9l-11 -7q-17 -10 -27.5 -6t-10.5 19q0 20 29.5 34.5t66.5 14.5q46 0 72 -23t26 -65q0 -26 -10.5 -46t-25 -33l-29 -26t-25 -32.5t-10.5 -44.5q0 -13 -10.5 -18.5t-21.5 -0.5t-11 18z
M99 -24q-11 0 -19 8t-8 19t8 19.5t19 8.5t19.5 -8.5t8.5 -19.5q0 -12 -8 -19.5t-20 -7.5z" />
    <glyph glyph-name="at" unicode="@" horiz-adv-x="376" 
d="M187 -41q24 0 43.5 3t27.5 6.5t17.5 8.5t11.5 6q15 8 20 -4q5 -13 -15 -25q-41 -25 -89.5 -27t-88 15t-66 54t-26.5 84q0 75 52 124t125 49q68 0 111.5 -37.5t43.5 -99.5q0 -51 -27.5 -82t-67.5 -31q-36 0 -46 26q-62 -49 -94 -5q-25 35 -12 91q13 59 57 69q33 8 76 -19
q4 11 13 12.5t14.5 -6t1.5 -17.5q-39 -104 -24 -115q4 -3 16 -3q25 0 41 21t16 59q0 48 -32.5 76t-86.5 28q-59 0 -99.5 -39t-40.5 -101q0 -54 36 -87.5t92 -33.5zM214 71l15 67q-53 37 -80 -3q-20 -28 -10 -63q11 -36 43 -24q15 6 32 23z" />
    <glyph glyph-name="A" unicode="A" horiz-adv-x="343" 
d="M266 21l-31 86h-128l-30 -85q-6 -17 -20 -21t-23 7t-2 28l110 302q8 24 30 24t31 -24l109 -302q6 -17 -3 -27.5t-23 -7.5t-20 20zM124 152h94l-46 132z" />
    <glyph glyph-name="B" unicode="B" horiz-adv-x="298" 
d="M53 0q-10 0 -17 7t-7 17v311q0 11 6.5 17.5t17.5 6.5q119 0 158 -17t39 -78q0 -51 -37 -74q56 -24 56 -86q0 -66 -45 -85t-171 -19zM78 209h56q69 0 69 55q0 33 -21 41t-104 9v-105zM78 45q90 1 115.5 11.5t25.5 48.5q0 59 -82 59h-59v-119z" />
    <glyph glyph-name="C" unicode="C" horiz-adv-x="335" 
d="M185 51q28 0 48.5 10t31.5 20t18 10q13 0 19 -8.5t2.5 -20.5t-14.5 -22q-32 -28 -69 -36.5t-70.5 2.5t-61 35t-44 63.5t-16.5 84.5q0 82 44.5 132.5t113.5 50.5q45 0 85 -20t27 -43q-5 -8 -12.5 -9t-18 2.5t-22 8t-27 9t-30.5 4.5q-50 0 -80 -36t-30 -99q0 -66 27.5 -102
t78.5 -36z" />
    <glyph glyph-name="D" unicode="D" horiz-adv-x="345" 
d="M54 0q-11 0 -18 7t-7 17v309q0 24 25 24h77q51 0 91 -19.5t60.5 -51t30.5 -69.5t0 -76.5t-30.5 -70t-60.5 -51t-91 -19.5h-77zM79 45h52q37 0 66.5 14.5t44.5 38.5t22 52t0 56.5t-22 52.5t-44.5 38.5t-66.5 14.5h-52v-267z" />
    <glyph glyph-name="E" unicode="E" horiz-adv-x="271" 
d="M53 0q-24 0 -24 25v309q0 25 24 25h165q15 0 21.5 -11.5t0 -23t-21.5 -11.5h-140v-112h111q17 0 23.5 -12t0 -24t-23.5 -12h-111v-108h140q15 0 21.5 -11t0 -22.5t-21.5 -11.5h-165z" />
    <glyph glyph-name="F" unicode="F" horiz-adv-x="270" 
d="M78 25q0 -16 -12 -23t-24.5 -0.5t-12.5 23.5v313q0 10 7 17t17 7h166q14 0 20 -11.5t0 -23t-20 -11.5h-141v-115h108q22 0 22 -22.5t-22 -22.5h-108v-131z" />
    <glyph glyph-name="G" unicode="G" horiz-adv-x="345" 
d="M316 56q0 -33 -50 -48q-66 -21 -135 9q-95 40 -102 152v14q0 82 46 130.5t122 48.5q64 0 95 -23q16 -13 12.5 -28.5t-20.5 -17.5q-7 -1 -31.5 11.5t-55.5 12.5q-55 0 -86 -34.5t-31 -99.5q0 -76 55 -110.5t130 -11.5l2 2v83h-53q-15 0 -21.5 11t0 22t21.5 11h78
q10 0 17 -7t7 -17v-110z" />
    <glyph glyph-name="H" unicode="H" horiz-adv-x="315" 
d="M78 25q0 -16 -12 -22t-24.5 0t-12.5 22v308q0 16 12 23t24.5 0.5t12.5 -23.5v-144h159v144q0 16 12.5 23t24.5 0.5t12 -23.5v-308q0 -16 -12 -22t-24.5 0t-12.5 22v119h-159v-119z" />
    <glyph glyph-name="I" unicode="I" horiz-adv-x="107" 
d="M78 338v-313q0 -16 -12 -22t-24.5 0t-12.5 22v313q0 16 12 22t24.5 0t12.5 -22z" />
    <glyph glyph-name="J" unicode="J" horiz-adv-x="211" 
d="M202 96q0 -62 -53.5 -87t-100.5 8q-29 19 -16 40q11 17 27 9q3 -1 6 -4q17 -16 42 -17q45 -3 45 64v232q0 17 12.5 23.5t25 0t12.5 -23.5v-245z" />
    <glyph glyph-name="K" unicode="K" horiz-adv-x="290" 
d="M220 350q9 11 21.5 7t17 -15.5t-3.5 -24.5l-89 -102l82 -177q6 -16 0.5 -27.5t-19 -10.5t-21.5 17l-77 159l-54 -62v-88q0 -17 -12 -23.5t-24 0.5t-12 23v308q0 16 12 22.5t24 0t12 -22.5v-146z" />
    <glyph glyph-name="L" unicode="L" horiz-adv-x="225" 
d="M29 84v251q0 17 12.5 24.5t25 0t12.5 -24.5v-247q0 -43 32 -43h62q15 0 21 -11t0 -22.5t-21 -11.5h-62q-48 0 -65 19t-17 65z" />
    <glyph glyph-name="M" unicode="M" horiz-adv-x="387" 
d="M291 336q6 17 22.5 23t30.5 -1.5t14 -25.5v-309q0 -23 -25 -23t-25 23v226l-92 -235q-6 -15 -23.5 -15t-23.5 15l-92 235v-227q0 -22 -24 -22t-24 22v310q0 18 14 25.5t30.5 1.5t22.5 -22l99 -253z" />
    <glyph glyph-name="N" unicode="N" horiz-adv-x="323" 
d="M246 335q0 17 12 23.5t24 0t12 -23.5v-311q0 -22 -20 -24.5t-33 17.5l-164 255v-249q0 -15 -12 -21.5t-24 0t-12 21.5v310q0 25 22.5 28.5t38.5 -20.5l156 -243v237z" />
    <glyph glyph-name="O" unicode="O" horiz-adv-x="379" 
d="M190 -6q-67 0 -114 53.5t-47 128.5q0 76 47 129t114 53t113.5 -53t46.5 -129q0 -75 -46.5 -128.5t-113.5 -53.5zM193 40q45 0 77.5 40t32.5 96t-32.5 96t-77.5 40q-46 0 -78 -40t-32 -96t32 -96t78 -40z" />
    <glyph glyph-name="P" unicode="P" horiz-adv-x="286" 
d="M29 23v315q0 10 6.5 17t17.5 7q124 0 164 -20.5t40 -86.5q0 -115 -130 -115h-49v-117q0 -15 -12 -21.5t-24.5 0t-12.5 21.5zM78 185h49q81 0 81 69q0 40 -23 51t-107 12v-132z" />
    <glyph glyph-name="Q" unicode="Q" horiz-adv-x="379" 
d="M274 21l32 -31q4 -4 -12 -20l-2 -3q-15 -15 -20 -12l-45 44q-20 -5 -37 -5q-67 0 -114 53.5t-47 128.5q0 76 47 129t114 53t113.5 -53t46.5 -129q0 -48 -20.5 -89.5t-55.5 -65.5zM83 176q0 -56 32 -96t78 -40q45 0 77.5 40t32.5 96t-32.5 96t-77.5 40q-46 0 -78 -40
t-32 -96z" />
    <glyph glyph-name="R" unicode="R" horiz-adv-x="303" 
d="M29 25v311q0 10 7 17t18 7q122 0 162.5 -20t40.5 -83q0 -68 -56 -91l69 -130q6 -15 0 -25.5t-20.5 -10t-22.5 15.5l-75 139l-73 -1v-129q0 -16 -12.5 -22.5t-25 0t-12.5 22.5zM79 198q85 1 106.5 10.5t21.5 47.5t-22.5 48t-105.5 11v-117z" />
    <glyph glyph-name="S" unicode="S" horiz-adv-x="293" 
d="M141 0q-61 0 -90 18q-22 13 -22 35v3q0 24 22 24q7 0 29.5 -17.5t58.5 -17.5q35 0 55 15t20 40q0 11 -4 19.5t-8.5 14t-16.5 11t-17.5 7t-21.5 6.5t-21 6q-91 28 -91 98q0 48 32.5 74t87.5 26q44 0 76 -14q24 -10 24 -32v-2q0 -10 -6 -17t-15 -7q-6 0 -28 13.5t-51 13.5
q-31 0 -48.5 -14t-17.5 -40q0 -23 17 -34t56 -22q59 -17 81 -39.5t22 -67.5q0 -48 -31 -74t-92 -26z" />
    <glyph glyph-name="T" unicode="T" horiz-adv-x="322" 
d="M53 316q-15 0 -21.5 11t0 22.5t21.5 11.5h217q15 0 21 -11.5t0 -22.5t-21 -11h-78v-292q0 -16 -12.5 -22.5t-25 0t-12.5 22.5v292h-89z" />
    <glyph glyph-name="U" unicode="U" horiz-adv-x="327" 
d="M298 130q0 -36 -15 -64t-38.5 -42.5t-52 -21t-57.5 0.5t-52.5 21.5t-38.5 42.5t-15 63v207q0 17 12.5 23.5t25 0t12.5 -23.5v-208q0 -81 87 -81q42 0 62.5 19t20.5 62v209q0 16 12.5 22.5t24.5 0t12 -22.5v-208z" />
    <glyph glyph-name="V" unicode="V" horiz-adv-x="342" 
d="M141 22l-110 304q-6 17 3.5 27t23.5 7t19 -18l95 -263l92 262q6 17 20.5 21t24 -7t2.5 -29l-110 -304q-7 -21 -30 -21t-30 21z" />
    <glyph glyph-name="W" unicode="W" horiz-adv-x="497" 
d="M440 341q5 17 17.5 21t21 -6.5t2.5 -28.5l-95 -305q-7 -21 -26.5 -21t-25.5 21l-78 248l-77 -248q-7 -21 -26.5 -21t-26.5 21l-95 305q-6 17 2.5 26.5t21 6.5t16.5 -18l82 -262l80 261q6 19 20 21.5t20 -10.5q4 -4 5 -9l83 -263z" />
    <glyph glyph-name="X" unicode="X" horiz-adv-x="344" 
d="M78 2q-13 -20 -35 -13q-20 7 -12 25q1 3 3 6l104 156l-106 158q-12 20 7 30q20 10 35 -10q1 -2 2 -3l96 -145l93 144q16 25 38 15q18 -7 11 -25q-2 -4 -4 -7l-104 -156l105 -158q12 -19 -6 -28q-20 -11 -35 7l-2 4l-95 145z" />
    <glyph glyph-name="Y" unicode="Y" horiz-adv-x="346" 
d="M33 333q-12 20 6 29q20 10 34 -9l2 -2l97 -146l94 146q14 23 36 14q19 -8 10 -27q-1 -2 -3 -5l-111 -169v-139q0 -16 -12.5 -22.5t-25 0t-12.5 22.5v138z" />
    <glyph glyph-name="Z" unicode="Z" horiz-adv-x="321" 
d="M263 43q15 0 21 -10.5t0.5 -21.5t-20.5 -11h-211q-17 0 -22.5 16t7.5 34l188 268h-163q-16 0 -22 11t0.5 22.5t22.5 11.5h202q21 0 25.5 -13.5t-10.5 -36.5l-189 -270h171z" />
    <glyph glyph-name="bracketleft" unicode="[" horiz-adv-x="148" 
d="M45 -21q-10 0 -16.5 6t-6.5 15v352q0 21 23 21h63q8 0 13 -5.5t5 -12.5v-1q0 -8 -5 -13t-13 -5h-43v-320h43q8 0 13 -5t5 -13v-1q0 -7 -5 -12.5t-13 -5.5h-63z" />
    <glyph glyph-name="backslash" unicode="\" horiz-adv-x="195" 
d="M132 -18l-108 351q-5 14 2.5 23.5t19.5 6.5t17 -19l108 -350q3 -9 1 -16t-7.5 -10.5t-11.5 -3.5t-12 4.5t-9 13.5z" />
    <glyph glyph-name="bracketright" unicode="]" horiz-adv-x="145" 
d="M100 -21h-63q-7 0 -12.5 5.5t-5.5 12.5v1q0 8 5.5 13t12.5 5h43v320h-43q-7 0 -12.5 5t-5.5 13v1q0 7 5.5 12.5t12.5 5.5h63q23 0 23 -21v-352q0 -9 -6.5 -15t-16.5 -6z" />
    <glyph glyph-name="asciicircum" unicode="^" horiz-adv-x="179" 
d="M27 359l40 54q9 13 22.5 13t23.5 -13l40 -54q6 -9 1 -17.5t-14 -9.5t-18 7l-31 39l-33 -39q-8 -10 -19 -8.5t-14.5 10t2.5 18.5z" />
    <glyph glyph-name="underscore" unicode="_" horiz-adv-x="223" 
d="M201 -3q0 -18 -17 -18h-143q-19 0 -19 18v1q0 18 19 18h143q17 0 17 -18v-1z" />
    <glyph glyph-name="a" unicode="a" horiz-adv-x="264" 
d="M115 1q-40 0 -63 22.5t-23 62.5q0 53 45 72.5t106 7.5v16q0 21 -19.5 32.5t-66.5 4.5q-16 -2 -24 8t-1.5 22t23.5 14q134 13 134 -81l1 -106q0 -22 -7.5 -37.5t-16 -22.5t-28.5 -11t-28.5 -4h-31.5zM118 44q33 0 46.5 4.5t13.5 16.5v56q-37 11 -70.5 1.5t-33.5 -38.5
q0 -40 44 -40z" />
    <glyph glyph-name="b" unicode="b" horiz-adv-x="296" 
d="M146 0q-66 0 -91.5 16t-25.5 60v257q0 29 23 29q25 0 25 -29v-100q37 32 84 32q50 0 78 -34.5t28 -101.5q0 -129 -121 -129zM146 43q36 0 54 18.5t18 65.5q0 48 -17 71.5t-45 23.5q-39 0 -79 -43v-103q0 -22 11 -27.5t58 -5.5z" />
    <glyph glyph-name="c" unicode="c" horiz-adv-x="259" 
d="M141 265q46 0 83 -30q6 -5 6 -14v-10q0 -10 -7 -14t-16 1q-29 21 -66 23q-24 1 -40 -17t-19.5 -44t0 -53t19.5 -45.5t40 -18.5q33 0 66 29q9 5 16 1t7 -14v-12q0 -9 -5 -14q-41 -33 -84 -33t-72 27.5t-35.5 66t0 77.5t36 66.5t71.5 27.5z" />
    <glyph glyph-name="d" unicode="d" horiz-adv-x="296" 
d="M150 -12q-121 0 -121 129q0 66 28.5 101t79.5 35q43 0 82 -32v100q0 29 25 29q23 0 23 -29v-257q0 -44 -25.5 -60t-91.5 -16zM150 31q47 0 58 5.5t11 27.5v102q-39 44 -79 44q-28 0 -45 -23.5t-17 -71.5q0 -47 17.5 -65.5t54.5 -18.5z" />
    <glyph glyph-name="e" unicode="e" horiz-adv-x="254" 
d="M140 263q40 0 63 -22.5t23 -62.5q0 -52 -45 -72t-106 -8v-16q0 -50 109 -36q15 2 22 -8.5t1.5 -22.5t-21.5 -13q-158 -13 -158 80v106q0 22 7.5 37.5t16 22.5t28.5 11t28.5 4h31.5zM137 220q-34 0 -47 -4.5t-13 -16.5v-56q37 -11 70.5 -1.5t33.5 38.5q0 40 -44 40z" />
    <glyph glyph-name="f" unicode="f" horiz-adv-x="208" 
d="M158 270q14 0 19.5 -11.5t0 -23.5t-19.5 -12h-47v-200q0 -23 -24 -23h-1q-10 0 -16.5 6.5t-6.5 16.5v200h-11q-23 0 -23 23.5t23 23.5h11v18q0 35 18.5 54.5t51.5 19.5q14 0 19 -1q20 -4 20 -21v-1q0 -21 -22 -21q-3 0 -7.5 0.5t-5.5 0.5q-14 0 -20 -7t-6 -25v-17h47z
" />
    <glyph glyph-name="g" unicode="g" horiz-adv-x="288" 
d="M259 184v-22v-3v-170q0 -43 -22 -67.5t-60 -24.5l-60 1q-14 0 -20 12t-1 23.5t18 11.5h59q37 0 37 42v18q-19 -5 -60 -5q-121 0 -121 129q0 65 31 100.5t82 35.5q45 0 81 -26t36 -55zM210 62v108q0 22 -16 33q-22 18 -53 18q-28 0 -45.5 -23.5t-17.5 -70.5t16.5 -65.5
t51.5 -18.5q38 0 50 3.5t14 15.5z" />
    <glyph glyph-name="h" unicode="h" horiz-adv-x="290" 
d="M51 0q-22 0 -22 22v311q0 29 23 29q25 0 25 -29v-95q33 27 79 27q49 0 77 -34.5t28 -101.5v-107q0 -22 -22 -22h-5q-22 0 -22 22v103q0 95 -59 95q-36 0 -76 -43v-155q0 -22 -22 -22h-4z" />
    <glyph glyph-name="i" unicode="i" horiz-adv-x="105" 
d="M30 313v16q0 14 11.5 20t23 0.5t11.5 -20.5v-16q0 -15 -11.5 -21t-23 0t-11.5 21zM52 0q-10 0 -16.5 6.5t-6.5 16.5v214q0 28 23 28q24 0 24 -28v-214q0 -10 -6.5 -16.5t-16.5 -6.5h-1z" />
    <glyph glyph-name="j" unicode="j" horiz-adv-x="156" 
d="M92 310v16q0 14 12 20t23.5 0.5t11.5 -20.5v-16q0 -23 -23.5 -23t-23.5 23zM70 -97h-18q-14 0 -20 11t-1 22t18 12h17q24 0 24 39l1 257q0 23 24.5 23t24.5 -23v-255q0 -42 -19.5 -64t-50.5 -22z" />
    <glyph glyph-name="k" unicode="k" horiz-adv-x="253" 
d="M148 168l59 -126q7 -14 7.5 -20t-8.5 -16q-9 -8 -19.5 -5.5t-17.5 14.5l-56 115l-36 -40v-69q0 -9 -6 -15.5t-16 -6.5h-4q-10 0 -16 6.5t-6 15.5v311q0 29 23 29q25 0 25 -29v-170l43 48l6 6l53 58q18 19 35 5q20 -15 0 -38z" />
    <glyph glyph-name="l" unicode="l" horiz-adv-x="106" 
d="M29 22v311q0 29 23 29q25 0 25 -29v-311q0 -22 -22 -22h-4q-22 0 -22 22z" />
    <glyph glyph-name="m" unicode="m" horiz-adv-x="435" 
d="M300 266q50 0 78 -35t28 -101v-107q0 -14 -12 -20t-24.5 0t-12.5 20v103q0 95 -57 95q-35 0 -60 -22q8 -32 8 -71v-105q0 -14 -12 -20t-24.5 0t-12.5 20v105q0 93 -44 93q-39 0 -78 -44v-154q0 -14 -12 -20t-24 0t-12 20v214q0 29 23 29q25 0 25 -29v2q33 27 78 27
t67 -30q40 30 78 30z" />
    <glyph glyph-name="n" unicode="n" horiz-adv-x="290" 
d="M155 264q50 0 78 -35t28 -103v-105q0 -14 -12.5 -20t-24.5 0t-12 20v105q0 46 -15.5 69.5t-41.5 23.5q-39 0 -78 -43v-155q0 -14 -12 -20t-24 0t-12 20v216q0 29 23 29q25 0 25 -27q34 25 78 25z" />
    <glyph glyph-name="o" unicode="o" horiz-adv-x="310" 
d="M283 133q0 -60 -35.5 -96.5t-92.5 -36.5t-92 36.5t-35 96.5q0 59 35 95.5t92 36.5q58 0 93 -36t35 -96zM76 133q0 -43 20.5 -66.5t58.5 -23.5t59 23.5t21 66.5q0 42 -21 65t-59 23t-58.5 -23t-20.5 -65z" />
    <glyph glyph-name="p" unicode="p" horiz-adv-x="288" 
d="M144 265q54 0 84.5 -32t30.5 -97q0 -67 -30.5 -101.5t-84.5 -34.5q-48 0 -67 13v-80q0 -29 -25 -29q-23 0 -23 29v256q0 45 24 60.5t91 15.5zM144 222q-49 0 -58 -4.5t-9 -28.5v-120q21 -24 67 -24q66 0 66 93q0 84 -66 84z" />
    <glyph glyph-name="q" unicode="q" horiz-adv-x="288" 
d="M144 264q67 0 91 -15.5t24 -60.5v-255q0 -30 -23 -30q-25 0 -25 30v79q-21 -13 -67 -13q-55 0 -85 34.5t-30 101.5q0 65 30.5 97t84.5 32zM144 221q-66 0 -66 -84q0 -93 66 -93q43 0 67 25v119q0 24 -9 28.5t-58 4.5z" />
    <glyph glyph-name="r" unicode="r" horiz-adv-x="213" 
d="M51 0q-22 0 -22 22v221q0 15 12 21.5t24 0t12 -21.5v-26q47 39 90 39q13 0 18 -11t-0.5 -21.5t-20.5 -10.5q-48 0 -87 -44v-147q0 -22 -22 -22h-4z" />
    <glyph glyph-name="s" unicode="s" horiz-adv-x="251" 
d="M123 -3q-55 0 -82 21q-12 10 -12 21v1q0 14 10.5 18t24.5 -5q26 -16 58 -16q57 0 57 39q0 16 -11.5 23t-48.5 16q-44 11 -63.5 28.5t-19.5 47.5q0 33 25 53.5t67 20.5q39 0 69 -16q20 -12 12 -31q-8 -18 -28 -6q-2 1 -3 2q-29 11 -50 11q-49 0 -49 -32q0 -17 10 -23.5
t42 -12.5q50 -12 70.5 -29.5t20.5 -49.5q0 -39 -26.5 -60t-72.5 -21z" />
    <glyph glyph-name="t" unicode="t" horiz-adv-x="232" 
d="M177 43q13 0 18 -10.5t-0.5 -21t-19.5 -11.5l-18 -1q-37 -1 -59.5 24t-22.5 68v132h-23q-23 0 -23 23.5t23 23.5h23v28q0 23 24 23t24 -23v-28h56q14 0 20 -11.5t0 -23.5t-20 -12h-56l1 -134q0 -46 37 -46h16z" />
    <glyph glyph-name="u" unicode="u" horiz-adv-x="290" 
d="M261 244v-214q0 -30 -23 -30q-25 0 -25 39l2 6q-11 -18 -34 -31.5t-46 -13.5q-50 0 -78 35t-28 104v105q0 22 24.5 22t24.5 -22v-105q0 -93 57 -93q38 0 78 43v155q0 22 24 22t24 -22z" />
    <glyph glyph-name="v" unicode="v" horiz-adv-x="276" 
d="M123 18l-90 207q-12 24 8 34q22 12 35 -15l70 -162l70 162q11 28 34 15q20 -9 9 -34l-90 -207q-6 -16 -23.5 -16t-22.5 16z" />
    <glyph glyph-name="w" unicode="w" horiz-adv-x="468" 
d="M32 228q-11 21 9 31q19 11 33 -9q2 -3 3 -6l67 -163l67 162q6 19 24 19t25 -18l67 -163l67 162q5 15 18.5 16.5t22 -10t1.5 -26.5l-88 -212q-5 -11 -22 -11t-21 12l-69 168l-71 -169q-5 -11 -22 -11t-21 12z" />
    <glyph glyph-name="x" unicode="x" horiz-adv-x="272" 
d="M240 28q10 -18 -8 -26q-20 -6 -35 11l-61 88l-61 -89q-15 -19 -36 -9q-17 8 -6 26l71 103l-72 103q-10 18 8 26q19 8 35 -9l61 -90l61 90q15 19 36 9q17 -8 6 -26l-71 -103z" />
    <glyph glyph-name="y" unicode="y" horiz-adv-x="273" 
d="M29 217q-5 17 5 27.5t24 8.5t19 -18l46 -164l75 179q7 14 20.5 15.5t21 -10t0.5 -28.5l-125 -302q-8 -15 -22 -18t-22.5 6.5t-3.5 24.5l28 63z" />
    <glyph glyph-name="z" unicode="z" horiz-adv-x="275" 
d="M241 227l-144 -186h110q24 0 24 -21q0 -20 -24 -20h-152q-18 0 -24.5 11t4.5 24l145 188h-115q-22 0 -22 20q0 9 6 15t16 6h152q18 0 25.5 -12t-1.5 -25z" />
    <glyph glyph-name="braceleft" unicode="{" horiz-adv-x="190" 
d="M41 116q-8 0 -13.5 5.5t-5.5 12.5v1q0 19 19 19h6q20 0 20 19v92q0 64 65 64h18q8 0 13 -5.5t5 -13.5v-1q0 -7 -5 -12.5t-13 -5.5h-16q-13 0 -18.5 -6t-5.5 -20v-92q0 -25 -19 -38q19 -11 19 -39v-98q0 -26 24 -26h16q8 0 13 -5.5t5 -13.5v-1q0 -8 -5 -13t-13 -5h-18
q-65 0 -65 64v99q0 19 -20 19h-6z" />
    <glyph glyph-name="bar" unicode="|" horiz-adv-x="84" 
d="M22 316q0 19 20 19h1q19 0 19 -19v-358q0 -19 -19 -19h-1q-20 0 -20 19v358z" />
    <glyph glyph-name="braceright" unicode="}" horiz-adv-x="190" 
d="M144 124q-21 0 -21 -19v-99q0 -64 -64 -64h-18q-8 0 -13.5 5t-5.5 13v1q0 8 5.5 13t13.5 5h16q23 0 23 27v98q0 26 19 39q-19 13 -19 38v92q0 26 -23 26h-16q-8 0 -13.5 5t-5.5 13v1q0 8 5.5 13t13.5 5h18q64 0 64 -63v-92q0 -20 21 -20h6q8 0 13 -5.5t5 -12.5v-1
q0 -7 -5.5 -12.5t-12.5 -5.5h-6z" />
    <glyph glyph-name="asciitilde" unicode="~" horiz-adv-x="212" 
d="M53 236q-16 -16 -27.5 -0.5t-0.5 27.5q35 38 74 12q32 -26 55 8q12 17 29 8t8 -28q-11 -22 -31.5 -31t-42.5 -4q-7 1 -16.5 6t-15.5 8.5t-15 2.5t-17 -9z" />
    <glyph glyph-name="exclamdown" unicode="&#xa1;" horiz-adv-x="115" 
d="M30 255q0 11 8 19t20 8q11 0 19 -8t8 -19t-8 -19.5t-19 -8.5t-19.5 8.5t-8.5 19.5zM38 179q2 19 19 19h1q18 0 18 -19q3 -166 3 -245q0 -10 -6 -16t-15 -6h-1q-9 0 -15.5 6t-6.5 16z" />
    <glyph glyph-name="cent" unicode="&#xa2;" horiz-adv-x="263" 
d="M230 -28q-26 -21 -63 -24v-31q0 -18 -19.5 -18.5t-19.5 18.5v31q-49 5 -77.5 41t-28.5 93q0 56 28.5 91.5t77.5 42.5v12q0 18 19.5 17.5t19.5 -17.5v-12q35 -3 58 -19q14 -11 11 -25.5t-18 -14.5q-2 0 -23.5 10.5t-27.5 10.5v-193q22 2 34.5 13.5t16.5 12.5q10 3 16.5 -3
t5.5 -17t-10 -19zM65 82q0 -85 63 -97v193q-63 -15 -63 -96z" />
    <glyph glyph-name="sterling" unicode="&#xa3;" horiz-adv-x="278" 
d="M40 -2q-11 0 -15 12.5t2 22.5q32 41 36 57.5t-6 66.5h-19q-21 2 -20.5 20.5t21.5 18.5h11q-17 85 7.5 126.5t97.5 41.5q53 0 86 -27q13 -10 10 -26t-19 -16q-7 0 -27.5 14t-49.5 14q-51 0 -63 -28t3 -99h82q19 0 19 -19.5t-19 -19.5h-75q6 -36 3 -66t-21 -51h155
q20 0 20.5 -21t-20.5 -21h-199z" />
    <glyph glyph-name="yen" unicode="&#xa5;" horiz-adv-x="283" 
d="M241 342q12 0 17.5 -10.5t-1.5 -21.5l-81 -140h54q14 0 14 -18.5t-14 -18.5h-65v-21h65q14 0 14 -19t-14 -19h-65v-66q0 -9 -6 -15t-15 -6h-1q-23 0 -23 21v66h-64q-18 0 -18.5 19t18.5 19h64v21h-64q-14 0 -14 18.5t14 18.5h52l-81 138q-8 12 -2 23t20 11q13 0 19 -13
l80 -137l78 138q6 12 19 12z" />
    <glyph glyph-name="brokenbar" unicode="&#xa6;" horiz-adv-x="81" 
d="M60 182q0 -19 -19 -19h-1q-19 0 -19 19v153q0 19 19 19h1q19 0 19 -19v-153zM60 -39q0 -19 -19 -19h-1q-19 0 -19 19v153q0 19 19 19h1q19 0 19 -19v-153z" />
    <glyph glyph-name="section" unicode="&#xa7;" horiz-adv-x="276" 
d="M128 -65q-44 0 -85 27q-10 8 -10 17.5t8.5 15t18.5 0.5q71 -38 110 -16q26 15 11 42t-67 42q-52 14 -77 45t-15 62t52 46q-47 31 -27 75q17 40 72 53q45 10 93 -8q21 -8 16 -28q-4 -17 -21 -13q-1 0 -3 1q-76 26 -109 1q-23 -17 -1 -41q18 -19 57 -29q54 -14 82 -46.5
t19.5 -65t-51.5 -48.5q26 -25 26.5 -54.5t-28 -53.5t-71.5 -24zM155 91q57 6 58 36q1 29 -48 51q-19 8 -40 13q-41 -4 -56.5 -20.5t0 -37t57.5 -33.5z" />
    <glyph glyph-name="copyright" unicode="&#xa9;" horiz-adv-x="152" 
d="M75 222q-29 0 -48 18.5t-19 48.5t19 48t48 18q43 0 60.5 -33t0 -66.5t-60.5 -33.5zM75 239q31 0 44 25t0.5 50t-44.5 25q-31 0 -43.5 -25t0 -50t43.5 -25zM77 259q-30 0 -30 30q0 14 8.5 22.5t21.5 8.5q10 0 18 -4q4 -4 2.5 -8.5t-5.5 -4.5q-1 0 -5.5 2.5t-9.5 2.5
q-17 0 -17 -19q0 -18 17 -18q6 0 10 3t6 3q5 0 5 -7q0 -3 -3 -6q-7 -5 -18 -5z" />
    <glyph glyph-name="guillemotleft" unicode="&#xab;" horiz-adv-x="247" 
d="M110 39q-9 0 -18 11l-68 78q-13 17 -2 33l72 84q9 10 20.5 8t15 -11.5t-3.5 -19.5l-63 -76l64 -75q7 -10 1.5 -21t-17.5 -11h-1zM204 39q-9 0 -18 11l-68 78q-13 17 -2 33l72 84q8 10 19.5 8t15 -11.5t-3.5 -19.5l-62 -76l63 -75q7 -10 2 -21t-17 -11h-1z" />
    <glyph glyph-name="registered" unicode="&#xae;" horiz-adv-x="180" 
d="M90 222q-30 0 -49 18.5t-19 48.5t19 48t49 18q43 0 60.5 -33t0 -66.5t-60.5 -33.5zM90 239q31 0 44 25t0.5 50t-44.5 25q-31 0 -44 -25t-0.5 -50t44.5 -25zM79 262q-6 0 -6 6v42q0 8 7 8h14q19 0 19 -18q0 -11 -10 -14l10 -16q2 -3 0.5 -5.5t-4.5 -2.5t-6 4l-10 18h-9
v-16q0 -6 -5 -6zM84 292h9q10 0 10 8q0 10 -10 10h-9v-18z" />
    <glyph glyph-name="degree" unicode="&#xb0;" horiz-adv-x="198" 
d="M30 325q0 30 20 49.5t49 19.5q30 0 49.5 -19t19.5 -50q0 -29 -20 -49t-49 -20t-49 20t-20 49zM68 325q0 -14 9 -23.5t22 -9.5q14 0 22.5 9.5t8.5 23.5q0 34 -31 34q-13 0 -22 -9.5t-9 -24.5z" />
    <glyph glyph-name="plusminus" unicode="&#xb1;" horiz-adv-x="251" 
d="M210 201q10 0 16 -6t6 -15v-1q0 -23 -22 -23h-64v-44q0 -10 -6.5 -16t-15.5 -6h-1q-9 0 -15.5 6t-6.5 16v44h-65q-21 0 -21 23v1q0 9 6 15t15 6h65v45q0 21 22 21h1q22 0 22 -21v-45h64zM196 63q21 0 21 -22v-1q0 -22 -21 -22h-144q-10 0 -16 6.5t-6 15.5v1q0 9 6 15.5
t16 6.5h144z" />
    <glyph glyph-name="acute" unicode="&#xb4;" horiz-adv-x="115" 
d="M14 316q-8 -1 -12 5.5t-1 14.5t11 9l91 13q7 0 10 -6.5t0.5 -14t-10.5 -8.5z" />
    <glyph glyph-name="paragraph" unicode="&#xb6;" horiz-adv-x="274" 
d="M160 -104q-20 0 -20 19v187h2q-121 0 -121 95q0 96 124 96h77q9 0 15.5 -6t6.5 -16v-356q0 -19 -20 -19h-1q-19 0 -19 19v339h-24v-339q0 -19 -19 -19h-1z" />
    <glyph glyph-name="periodcentered" unicode="&#xb7;" horiz-adv-x="97" 
d="M76 292q0 -11 -8.5 -19t-19.5 -8t-19 8t-8 19t8 19.5t19 8.5t19.5 -8.5t8.5 -19.5z" />
    <glyph glyph-name="guillemotright" unicode="&#xbb;" horiz-adv-x="247" 
d="M44 39h-1q-13 0 -18.5 11t2.5 21l63 75l-62 76q-8 9 -3.5 19.5t14.5 11.5t20 -8l73 -84q12 -17 -3 -33l-68 -78q-9 -11 -17 -11zM137 39h-1q-12 0 -17.5 11t1.5 21l64 75l-63 76q-8 9 -3.5 19.5t15 11.5t20.5 -8l72 -84q11 -16 -2 -33l-68 -78q-9 -11 -18 -11z" />
    <glyph glyph-name="questiondown" unicode="&#xbf;" horiz-adv-x="249" 
d="M147 259q11 0 19 -8t8 -19t-8 -19.5t-19 -8.5t-19.5 8.5t-8.5 19.5t8.5 19t19.5 8zM168 164q2 -32 -12 -58t-32.5 -41t-34.5 -37.5t-16 -46.5q0 -46 53 -46q29 0 49 13.5t26 13.5q18 0 18 -19q0 -20 -29.5 -33t-64.5 -13q-45 0 -70 22t-25 63q0 12 3.5 23t5.5 17.5
t12 18.5t12 14.5t16.5 16t15.5 14.5q23 22 29 36t6 42q0 11 9.5 16.5t19 0.5t9.5 -17z" />
    <glyph glyph-name="multiply" unicode="&#xd7;" horiz-adv-x="219" 
d="M139 215l45 -46q14 -16 0 -30l-1 -1q-15 -15 -31 -1l-45 46l-46 -46q-15 -13 -30 0l-1 1q-15 15 -1 31l46 46l-46 45q-13 15 1 31l1 1q15 13 30 0l46 -45l45 45q16 14 31 -1l1 -1q13 -15 0 -30z" />
    <glyph glyph-name="germandbls" unicode="&#xdf;" horiz-adv-x="257" 
d="M118 -7q-14 4 -16.5 17t7.5 22t24 2q24 -6 38.5 3t14.5 27q0 13 -13 33t-25 36.5t-12 38t22 41.5q16 17 4.5 37t-34.5 20q-24 0 -38.5 -21t-14.5 -57v-174q0 -16 -11.5 -22t-23.5 0.5t-12 21.5v174q0 123 100 123q28 0 50 -15t32 -35.5t6 -44t-24 -39.5
q-13 -8 -8.5 -23.5t15 -28t21 -31.5t10.5 -34q0 -43 -34 -64.5t-78 -6.5z" />
    <glyph glyph-name="adieresis" unicode="&#xe4;" horiz-adv-x="264" 
d="M90 314v16q0 14 11.5 20t23 0.5t11.5 -20.5v-16q0 -15 -11.5 -21t-23 0t-11.5 21zM152 314v16q0 14 11.5 20t23 0.5t11.5 -20.5v-16q0 -15 -11.5 -21t-23 0t-11.5 21zM115 1q-40 0 -63 22.5t-23 62.5q0 53 45 72.5t106 7.5v16q0 21 -19.5 32.5t-66.5 4.5q-16 -2 -24 8
t-1.5 22t23.5 14q134 13 134 -81l1 -106q0 -22 -7.5 -37.5t-16 -22.5t-28.5 -11t-28.5 -4h-31.5zM118 44q33 0 46.5 4.5t13.5 16.5v56q-37 11 -70.5 1.5t-33.5 -38.5q0 -40 44 -40z" />
    <glyph glyph-name="egrave" unicode="&#xe8;" horiz-adv-x="254" 
d="M156 293l-89 13q-8 1 -10.5 8.5t0.5 14t10 6.5l91 -13q8 -1 11 -9t-1 -14.5t-12 -5.5zM140 263q40 0 63 -22.5t23 -62.5q0 -52 -45 -72t-106 -8v-16q0 -50 109 -36q15 2 22 -8.5t1.5 -22.5t-21.5 -13q-158 -13 -158 80v106q0 22 7.5 37.5t16 22.5t28.5 11t28.5 4h31.5z
M137 220q-34 0 -47 -4.5t-13 -16.5v-56q37 -11 70.5 -1.5t33.5 38.5q0 40 -44 40z" />
    <glyph glyph-name="eacute" unicode="&#xe9;" horiz-adv-x="254" 
d="M73 293q-8 -1 -12 5.5t-1 14.5t11 9l91 13q7 0 10 -6.5t0.5 -14t-10.5 -8.5zM140 263q40 0 63 -22.5t23 -62.5q0 -52 -45 -72t-106 -8v-16q0 -50 109 -36q15 2 22 -8.5t1.5 -22.5t-21.5 -13q-158 -13 -158 80v106q0 22 7.5 37.5t16 22.5t28.5 11t28.5 4h31.5zM137 220
q-34 0 -47 -4.5t-13 -16.5v-56q37 -11 70.5 -1.5t33.5 38.5q0 40 -44 40z" />
    <glyph glyph-name="ecircumflex" unicode="&#xea;" horiz-adv-x="252" 
d="M187 313q7 -8 4 -16t-11.5 -8.5t-15.5 6.5l-44 45l-42 -45q-8 -8 -17 -6.5t-11 8.5t4 16l53 60q5 5 13 5t13 -5zM141 263q40 0 63 -22.5t23 -62.5q0 -52 -45 -72t-106 -8v-16q0 -50 109 -36q15 2 22 -8.5t1.5 -22.5t-21.5 -13q-158 -13 -158 80v106q0 22 7.5 37.5
t16 22.5t28.5 11t28.5 4h31.5zM138 220q-34 0 -47 -4.5t-13 -16.5v-56q37 -11 70.5 -1.5t33.5 38.5q0 40 -44 40z" />
    <glyph glyph-name="odieresis" unicode="&#xf6;" horiz-adv-x="310" 
d="M100 308v16q0 14 11.5 20t23 0.5t11.5 -20.5v-16q0 -15 -11.5 -21t-23 0t-11.5 21zM162 308v16q0 14 11.5 20t23 0.5t11.5 -20.5v-16q0 -15 -11.5 -21t-23 0t-11.5 21zM283 133q0 -60 -35.5 -96.5t-92.5 -36.5t-92 36.5t-35 96.5q0 59 35 95.5t92 36.5q58 0 93 -36
t35 -96zM76 133q0 -43 20.5 -66.5t58.5 -23.5t59 23.5t21 66.5q0 42 -21 65t-59 23t-58.5 -23t-20.5 -65z" />
    <glyph glyph-name="divide" unicode="&#xf7;" horiz-adv-x="257" 
d="M99 256q0 13 8 21t19 8t19.5 -8.5t8.5 -20.5q0 -11 -8.5 -19t-19.5 -8t-19 8t-8 19zM238 176q0 -22 -21 -22h-174q-21 0 -21 22v1q0 21 21 21h174q21 0 21 -21v-1zM99 88q0 12 8 20t19 8t19.5 -8.5t8.5 -19.5q-1 -12 -9 -20t-19 -8t-19 8.5t-8 19.5z" />
    <glyph glyph-name="udieresis" unicode="&#xfc;" horiz-adv-x="290" 
d="M93 314v16q0 14 11.5 20t23 0.5t11.5 -20.5v-16q0 -15 -11.5 -21t-23 0t-11.5 21zM155 314v16q0 14 11.5 20t23 0.5t11.5 -20.5v-16q0 -15 -11.5 -21t-23 0t-11.5 21zM261 244v-214q0 -30 -23 -30q-25 0 -25 39l2 6q-11 -18 -34 -31.5t-46 -13.5q-50 0 -78 35t-28 104
v105q0 22 24.5 22t24.5 -22v-105q0 -93 57 -93q38 0 78 43v155q0 22 24 22t24 -22z" />
    <glyph glyph-name="dotlessi" unicode="&#x131;" horiz-adv-x="102" 
d="M51 0q-10 0 -16.5 6.5t-6.5 16.5v214q0 28 23 28q24 0 24 -28v-214q0 -10 -7 -16.5t-16 -6.5h-1z" />
    <glyph glyph-name="florin" unicode="&#x192;" horiz-adv-x="232" 
d="M25 -115q-16 1 -15.5 18t16.5 17q29 0 38 10t13 46l19 155h-14q-17 0 -17 18.5t17 18.5h19q10 81 23.5 106t58.5 25q21 0 23 -18q-2 -16 -18 -19q-23 0 -29.5 -14.5t-14.5 -79.5h34q17 0 17 -18.5t-17 -18.5h-38l-20 -157q-4 -53 -25.5 -73.5t-69.5 -15.5z" />
    <glyph glyph-name="circumflex" unicode="&#x2c6;" horiz-adv-x="160" 
d="M148 313q7 -8 4 -16t-11.5 -8.5t-15.5 6.5l-43 45l-43 -45q-8 -8 -17 -6.5t-11 8.5t4 16l54 60q5 5 12.5 5t12.5 -5z" />
    <glyph glyph-name="uni060C" unicode="&#x60c;" horiz-adv-x="105" 
d="M24 -78q-18 4 -11 19l46 106q7 9 14 7l4 -1q10 -4 6 -16l-35 -110q-5 -9 -15 -7z" />
    <glyph glyph-name="uni0615" unicode="&#x615;" 
d="M71 315q43 0 43 -51q0 -34 -26 -34h-76q-10 0 -10 8v10q0 7 10 7h9v73q0 8 9 8t9 -8v-23q10 10 32 10zM84 255q7 0 7 10q0 25 -20 25q-14 0 -20 -8t-8 -27h41z" />
    <glyph glyph-name="uni061F" unicode="&#x61f;" horiz-adv-x="249" 
d="M168 70q0 -12 -9.5 -16.5t-19 1t-9.5 16.5q0 29 -6.5 42.5t-28.5 34.5q-3 3 -12 11.5t-12 11.5t-10.5 11t-10.5 12.5t-8 12.5t-7 14t-3.5 14.5t-1.5 17.5q0 41 25 63t70 22q35 0 64.5 -13t29.5 -33q0 -19 -18 -19q-6 0 -26 13.5t-49 13.5q-53 0 -53 -46q0 -20 10.5 -38
t25 -32t29 -29t23.5 -37t7 -48zM147 -24q-11 0 -19.5 7.5t-8.5 19.5q0 11 8.5 19.5t19.5 8.5t19 -8.5t8 -19.5t-8 -19t-19 -8z" />
    <glyph glyph-name="uni0621" unicode="&#x621;" horiz-adv-x="169" 
d="M28 0q-16 0 -22.5 11t-0.5 22.5t21 11.5h19q-20 32 -12.5 57t26.5 40.5t46.5 14.5t48.5 -22q12 -12 1 -27t-27 -2q-11 9 -24.5 10.5t-23.5 -5.5t-11 -20q-3 -23 8 -34.5t25 -11.5h31q14 0 20 -11t0 -22.5t-20 -11.5h-105z" />
    <glyph glyph-name="uni0622" unicode="&#x622;" horiz-adv-x="108" 
d="M18 396q-12 -10 -19 1q-3 9 1 15q25 22 47 6q23 -14 34 5q6 6 13 6t11 -5t1 -12q-14 -25 -47 -20q-5 1 -14 5t-13 4.5t-14 -5.5zM31 23v318q0 13 11.5 19t23 0.5t11.5 -19.5v-318q0 -14 -11.5 -20t-23 0t-11.5 20z" />
    <glyph glyph-name="uni0623" unicode="&#x623;" horiz-adv-x="110" 
d="M17 393q-11 0 -15.5 8t0 16t14.5 8h14q-14 23 -9 41t18 28.5t32.5 10t34.5 -15.5q9 -9 1 -19.5t-19 -1.5q-12 11 -26.5 7t-15.5 -18q-2 -16 6 -24t17 -8h23q16 0 16 -16t-16 -16h-75zM34 23v318q0 13 11.5 19t23 0.5t11.5 -19.5v-318q0 -14 -11.5 -20t-23 0t-11.5 20z
" />
    <glyph glyph-name="uni0624" unicode="&#x624;" horiz-adv-x="280" 
d="M102 303q-11 0 -15.5 8t0 16t14.5 8h13q-16 28 -4.5 52t35.5 26.5t46 -15.5q9 -8 1 -18.5t-19 -1.5q-12 11 -26.5 7t-15.5 -18q-2 -16 6 -24t17 -8h23q15 0 15 -16t-15 -16h-75zM139 265q58 0 89.5 -34t31.5 -95v-130q0 -43 -22 -67.5t-60 -24.5q-16 0 -22.5 11t-0.5 22
t22 11q35 0 37 42h-48q-146 0 -146 131q0 57 34 95.5t85 38.5zM214 136q0 45 -17.5 64t-57.5 19q-33 0 -53.5 -24.5t-20.5 -63.5q0 -86 101 -86h48v91z" />
    <glyph glyph-name="uni0625" unicode="&#x625;" horiz-adv-x="108" 
d="M31 23v318q0 13 11.5 19t23 0.5t11.5 -19.5v-318q0 -14 -11.5 -20t-23 0t-11.5 20zM19 -122q-11 0 -16 8t-0.5 15.5t14.5 7.5h14q-16 28 -4.5 52t35.5 27t46 -15q8 -8 0 -18.5t-19 -1.5q-12 11 -26.5 7t-15.5 -18q-2 -16 6 -24.5t18 -8.5h22q10 0 14 -7.5t0 -15.5t-14 -8
h-74z" />
    <glyph glyph-name="uni0626" unicode="&#x626;" horiz-adv-x="419" 
d="M17 192q-11 0 -15.5 8t0 16t14.5 8h13q-16 28 -4.5 52t35.5 26.5t46 -15.5q9 -8 1 -18.5t-19 -1.5q-12 11 -26.5 7t-15.5 -18q-2 -16 6 -24t17 -8h23q15 0 15 -16t-15 -16h-75zM196 -82q-74 0 -124 55t-46 133q1 19 5.5 28t17.5 9q14 0 18.5 -9t2.5 -28q-4 -62 33.5 -103
t92.5 -41q60 0 93.5 19t33.5 53q0 26 -21 42t-45.5 23t-45.5 27.5t-21 53.5q0 38 31 61.5t80 23.5q32 0 60 -10t38 -26q-2 -21 -29 -33q-29 25 -69 25q-29 0 -48.5 -12t-19.5 -29q0 -21 21 -36t46 -23.5t46 -31t21 -57.5q0 -56 -45 -85t-125 -29h-1z" />
    <glyph glyph-name="uni0627" unicode="&#x627;" horiz-adv-x="108" 
d="M31 23v318q0 13 11.5 19t23 0.5t11.5 -19.5v-318q0 -14 -11.5 -20t-23 0t-11.5 20z" />
    <glyph glyph-name="uni0628" unicode="&#x628;" horiz-adv-x="366" 
d="M101 0q-38 0 -59.5 22t-21.5 62v110q0 14 11 20t22.5 0t11.5 -20v-108q1 -19 10.5 -30t25.5 -11h164q16 0 26 11t10 30v138q0 14 11.5 19.5t22.5 0t11 -20.5v-139q0 -41 -21.5 -62.5t-59.5 -21.5h-164zM162 -59v16q0 14 11.5 20t23 0.5t11.5 -20.5v-16q0 -15 -11.5 -21
t-23 0t-11.5 21z" />
    <glyph glyph-name="uni0629" unicode="&#x629;" horiz-adv-x="279" 
d="M86 313v16q0 14 11.5 20t23 0.5t11.5 -20.5v-16q0 -15 -11.5 -21t-23 0t-11.5 21zM148 313v16q0 14 11.5 20t23 0.5t11.5 -20.5v-16q0 -15 -11.5 -21t-23 0t-11.5 21zM139 1q-52 0 -85.5 34t-33.5 87q0 56 34.5 94.5t85.5 38.5t85 -38.5t34 -93.5v-1q0 -53 -33.5 -87
t-86.5 -34zM140 45q35 0 57 22t22 59v1q0 38 -22.5 64t-57.5 26t-57 -25.5t-22 -64.5v-1q0 -37 22.5 -59t57.5 -22z" />
    <glyph glyph-name="uni062A" unicode="&#x62a;" horiz-adv-x="366" 
d="M128 303v16q0 14 11.5 20t23 0.5t11.5 -20.5v-16q0 -15 -11.5 -21t-23 0t-11.5 21zM190 303v16q0 14 11.5 20t23 0.5t11.5 -20.5v-16q0 -15 -11.5 -21t-23 0t-11.5 21zM101 0q-38 0 -59.5 22t-21.5 62v110q0 14 11 20t22.5 0t11.5 -20v-108q1 -19 10.5 -30t25.5 -11h164
q16 0 26 11t10 30v138q0 14 11.5 19.5t22.5 0t11 -20.5v-139q0 -41 -21.5 -62.5t-59.5 -21.5h-164z" />
    <glyph glyph-name="uni062B" unicode="&#x62b;" horiz-adv-x="366" 
d="M159 385v16q0 14 11.5 20t23 0.5t11.5 -20.5v-16q0 -14 -11.5 -20t-23 0t-11.5 20zM128 303v16q0 14 11.5 20t23 0.5t11.5 -20.5v-16q0 -15 -11.5 -21t-23 0t-11.5 21zM190 303v16q0 14 11.5 20t23 0.5t11.5 -20.5v-16q0 -15 -11.5 -21t-23 0t-11.5 21zM101 0
q-38 0 -59.5 22t-21.5 62v110q0 14 11 20t22.5 0t11.5 -20v-108q1 -19 10.5 -30t25.5 -11h164q16 0 26 11t10 30v138q0 14 11.5 19.5t22.5 0t11 -20.5v-139q0 -41 -21.5 -62.5t-59.5 -21.5h-164z" />
    <glyph glyph-name="uni062C" unicode="&#x62c;" horiz-adv-x="366" 
d="M194 265q70 0 111 -43t41 -116v-106h-243q-18 0 -28.5 -13t-10.5 -35q0 -23 16.5 -38.5t39.5 -15.5q10 0 16.5 -7t5.5 -17q-3 -20 -23 -20q-41 0 -70 28.5t-29 69.5q0 35 20.5 61t52.5 31q2 1 7 1h200v57q0 57 -28 87.5t-81 30.5q-47 0 -83 -35q-9 -9 -20 -6t-14 13t4 20
q17 23 49 38t67 15zM214 -56q0 14 11.5 20t23 0.5t11.5 -20.5v-16q0 -15 -11.5 -21t-23 0t-11.5 21v16z" />
    <glyph glyph-name="uni062D" unicode="&#x62d;" horiz-adv-x="366" 
d="M194 265q70 0 111 -43t41 -116v-106h-243q-18 0 -28.5 -13t-10.5 -35q0 -23 16.5 -38.5t39.5 -15.5q10 0 16.5 -7t5.5 -17q-3 -20 -23 -20q-41 0 -70 28.5t-29 69.5q0 35 20.5 61t52.5 31q2 1 7 1h200v57q0 57 -28 87.5t-81 30.5q-47 0 -83 -35q-9 -9 -20 -6t-14 13t4 20
q17 23 49 38t67 15z" />
    <glyph glyph-name="uni062E" unicode="&#x62e;" horiz-adv-x="366" 
d="M217 333q0 -15 -11.5 -21t-23 0t-11.5 21v16q0 14 11.5 20t23 0.5t11.5 -20.5v-16zM194 265q70 0 111 -43t41 -116v-106h-243q-18 0 -28.5 -13t-10.5 -35q0 -23 16.5 -38.5t39.5 -15.5q10 0 16.5 -7t5.5 -17q-3 -20 -23 -20q-41 0 -70 28.5t-29 69.5q0 35 20.5 61
t52.5 31q2 1 7 1h200v57q0 57 -28 87.5t-81 30.5q-47 0 -83 -35q-9 -9 -20 -6t-14 13t4 20q17 23 49 38t67 15z" />
    <glyph glyph-name="uni062F" unicode="&#x62f;" horiz-adv-x="239" 
d="M84 265q61 -4 98 -49t37 -113v-103h-177q-14 0 -19.5 11t0 22.5t19.5 11.5h131v58q0 52 -24.5 82.5t-69.5 34.5q-21 4 -21 23q0 11 7.5 17t18.5 5z" />
    <glyph glyph-name="uni0630" unicode="&#x630;" horiz-adv-x="239" 
d="M110 336q0 -15 -11.5 -21t-23 0t-11.5 21v16q0 14 11.5 20t23 0.5t11.5 -20.5v-16zM84 265q61 -4 98 -49t37 -113v-103h-177q-14 0 -19.5 11t0 22.5t19.5 11.5h131v58q0 52 -24.5 82.5t-69.5 34.5q-21 4 -21 23q0 11 7.5 17t18.5 5z" />
    <glyph glyph-name="uni0631" unicode="&#x631;" horiz-adv-x="147" 
d="M45 -86q-16 0 -22.5 11t0 22t22.5 11q36 0 36 46v208q0 15 11.5 21t23 0t11.5 -21v-206q0 -43 -22 -67.5t-60 -24.5z" />
    <glyph glyph-name="uni0632" unicode="&#x632;" horiz-adv-x="147" 
d="M81 312v16q0 14 11.5 20t23 0.5t11.5 -20.5v-16q0 -15 -11.5 -21t-23 0t-11.5 21zM45 -86q-16 0 -22.5 11t0 22t22.5 11q36 0 36 46v208q0 15 11.5 21t23 0t11.5 -21v-206q0 -43 -22 -67.5t-60 -24.5z" />
    <glyph glyph-name="uni0633" unicode="&#x633;" horiz-adv-x="599" 
d="M535 254q0 21 22 21t22 -21v-105q0 -86 -33 -118.5t-115 -30.5v24q-34 -24 -104 -24h-21q-19 -41 -55 -63t-78 -23q-64 -1 -109.5 43t-43.5 122l18 145q2 14 13.5 19t22 -2t8.5 -22l-17 -140q-7 -54 22.5 -85t82.5 -33q107 3 107 130v107q0 14 11.5 19.5t23 0t11.5 -19.5
v-153q63 0 84.5 16t23.5 63v117q0 14 11 19.5t22 0t11 -19.5v-94v-25v-77q31 -1 45.5 24.5t14.5 79.5v105z" />
    <glyph glyph-name="uni0634" unicode="&#x634;" horiz-adv-x="599" 
d="M474 400q0 -22 -23 -22t-23 22v16q0 14 11.5 20t23 0.5t11.5 -20.5v-16zM443 318q0 -15 -11.5 -21t-23 0t-11.5 21v16q0 14 11.5 20t23 0.5t11.5 -20.5v-16zM459 334q0 14 11.5 20t23 0.5t11.5 -20.5v-16q0 -15 -11.5 -21t-23 0t-11.5 21v16zM535 254q0 21 22 21t22 -21
v-105q0 -86 -33 -118.5t-115 -30.5v24q-34 -24 -104 -24h-21q-19 -41 -55 -63t-78 -23q-64 -1 -109.5 43t-43.5 122l18 145q2 14 13.5 19t22 -2t8.5 -22l-17 -140q-7 -54 22.5 -85t82.5 -33q107 3 107 130v107q0 14 11.5 19.5t23 0t11.5 -19.5v-153q63 0 84.5 16t23.5 63
v117q0 14 11 19.5t22 0t11 -19.5v-94v-25v-77q31 -1 45.5 24.5t14.5 79.5v105z" />
    <glyph glyph-name="uni0635" unicode="&#x635;" horiz-adv-x="614" 
d="M441 265q70 0 111.5 -45t41.5 -118v-19q-1 -39 -23 -61t-58 -22h-208q-20 -41 -55 -63t-77 -23q-64 -1 -109.5 43t-43.5 122l18 145q2 14 14 19t22 -2t9 -22l-18 -140q-7 -54 23.5 -85t84.5 -33q105 3 105 130v133q0 14 11 19.5t22.5 0t11.5 -20.5v-8q44 50 118 50z
M548 84v18q0 64 -47.5 95t-103 16t-74.5 -68v-60q0 -16 -4 -40h193q36 0 36 39z" />
    <glyph glyph-name="uni0636" unicode="&#x636;" horiz-adv-x="614" 
d="M466 357q0 -15 -11.5 -21t-23 0t-11.5 21v16q0 14 11.5 20t23 0.5t11.5 -20.5v-16zM441 265q70 0 111.5 -45t41.5 -118v-19q-1 -39 -23 -61t-58 -22h-208q-20 -41 -55 -63t-77 -23q-64 -1 -109.5 43t-43.5 122l18 145q2 14 14 19t22 -2t9 -22l-18 -140q-7 -54 23.5 -85
t84.5 -33q105 3 105 130v133q0 14 11 19.5t22.5 0t11.5 -20.5v-8q44 50 118 50zM548 84v18q0 64 -47.5 95t-103 16t-74.5 -68v-60q0 -16 -4 -40h193q36 0 36 39z" />
    <glyph glyph-name="uni0637" unicode="&#x637;" horiz-adv-x="434" 
d="M261 265q69 0 111 -45t42 -118v-19q0 -38 -22.5 -60.5t-58.5 -22.5h-311l-9 45h84v316q0 15 11.5 21t23 0t11.5 -21v-156q41 60 118 60zM368 84v18q0 49 -27 80.5t-62.5 37.5t-72 -13t-54.5 -61q-9 -22 -9 -101h188q37 0 37 39z" />
    <glyph glyph-name="uni0638" unicode="&#x638;" horiz-adv-x="434" 
d="M261 265q69 0 111 -45t42 -118v-19q0 -38 -22.5 -60.5t-58.5 -22.5h-311l-9 45h84v316q0 15 11.5 21t23 0t11.5 -21v-156q41 60 118 60zM284 318q0 -15 -11.5 -21t-23 0t-11.5 21v16q0 14 11.5 20t23 0.5t11.5 -20.5v-16zM368 84v18q0 49 -27 80.5t-62.5 37.5t-72 -13
t-54.5 -61q-9 -22 -9 -101h188q37 0 37 39z" />
    <glyph glyph-name="uni0639" unicode="&#x639;" horiz-adv-x="391" 
d="M350 45q14 0 19.5 -11t0 -22.5t-19.5 -11.5h-247q-18 0 -28.5 -13t-10.5 -35q0 -23 16.5 -38.5t39.5 -15.5q10 0 16.5 -7t5.5 -17q-3 -20 -23 -20q-41 0 -70 28.5t-29 69.5q0 35 20.5 61t52.5 31q2 1 7 1h62q-7 20 -7 60q0 74 41.5 116.5t112.5 42.5h22q15 0 21.5 -11
t0 -22t-21.5 -11h-22q-52 0 -80 -30.5t-28 -84.5q0 -44 4.5 -52t31.5 -8h113z" />
    <glyph glyph-name="uni063A" unicode="&#x63a;" horiz-adv-x="391" 
d="M312 338q0 -15 -11.5 -21t-23 0t-11.5 21v16q0 14 11.5 20t23 0.5t11.5 -20.5v-16zM350 45q14 0 19.5 -11t0 -22.5t-19.5 -11.5h-247q-18 0 -28.5 -13t-10.5 -35q0 -23 16.5 -38.5t39.5 -15.5q10 0 16.5 -7t5.5 -17q-3 -20 -23 -20q-41 0 -70 28.5t-29 69.5q0 35 20.5 61
t52.5 31q2 1 7 1h62q-7 20 -7 60q0 74 41.5 116.5t112.5 42.5h22q15 0 21.5 -11t0 -22t-21.5 -11h-22q-52 0 -80 -30.5t-28 -84.5q0 -44 4.5 -52t31.5 -8h113z" />
    <glyph glyph-name="uni0640" unicode="&#x640;" horiz-adv-x="131" 
d="M-12 0v45h155v-45h-155z" />
    <glyph glyph-name="uni0641" unicode="&#x641;" horiz-adv-x="474" 
d="M365 331q0 -15 -11.5 -21t-23 0t-11.5 21v16q0 14 11.5 20t23 0.5t11.5 -20.5v-16zM454 137v-137l-59 1v-1h-223q-68 0 -110 44.5t-42 116.5v13q0 10 6 16.5t16 6.5t16.5 -6.5t6.5 -16.5v-9q0 -55 29 -87.5t78 -32.5h101q-30 40 -30 92q0 56 28.5 92t73.5 36h1
q49 0 78.5 -36.5t29.5 -91.5zM411 45l-2 92q0 39 -16.5 62t-45.5 23h-1q-28 0 -43 -22t-15 -63q0 -37 22.5 -64.5t54.5 -27.5h46z" />
    <glyph glyph-name="uni0642" unicode="&#x642;" horiz-adv-x="397" 
d="M253 326q0 -15 -11.5 -21t-23 0t-11.5 21v16q0 14 11.5 20t23 0.5t11.5 -20.5v-16zM315 326q0 -15 -11.5 -21t-23 0t-11.5 21v16q0 14 11.5 20t23 0.5t11.5 -20.5v-16zM263 264q48 0 77.5 -36.5t29.5 -91.5v-162q-1 -55 -45.5 -83.5t-124.5 -28.5h-1q-74 0 -124 54.5
t-46 133.5q1 19 5.5 28t17.5 9q25 0 20 -37q-4 -62 34 -103t93 -41q57 0 91 18t36 50v26h-45q-35 0 -60.5 15.5t-37.5 38.5t-17.5 43.5t-5.5 38.5q0 56 28.5 92t73.5 36h1zM204 136q0 -37 22.5 -64.5t54.5 -27.5h46l-1 92q0 38 -17 61.5t-45 23.5h-1q-59 0 -59 -85z" />
    <glyph glyph-name="uni0643" unicode="&#x643;" horiz-adv-x="441" 
d="M280 265q74 0 113.5 -44.5t39.5 -118.5v-65q0 -16 -11 -26.5t-26 -10.5h-307q-35 0 -57.5 21t-23.5 59q0 2 1.5 6t6.5 9.5t13 5.5q9 0 14.5 -5.5t6.5 -9t1 -6.5q1 -21 10.5 -28t28.5 -7h296v57q0 56 -27 87.5t-79 31.5h-106q-12 0 -20.5 8.5t-8.5 20.5q0 14 9 20l92 80
q5 7 15 7q15 0 20.5 -14t-5.5 -24l-64 -54h68z" />
    <glyph glyph-name="uni0644" unicode="&#x644;" horiz-adv-x="279" 
d="M65 23q0 -40 20 -64t53 -24h1q35 0 54.5 27.5t19.5 76.5v295q0 22 23 22t23 -22v-290q0 -69 -33 -112t-88 -43h-2q-50 0 -83 38t-33 96q0 14 11 19.5t22.5 0t11.5 -19.5z" />
    <glyph glyph-name="uni0645" unicode="&#x645;" horiz-adv-x="319" 
d="M8 -73v67q0 55 48 74q-15 30 -15 65q0 50 27 84.5t65.5 42.5t77 0t65.5 -42.5t27 -84.5q0 -47 -23.5 -80t-57 -45t-71 -7t-65.5 28q-34 -4 -34 -35v-67q0 -15 -11 -21.5t-22 0t-11 21.5zM172 44q37 0 61.5 25.5t24.5 63.5q0 36 -25.5 62t-60.5 26q-37 0 -61.5 -25.5
t-24.5 -62.5t25 -63t61 -26z" />
    <glyph glyph-name="uni0646" unicode="&#x646;" horiz-adv-x="336" 
d="M181 308q0 -15 -11.5 -21t-23 0t-11.5 21v16q0 14 11.5 20t23 0.5t11.5 -20.5v-16zM276 224q0 14 11 19.5t22.5 0t11.5 -20.5v-138q-2 -81 -46 -125.5t-105 -45.5q-64 -1 -109.5 43t-42.5 122l8 110q1 14 12.5 18.5t22.5 -2.5t10 -21l-8 -105q-4 -54 25.5 -85t81.5 -33
q106 3 106 130v133z" />
    <glyph glyph-name="uni0647" unicode="&#x647;" horiz-adv-x="279" 
d="M139 1q-52 0 -85.5 34t-33.5 87q0 56 34.5 94.5t85.5 38.5t85 -38.5t34 -93.5v-1q0 -53 -33.5 -87t-86.5 -34zM140 45q35 0 57 22t22 59v1q0 38 -22.5 64t-57.5 26t-57 -25.5t-22 -64.5v-1q0 -37 22.5 -59t57.5 -22z" />
    <glyph glyph-name="uni0648" unicode="&#x648;" horiz-adv-x="280" 
d="M139 265q58 0 89.5 -34t31.5 -95v-130q0 -43 -22 -67.5t-60 -24.5q-16 0 -22.5 11t-0.5 22t22 11q35 0 37 42h-48q-146 0 -146 131q0 57 34 95.5t85 38.5zM214 136q0 45 -17.5 64t-57.5 19q-33 0 -53.5 -24.5t-20.5 -63.5q0 -86 101 -86h48v91z" />
    <glyph glyph-name="uni0649" unicode="&#x649;" horiz-adv-x="419" 
d="M196 -82q-74 0 -124 55t-46 133q1 19 5.5 28t17.5 9q14 0 18.5 -9t2.5 -28q-4 -62 33.5 -103t92.5 -41q60 0 93.5 19t33.5 53q0 26 -21 42t-45.5 23t-45.5 27.5t-21 53.5q0 38 31 61.5t80 23.5q32 0 60 -10t38 -26q-2 -21 -29 -33q-29 25 -69 25q-29 0 -48.5 -12
t-19.5 -29q0 -21 21 -36t46 -23.5t46 -31t21 -57.5q0 -56 -45 -85t-125 -29h-1z" />
    <glyph glyph-name="uni064A" unicode="&#x64a;" horiz-adv-x="419" 
d="M196 -82q-74 0 -124 55t-46 133q1 19 5.5 28t17.5 9q14 0 18.5 -9t2.5 -28q-4 -62 33.5 -103t92.5 -41q60 0 93.5 19t33.5 53q0 26 -21 42t-45.5 23t-45.5 27.5t-21 53.5q0 38 31 61.5t80 23.5q32 0 60 -10t38 -26q-2 -21 -29 -33q-29 25 -69 25q-29 0 -48.5 -12
t-19.5 -29q0 -21 21 -36t46 -23.5t46 -31t21 -57.5q0 -56 -45 -85t-125 -29h-1zM142 -134v16q0 14 11.5 20t23 0.5t11.5 -20.5v-16q0 -15 -11.5 -21t-23 0t-11.5 21zM204 -134v16q0 14 11.5 20t23 0.5t11.5 -20.5v-16q0 -15 -11.5 -21t-23 0t-11.5 21z" />
    <glyph glyph-name="uni064B" unicode="&#x64b;" 
d="M14 445q-8 -1 -12 5.5t-1 14.5t11 9l91 13q7 0 10 -6.5t0.5 -14t-10.5 -8.5zM14 394q-8 -1 -12 5.5t-1 14.5t11 9l91 13q7 0 10 -6.5t0.5 -14t-10.5 -8.5z" />
    <glyph glyph-name="uni064C" unicode="&#x64c;" 
d="M74 342q-12 6 -15 22t9 27q14 12 31 5.5t20.5 -21.5t-10.5 -29q-20 -16 -33.5 -19t-19 1.5t-12.5 9.5t-13 4q-13 -2 -15 2q-6 10 8 15q13 5 21 -4q17 -19 29 -13zM78 357q7 -9 20 1q11 8 0 18q-9 10 -19 2q-9 -9 -1 -21z" />
    <glyph glyph-name="uni064D" unicode="&#x64d;" 
d="M13 -98q-8 -1 -12 3t-1.5 9.5t10.5 6.5l83 11q8 -1 8.5 -9t-8.5 -10zM13 -128q-8 -1 -12 3t-1.5 9.5t10.5 6.5l83 11q8 -1 8.5 -9t-8.5 -10z" />
    <glyph glyph-name="uni064E" unicode="&#x64e;" 
d="M14 409q-8 -1 -12 5.5t-1 14.5t11 9l91 13q7 0 10 -6.5t0.5 -14t-10.5 -8.5z" />
    <glyph glyph-name="uni064F" unicode="&#x64f;" 
d="M18 330q-7 -2 -12.5 2t-4 10t9.5 8q8 3 22 13q-20 2 -26.5 23t5.5 39t38 13q38 -7 31 -42q-8 -36 -50 -60q-6 -3 -13 -6zM41 383q9 -2 15 5.5t3 16.5t-13 10q-18 1 -20 -14t15 -18z" />
    <glyph glyph-name="uni0650" unicode="&#x650;" 
d="M13 -98q-8 -1 -12 3t-1.5 9.5t10.5 6.5l83 11q8 -1 8.5 -9t-8.5 -10z" />
    <glyph glyph-name="uni0651" unicode="&#x651;" 
d="M34 224q-34 0 -34 43q0 23 13 22q11 -3 12 -14q0 -30 9 -30q12 0 12 39q0 15 12 16q10 1 11 -12q0 -37 13 -37q12 0 12 42q0 7 6 9.5t11.5 -0.5t5.5 -10q0 -62 -35 -62q-15 0 -21 9q-12 -15 -27 -15z" />
    <glyph glyph-name="uni0652" unicode="&#x652;" 
d="M0 489q0 16 12 28t28 12t28 -11.5t12 -28.5q0 -16 -12 -27.5t-28 -11.5t-28 11.5t-12 27.5zM22 489q0 -18 18 -18t18 18t-18 18t-18 -18z" />
    <glyph glyph-name="uni0653" unicode="&#x653;" 
d="M21 380q-7 -6 -13 -3.5t-7 8.5t2 11q25 22 47 6q23 -14 34 5q6 6 13 6t11 -5t1 -12q-14 -25 -47 -20q-5 1 -14 5t-13 4.5t-14 -5.5z" />
    <glyph glyph-name="uni0654" unicode="&#x654;" 
d="M12 346q-11 0 -15.5 8t0 16t14.5 8h13q-16 28 -4.5 52t35.5 26.5t46 -15.5q9 -8 1 -18.5t-19 -1.5q-12 11 -26.5 7t-15.5 -18q-2 -16 6 -24t17 -8h23q15 0 15 -16t-15 -16h-75z" />
    <glyph glyph-name="uni0655" unicode="&#x655;" 
d="M16 346q-11 0 -15.5 8t0 16t14.5 8h13q-16 28 -4.5 52t35.5 26.5t46 -15.5q9 -8 1 -18.5t-19 -1.5q-12 11 -26.5 7t-15.5 -18q-2 -16 6 -24t17 -8h23q15 0 15 -16t-15 -16h-75z" />
    <glyph glyph-name="uni0656" unicode="&#x656;" 
d="M17 265q0 49 -17 117l21 6q22 -60 21 -115z" />
    <glyph glyph-name="uni0657" unicode="&#x657;" 
d="M38 334q-17 0 -27.5 11.5t-10.5 28.5q0 34 48 76q5 5 11.5 2t7.5 -9t-5 -11q-17 -12 -24 -20q14 2 26.5 -10t12.5 -29q0 -16 -11.5 -27.5t-27.5 -11.5zM38 356q18 0 18 17q0 11 -9 16t-18 0.5t-9 -16.5q0 -17 18 -17z" />
    <glyph glyph-name="uni0658" unicode="&#x658;" 
d="M87 398q9 0 7 -9q-4 -27 -18 -42.5t-35 -12.5q-19 2 -30.5 18t-10.5 38q0 6 7 8h6q3 0 6 -2.5t2 -6.5q2 -31 21 -33q12 -2 20.5 7.5t11.5 28.5q0 4 6 6h7z" />
    <glyph glyph-name="uni0660" unicode="&#x660;" horiz-adv-x="130" 
d="M66 78q-14 0 -24 9.5t-10 23.5q0 13 10 22.5t24 9.5t23 -9.5t9 -22.5q0 -14 -9 -23.5t-23 -9.5z" />
    <glyph glyph-name="uni0661" unicode="&#x661;" horiz-adv-x="94" 
d="M47 306q9 0 16.5 -7.5t7.5 -17.5v-281q0 -10 -7 -16.5t-17 -6.5q-11 0 -18 6.5t-7 16.5v281q0 11 7 18t18 7z" />
    <glyph glyph-name="uni0662" unicode="&#x662;" horiz-adv-x="236" 
d="M158 271q0 14 12 19.5t24 0t12 -19.5q0 -72 -19.5 -100t-66.5 -28q-29 0 -44 5v-146q0 -16 -12 -22t-24 0t-12 22v270v2q0 22 24 22t24 -22v-2v-39q1 -29 8.5 -37t35.5 -8q25 0 31.5 15.5t6.5 67.5z" />
    <glyph glyph-name="uni0663" unicode="&#x663;" horiz-adv-x="299" 
d="M32 3v270q0 16 12 22.5t24 0.5t12 -22l1 -71q0 -17 11.5 -23t23.5 1t12 22v70q0 16 11.5 22.5t23 0t11.5 -22.5l2 -70q0 -19 11 -26t22.5 0.5t12.5 25.5v72q0 15 11.5 21t23 0t11.5 -22v-71q0 -51 -45 -71.5t-75 12.5q-30 -23 -68 -9v-132q0 -17 -12 -23.5t-24 0
t-12 23.5z" />
    <glyph glyph-name="uni0664" unicode="&#x664;" horiz-adv-x="215" 
d="M159 113q-65 0 -72 -5t-6 -49q0 -9 2 -15.5t6.5 -10.5t9 -6t13 -2.5t13.5 -1t16 0t16 0.5q15 0 21.5 -12t0 -23.5t-21.5 -11.5h-44q-41 0 -60.5 19.5t-20.5 62.5q0 59 17 79q-17 20 -17 58q-1 66 22 84t106 18q22 0 22 -24t-22 -24q-64 0 -71 -4q-9 -5 -8 -35v-15
q0 -21 11.5 -28t33.5 -8q9 1 31 1h1h1q7 0 13 -4q18 -13 7 -31q-6 -13 -20 -13z" />
    <glyph glyph-name="uni0665" unicode="&#x665;" horiz-adv-x="283" 
d="M33 117q0 58 31.5 99t77.5 41q45 0 75.5 -41t30.5 -99q0 -38 -12 -68t-31 -46t-42 -23t-45.5 0t-41.5 22.5t-31 46t-12 68.5zM82 117q0 -36 17.5 -60.5t42.5 -24.5q24 0 40.5 24.5t16.5 60.5q0 35 -17 60t-41 25q-26 0 -42.5 -24.5t-16.5 -60.5z" />
    <glyph glyph-name="uni0666" unicode="&#x666;" horiz-adv-x="225" 
d="M24 277v2q0 21 23 21h30q27 0 46.5 -3t33 -7t21.5 -14t12.5 -18t6 -25.5t1.5 -29t-1 -36.5t-1 -41v-124q0 -10 -7 -17t-17 -7t-16.5 7t-6.5 17v124v35.5t0.5 29.5t-0.5 21.5t-2.5 17.5t-5.5 11t-8.5 8t-14 3.5t-19 2.5h-25.5h-27q-23 0 -23 22z" />
    <glyph glyph-name="uni0667" unicode="&#x667;" horiz-adv-x="259" 
d="M203 296q10 -1 16 -10t4 -18l-71 -274q-5 -20 -24 -18q-18 -2 -23 18l-72 274q-2 9 4 18t15 10q21 3 28 -18l48 -187l48 187q7 21 27 18z" />
    <glyph glyph-name="uni0668" unicode="&#x668;" horiz-adv-x="259" 
d="M223 5q2 -10 -4 -18.5t-15 -9.5q-21 -3 -28 18l-48 187l-48 -187q-7 -21 -27 -18q-10 1 -16 9.5t-4 18.5l71 274q5 20 24 18q18 2 23 -18z" />
    <glyph glyph-name="uni0669" unicode="&#x669;" horiz-adv-x="261" 
d="M227 200v-1l-1 -199q0 -10 -7 -16.5t-17 -6.5q-11 0 -18 6.5t-7 16.5l1 114q-21 -12 -47 -12q-41 0 -69.5 28.5t-28.5 69.5t28 69.5t70 28.5q40 0 68 -28.5t28 -69.5zM131 150q18 0 31 15t13 35t-12.5 33.5t-31.5 13.5q-21 0 -33.5 -13.5t-12.5 -33.5q0 -21 13.5 -35.5
t32.5 -14.5z" />
    <glyph glyph-name="uni066A" unicode="&#x66a;" horiz-adv-x="600" 
 />
    <glyph glyph-name="uni066B" unicode="&#x66b;" horiz-adv-x="70" 
d="M34 -19q-13 0 -21 8t-8 21q0 12 8.5 20t20.5 8q20 0 28 -14.5t-2 -31.5l-22 -43q1 5 2 14q2 10 1 14t-7 4z" />
    <glyph glyph-name="uni066C" unicode="&#x66c;" horiz-adv-x="131" 
d="M52 -7q-12 -12 -21 -2t-3 25q4 10 7.5 19t6 15.5t5 12.5t4 10t3 7.5t2.5 5.5t2 3.5t2.5 2.5t3 1.5t3.5 0.5l24 2q13 2 19.5 -8.5t-0.5 -21.5z" />
    <glyph glyph-name="uni066E" unicode="&#x66e;" horiz-adv-x="366" 
d="M101 0q-38 0 -59.5 22t-21.5 62v110q0 14 11 20t22.5 0t11.5 -20v-108q1 -19 10.5 -30t25.5 -11h164q16 0 26 11t10 30v138q0 14 11.5 19.5t22.5 0t11 -20.5v-139q0 -41 -21.5 -62.5t-59.5 -21.5h-164z" />
    <glyph glyph-name="uni066F" unicode="&#x66f;" horiz-adv-x="397" 
d="M263 264q48 0 77.5 -36.5t29.5 -91.5v-162q-1 -55 -45.5 -83.5t-124.5 -28.5h-1q-74 0 -124 54.5t-46 133.5q1 19 5.5 28t17.5 9q25 0 20 -37q-4 -62 34 -103t93 -41q57 0 91 18t36 50v26h-45q-35 0 -60.5 15.5t-37.5 38.5t-17.5 43.5t-5.5 38.5q0 56 28.5 92t73.5 36h1z
M204 136q0 -37 22.5 -64.5t54.5 -27.5h46l-1 92q0 38 -17 61.5t-45 23.5h-1q-59 0 -59 -85z" />
    <glyph glyph-name="uni0670" unicode="&#x670;" 
d="M13 294q2 40 -13 82l21 10q14 -39 14 -87z" />
    <glyph glyph-name="uni0671" unicode="&#x671;" horiz-adv-x="108" 
d="M7 387q-6 -9 -15 -3q-9 4 -1 18l12 19q7 10 18 4l17 -10q2 3 6.5 10t6.5 10t7 8t9 7t10 2t13 -3q24 -17 23 -35t-22 -28t-45 0q-6 3 -12.5 6t-9.5 4.5t-5.5 2.5t-4 0t-3.5 -4zM58 407q11 -3 19.5 -1t13.5 6l5 4q-8 15 -21 13q-4 -1 -8.5 -6.5t-6.5 -10.5zM31 23v318
q0 13 11.5 19t23 0.5t11.5 -19.5v-318q0 -14 -11.5 -20t-23 0t-11.5 20z" />
    <glyph glyph-name="uni0679" unicode="&#x679;" horiz-adv-x="366" 
d="M132 259q-10 0 -10 8v10q0 7 10 7h9v73q0 8 9 8t9 -8v-23q10 10 32 10q43 0 43 -51q0 -34 -26 -34h-76zM191 319q-14 0 -20 -8t-8 -27h41q7 0 7 10q0 25 -20 25zM301 224q0 14 11.5 19.5t22.5 0t11 -20.5v-139q0 -41 -21.5 -62.5t-59.5 -21.5h-164q-38 0 -59.5 22
t-21.5 62v110q0 14 11 20t22.5 0t11.5 -20v-108q1 -19 10.5 -30t25.5 -11h164q16 0 26 11t10 30v138z" />
    <glyph glyph-name="uni067E" unicode="&#x67e;" horiz-adv-x="366" 
d="M101 0q-38 0 -59.5 22t-21.5 62v110q0 14 11 20t22.5 0t11.5 -20v-108q1 -19 10.5 -30t25.5 -11h164q16 0 26 11t10 30v138q0 14 11.5 19.5t22.5 0t11 -20.5v-139q0 -41 -21.5 -62.5t-59.5 -21.5h-164zM131 -43q0 15 11.5 21t23 0t11.5 -21v-16q0 -15 -11.5 -20.5
t-23 0.5t-11.5 20v16zM193 -43q0 15 11.5 21t23 0t11.5 -21v-16q0 -15 -11.5 -20.5t-23 0.5t-11.5 20v16zM162 -125q0 15 11.5 21t23 0t11.5 -21v-16q0 -15 -11.5 -20.5t-23 0.5t-11.5 20v16z" />
    <glyph glyph-name="uni0686" unicode="&#x686;" horiz-adv-x="366" 
d="M194 265q70 0 111 -43t41 -116v-106h-243q-18 0 -28.5 -13t-10.5 -35q0 -23 16.5 -38.5t39.5 -15.5q10 0 16.5 -7t5.5 -17q-3 -20 -23 -20q-41 0 -70 28.5t-29 69.5q0 35 20.5 61t52.5 31q2 1 7 1h200v57q0 57 -28 87.5t-81 30.5q-47 0 -83 -35q-9 -9 -20 -6t-14 13t4 20
q17 23 49 38t67 15zM227 -71q0 -15 -11.5 -20.5t-23 0.5t-11.5 20v16q0 15 11.5 21t23 0t11.5 -21v-16zM243 -55q0 15 11.5 21t23 0t11.5 -21v-16q0 -15 -11.5 -20.5t-23 0.5t-11.5 20v16zM212 -137q0 15 11.5 21t23 0t11.5 -21v-16q0 -15 -11.5 -20.5t-23 0.5t-11.5 20v16z
" />
    <glyph glyph-name="uni0688" unicode="&#x688;" horiz-adv-x="239" 
d="M37 292q-10 0 -10 8v10q0 7 10 7h9v73q0 8 9 8t9 -8v-23q10 10 32 10q43 0 43 -51q0 -34 -26 -34h-76zM96 352q-14 0 -20 -8t-8 -27h41q7 0 7 10q0 25 -20 25zM84 265q61 -4 98 -49t37 -113v-103h-177q-14 0 -19.5 11t0 22.5t19.5 11.5h131v58q0 52 -24.5 82.5
t-69.5 34.5q-21 4 -21 23q0 11 7.5 17t18.5 5z" />
    <glyph glyph-name="uni0691" unicode="&#x691;" horiz-adv-x="147" 
d="M113 353q43 0 43 -51q0 -34 -26 -34h-76q-10 0 -10 8v10q0 7 10 7h9v73q0 8 9 8t9 -8v-23q10 10 32 10zM126 293q7 0 7 10q0 25 -20 25q-14 0 -20 -8t-8 -27h41zM81 212q0 15 11.5 21t23 0t11.5 -21v-206q0 -43 -22 -67.5t-60 -24.5q-16 0 -22.5 11t0 22t22.5 11
q36 0 36 46v208z" />
    <glyph glyph-name="uni0698" unicode="&#x698;" horiz-adv-x="147" 
d="M80 394v16q0 14 11.5 20t23 0.5t11.5 -20.5v-16q0 -22 -23 -22t-23 22zM49 312v16q0 14 11.5 20t23 0.5t11.5 -20.5v-16q0 -15 -11.5 -21t-23 0t-11.5 21zM111 312v16q0 14 11.5 20t23 0.5t11.5 -20.5v-16q0 -15 -11.5 -21t-23 0t-11.5 21zM45 -86q-16 0 -22.5 11t0 22
t22.5 11q36 0 36 46v208q0 15 11.5 21t23 0t11.5 -21v-206q0 -43 -22 -67.5t-60 -24.5z" />
    <glyph glyph-name="uni06A1" unicode="&#x6a1;" horiz-adv-x="474" 
d="M454 137v-137l-59 1v-1h-223q-68 0 -110 44.5t-42 116.5v13q0 10 6 16.5t16 6.5t16.5 -6.5t6.5 -16.5v-9q0 -55 29 -87.5t78 -32.5h101q-30 40 -30 92q0 56 28.5 92t73.5 36h1q49 0 78.5 -36.5t29.5 -91.5zM411 45l-2 92q0 39 -16.5 62t-45.5 23h-1q-28 0 -43 -22
t-15 -63q0 -37 22.5 -64.5t54.5 -27.5h46z" />
    <glyph glyph-name="uni06A4" unicode="&#x6a4;" horiz-adv-x="474" 
d="M364 413q0 -14 -11.5 -20t-23 0t-11.5 20v16q0 14 11.5 20t23 0.5t11.5 -20.5v-16zM333 331q0 -15 -11.5 -21t-23 0t-11.5 21v16q0 14 11.5 20t23 0.5t11.5 -20.5v-16zM349 347q0 14 11.5 20t23 0.5t11.5 -20.5v-16q0 -15 -11.5 -21t-23 0t-11.5 21v16zM454 137v-137
l-59 1v-1h-223q-68 0 -110 44.5t-42 116.5v13q0 10 6 16.5t16 6.5t16.5 -6.5t6.5 -16.5v-9q0 -55 29 -87.5t78 -32.5h101q-30 40 -30 92q0 56 28.5 92t73.5 36h1q49 0 78.5 -36.5t29.5 -91.5zM411 45l-2 92q0 39 -16.5 62t-45.5 23h-1q-28 0 -43 -22t-15 -63
q0 -37 22.5 -64.5t54.5 -27.5h46z" />
    <glyph glyph-name="uni06A9" unicode="&#x6a9;" horiz-adv-x="458" 
d="M278 265q74 0 113.5 -44.5t39.5 -118.5v-65q0 -16 -11 -26.5t-26 -10.5h-253q-66 3 -94.5 49t-12.5 99q9 33 29 33q17 0 20 -17q2 -9 -2 -18q-21 -38 -3 -69.5t70 -31.5h235v57q0 56 -27 87.5t-78 31.5h-106q-12 0 -21 8.5t-9 20.5q0 13 9 20l92 80q7 7 16 7
q14 0 19.5 -14t-4.5 -24l-65 -54h69z" />
    <glyph glyph-name="uni06AF" unicode="&#x6af;" horiz-adv-x="458" 
d="M135 282q-8 -6 -17 -2t-10.5 12t6.5 16l115 93q12 8 21.5 -5t-2.5 -23zM278 265q74 0 113.5 -44.5t39.5 -118.5v-65q0 -16 -11 -26.5t-26 -10.5h-253q-66 3 -94.5 49t-12.5 99q9 33 29 33q17 0 20 -17q2 -9 -2 -18q-21 -38 -3 -69.5t70 -31.5h235v57q0 56 -27 87.5
t-78 31.5h-106q-12 0 -21 8.5t-9 20.5q0 13 9 20l92 80q7 7 16 7q14 0 19.5 -14t-4.5 -24l-65 -54h69z" />
    <glyph glyph-name="uni06BA" unicode="&#x6ba;" horiz-adv-x="336" 
d="M276 224q0 14 11 19.5t22.5 0t11.5 -20.5v-138q-2 -81 -46 -125.5t-105 -45.5q-64 -1 -109.5 43t-42.5 122l8 110q1 14 12.5 18.5t22.5 -2.5t10 -21l-8 -105q-4 -54 25.5 -85t81.5 -33q106 3 106 130v133z" />
    <glyph glyph-name="uni06BE" unicode="&#x6be;" horiz-adv-x="429" 
d="M255 301q71 0 112.5 -44t41.5 -118v-139h-412l-7 22l7 23h72q-31 36 -31 92q0 58 35 92t85 37q38 35 97 35zM269 45h94v94q0 55 -29 86.5t-79 31.5q-14 0 -26 -3q71 -34 71 -117q0 -56 -31 -92zM83 137q0 -38 24.5 -65t61.5 -27t61.5 26t24.5 66q0 34 -25.5 59.5
t-60.5 25.5q-37 0 -61.5 -25t-24.5 -60z" />
    <glyph glyph-name="uni06C1" unicode="&#x6c1;" horiz-adv-x="279" 
d="M139 1q-52 0 -85.5 34t-33.5 87q0 56 34.5 94.5t85.5 38.5t85 -38.5t34 -93.5v-1q0 -53 -33.5 -87t-86.5 -34zM140 45q35 0 57 22t22 59v1q0 38 -22.5 64t-57.5 26t-57 -25.5t-22 -64.5v-1q0 -37 22.5 -59t57.5 -22z" />
    <glyph glyph-name="uni06C2" unicode="&#x6c2;" horiz-adv-x="279" 
d="M102 289q-11 0 -15.5 8t0 16t14.5 8h13q-16 28 -4.5 52t35.5 26.5t46 -15.5q9 -8 1 -18.5t-19 -1.5q-12 11 -26.5 7t-15.5 -18q-2 -16 6 -24t17 -8h23q15 0 15 -16t-15 -16h-75zM139 1q-52 0 -85.5 34t-33.5 87q0 56 34.5 94.5t85.5 38.5t85 -38.5t34 -93.5v-1
q0 -53 -33.5 -87t-86.5 -34zM140 45q35 0 57 22t22 59v1q0 38 -22.5 64t-57.5 26t-57 -25.5t-22 -64.5v-1q0 -37 22.5 -59t57.5 -22z" />
    <glyph glyph-name="uni06C3" unicode="&#x6c3;" horiz-adv-x="279" 
d="M86 313v16q0 14 11.5 20t23 0.5t11.5 -20.5v-16q0 -15 -11.5 -21t-23 0t-11.5 21zM148 313v16q0 14 11.5 20t23 0.5t11.5 -20.5v-16q0 -15 -11.5 -21t-23 0t-11.5 21zM139 1q-52 0 -85.5 34t-33.5 87q0 56 34.5 94.5t85.5 38.5t85 -38.5t34 -93.5v-1q0 -53 -33.5 -87
t-86.5 -34zM140 45q35 0 57 22t22 59v1q0 38 -22.5 64t-57.5 26t-57 -25.5t-22 -64.5v-1q0 -37 22.5 -59t57.5 -22z" />
    <glyph glyph-name="uni06CC" unicode="&#x6cc;" horiz-adv-x="419" 
d="M196 -82q-74 0 -124 55t-46 133q1 19 5.5 28t17.5 9q14 0 18.5 -9t2.5 -28q-4 -62 33.5 -103t92.5 -41q60 0 93.5 19t33.5 53q0 26 -21 42t-45.5 23t-45.5 27.5t-21 53.5q0 38 31 61.5t80 23.5q32 0 60 -10t38 -26q-2 -21 -29 -33q-29 25 -69 25q-29 0 -48.5 -12
t-19.5 -29q0 -21 21 -36t46 -23.5t46 -31t21 -57.5q0 -56 -45 -85t-125 -29h-1z" />
    <glyph glyph-name="uni06D2" unicode="&#x6d2;" horiz-adv-x="404" 
d="M339 173q0 14 11.5 19.5t22.5 0t11 -20.5v-87q0 -41 -21 -63t-60 -22h-214q0 -36 22.5 -56t56.5 -20h96q7 0 12.5 -5t5.5 -12v-5q0 -20 -18 -20h-96q-66 0 -99.5 35t-33.5 126l175 2h93q16 0 26 11t10 30v87z" />
    <glyph glyph-name="uni06D3" unicode="&#x6d3;" horiz-adv-x="404" 
d="M104 123q15 0 15 -16t-15 -16h-75q-11 0 -15.5 8t0 16t14.5 8h13q-16 28 -4.5 52t35.5 26.5t46 -15.5q9 -8 1 -18.5t-19 -1.5q-12 11 -26.5 7t-15.5 -18q-2 -16 6 -24t17 -8h23zM339 173q0 14 11.5 19.5t22.5 0t11 -20.5v-87q0 -41 -21 -63t-60 -22h-214q0 -36 22.5 -56
t56.5 -20h96q7 0 12.5 -5t5.5 -12v-5q0 -20 -18 -20h-96q-66 0 -99.5 35t-33.5 126l175 2h93q16 0 26 11t10 30v87z" />
    <glyph glyph-name="uni06D4" unicode="&#x6d4;" horiz-adv-x="104" 
d="M84 32q0 -13 -10 -22.5t-22 -9.5q-14 0 -23 9t-9 23q0 12 9.5 22t22.5 10q12 0 22 -10t10 -22z" />
    <glyph glyph-name="uni06F0" unicode="&#x6f0;" horiz-adv-x="121" 
d="M66 78q-14 0 -24 9.5t-10 23.5q0 13 10 22.5t24 9.5t23 -9.5t9 -22.5q0 -14 -9 -23.5t-23 -9.5z" />
    <glyph glyph-name="uni06F1" unicode="&#x6f1;" horiz-adv-x="88" 
d="M47 306q9 0 16.5 -7.5t7.5 -17.5v-281q0 -10 -7 -16.5t-17 -6.5q-11 0 -18 6.5t-7 16.5v281q0 11 7 18t18 7z" />
    <glyph glyph-name="uni06F2" unicode="&#x6f2;" horiz-adv-x="243" 
d="M158 271q0 14 12 19.5t24 0t12 -19.5q0 -72 -19.5 -100t-66.5 -28q-29 0 -44 5v-146q0 -16 -12 -22t-24 0t-12 22v270v2q0 22 24 22t24 -22v-2v-39q1 -29 8.5 -37t35.5 -8q25 0 31.5 15.5t6.5 67.5z" />
    <glyph glyph-name="uni06F3" unicode="&#x6f3;" horiz-adv-x="296" 
d="M32 3v270q0 16 12 22.5t24 0.5t12 -22l1 -71q0 -17 11.5 -23t23.5 1t12 22v70q0 16 11.5 22.5t23 0t11.5 -22.5l2 -70q0 -19 11 -26t22.5 0.5t12.5 25.5v72q0 15 11.5 21t23 0t11.5 -22v-71q0 -51 -45 -71.5t-75 12.5q-30 -23 -68 -9v-132q0 -17 -12 -23.5t-24 0
t-12 23.5z" />
    <glyph glyph-name="uni06F4" unicode="&#x6f4;" horiz-adv-x="319" 
d="M250 271q0 14 12 19.5t24.5 0t12.5 -19.5q0 -72 -19.5 -100t-66.5 -28q-104 0 -145 16v-157q0 -16 -12 -22t-24 0t-12 22v277v2q0 14 12 20t24 0t12 -20v-2v-7q0 -27 2 -39.5t12.5 -23.5t32.5 -15q-2 8 -2 13q-1 41 19.5 61t66.5 21q20 1 24.5 -18t-12.5 -23q-3 -1 -7 -1
q-32 1 -40.5 -7t-6.5 -26q3 -19 18 -26h38q24 0 30.5 15.5t6.5 67.5z" />
    <glyph glyph-name="uni06F5" unicode="&#x6f5;" horiz-adv-x="287" 
d="M110 291q137 -91 137 -213q0 -41 -17 -65t-47 -24q-6 0 -12 1t-9.5 2.5t-7.5 4.5l-6 4.5t-5 5t-4 4.5q-17 -22 -44 -22q-46 0 -59.5 48t7 107.5t63.5 90.5q-24 19 -26 20q-12 9 -9 22t14.5 17.5t24.5 -3.5zM173 46q14 -31 22 -6q5 13 5 38q0 69 -61 128q-54 -35 -60 -115
q-5 -49 9 -59q8 -5 16 13q14 29 35 29.5t34 -28.5z" />
    <glyph glyph-name="uni06F6" unicode="&#x6f6;" horiz-adv-x="206" 
d="M167 156q16 -11 7 -28q-5 -13 -20 -13q-61 0 -78.5 -27.5t5.5 -69.5q6 -15 0.5 -27t-20 -11t-22.5 18q-33 93 15 133q-23 19 -25 66q-2 69 23 91.5t103 8.5q20 -3 21 -24q2 -19 -13 -21q-4 -1 -8 0q-17 4 -29.5 5t-21.5 2t-14.5 -3t-8.5 -5t-4.5 -9.5t-2 -11.5t0 -15.5
t0.5 -17.5q0 -11 3.5 -18.5t7.5 -11t14.5 -5.5t15.5 -2.5t19 0t18 0.5h1q8 0 13 -4z" />
    <glyph glyph-name="uni06F7" unicode="&#x6f7;" horiz-adv-x="259" 
d="M203 296q10 -1 16 -10t4 -18l-71 -274q-5 -20 -24 -18q-18 -2 -23 18l-72 274q-2 9 4 18t15 10q21 3 28 -18l48 -187l48 187q7 21 27 18z" />
    <glyph glyph-name="uni06F8" unicode="&#x6f8;" horiz-adv-x="259" 
d="M223 5q2 -10 -4 -18.5t-15 -9.5q-21 -3 -28 18l-48 187l-48 -187q-7 -21 -27 -18q-10 1 -16 9.5t-4 18.5l71 274q5 20 24 18q18 2 23 -18z" />
    <glyph glyph-name="uni06F9" unicode="&#x6f9;" horiz-adv-x="261" 
d="M227 200v-1l-1 -199q0 -10 -7 -16.5t-17 -6.5q-11 0 -18 6.5t-7 16.5l1 114q-21 -12 -47 -12q-41 0 -69.5 28.5t-28.5 69.5t28 69.5t70 28.5q40 0 68 -28.5t28 -69.5zM131 150q18 0 31 15t13 35t-12.5 33.5t-31.5 13.5q-21 0 -33.5 -13.5t-12.5 -33.5q0 -21 13.5 -35.5
t32.5 -14.5z" />
    <glyph glyph-name="endash" unicode="&#x2013;" horiz-adv-x="361" 
d="M50 123q-8 0 -14 5.5t-6 13.5v1q0 8 6 13.5t14 5.5h262q19 0 19 -19v-1q0 -8 -5.5 -13.5t-13.5 -5.5h-262z" />
    <glyph glyph-name="emdash" unicode="&#x2014;" horiz-adv-x="499" 
d="M50 123q-8 0 -14 5.5t-6 13.5v1q0 8 6 13.5t14 5.5h403q19 0 19 -19v-1q0 -8 -5.5 -13.5t-13.5 -5.5h-403z" />
    <glyph glyph-name="quoteleft" unicode="&#x2018;" horiz-adv-x="93" 
d="M82 365l-22 -122h-49l45 123z" />
    <glyph glyph-name="quoteright" unicode="&#x2019;" horiz-adv-x="68" 
d="M68 359l-27 -123h-41l22 123h46z" />
    <glyph glyph-name="quotesinglbase" unicode="&#x201a;" horiz-adv-x="84" 
d="M16 -42l42 123h29l-22 -123h-49z" />
    <glyph glyph-name="quotedblleft" unicode="&#x201c;" horiz-adv-x="187" 
d="M164 360l-26 -123h-41l22 123h45zM90 359l-26 -123h-42l22 123h46z" />
    <glyph glyph-name="quotedblright" unicode="&#x201d;" horiz-adv-x="187" 
d="M164 360l-26 -123h-41l22 123h45zM90 356l-26 -123h-42l22 123h46z" />
    <glyph glyph-name="quotedblbase" unicode="&#x201e;" horiz-adv-x="156" 
d="M164 89l-26 -123h-41l22 123h45zM90 88l-26 -123h-42l22 123h46z" />
    <glyph glyph-name="dagger" unicode="&#x2020;" horiz-adv-x="236" 
d="M118 -62q-19 0 -19 19v225q-4 0 -24 -1.5t-31 -1.5q-23 0 -23 20v1q0 20 23 20q26 0 56 -3q-3 39 -3 77q0 22 21 22t21 -22q0 -38 -3 -77q30 3 56 3q23 0 23 -20v-1q0 -20 -23 -20q-11 0 -31 1.5t-24 1.5v-225q0 -19 -19 -19z" />
    <glyph glyph-name="daggerdbl" unicode="&#x2021;" horiz-adv-x="236" 
d="M118 -62q-21 0 -21 23q0 37 3 73q-4 0 -24.5 -1.5t-31.5 -1.5q-23 0 -23 20v1q0 20 23 20q11 0 31 -1.5t24 -1.5q0 5 -1.5 26t-1.5 32t1.5 33t1.5 26q-40 -4 -55 -4q-23 0 -23 21t23 21q11 0 31.5 -1.5t24.5 -1.5q-3 36 -3 73q0 22 21 22t21 -22q0 -37 -3 -73
q4 0 24.5 1.5t31.5 1.5q23 0 23 -21t-23 -21q-11 0 -31 1.5t-24 1.5q0 -4 1.5 -25.5t1.5 -32.5t-1.5 -32t-1.5 -26q4 0 24 1.5t31 1.5q23 0 23 -20v-1q0 -20 -23 -20q-11 0 -31.5 1.5t-24.5 1.5q3 -36 3 -73q0 -23 -21 -23z" />
    <glyph glyph-name="bullet" unicode="&#x2022;" horiz-adv-x="136" 
d="M115 126q0 -22 -13 -34.5t-34 -12.5t-34 12.5t-13 34.5t13 34.5t34 12.5t34 -12.5t13 -34.5z" />
    <glyph glyph-name="ellipsis" unicode="&#x2026;" horiz-adv-x="253" 
d="M77 26q0 -11 -8 -19t-19 -8q-12 0 -20 8t-8 19t8 19.5t20 8.5q11 0 19 -8.5t8 -19.5zM154 26q0 -11 -8 -19t-19 -8t-20 8t-9 19t8.5 19.5t20.5 8.5q11 0 19 -8.5t8 -19.5zM231 26q0 -11 -8 -19t-19 -8q-12 0 -20 8t-8 19t8 19.5t20 8.5q11 0 19 -8.5t8 -19.5z" />
    <glyph glyph-name="perthousand" unicode="&#x2030;" horiz-adv-x="584" 
d="M100 -35q-11 -19 -28 -9q-15 12 -4 28l222 345q12 16 27 6.5t5 -27.5zM104 142q-36 0 -59 24.5t-23 66.5t23 67t59 25t58.5 -25t22.5 -67q0 -41 -22.5 -66t-58.5 -25zM104 177q40 0 40 56q0 57 -40 57t-40 -57q0 -56 40 -56zM471 -23q-36 0 -59 25t-23 67t23 66.5
t59 24.5t58.5 -25t22.5 -66q0 -42 -22.5 -67t-58.5 -25zM285 -30q-36 0 -58.5 25t-22.5 67t22.5 66.5t58.5 24.5t58.5 -25t22.5 -66q0 -42 -22.5 -67t-58.5 -25zM471 12q40 0 40 56q0 57 -40 57t-40 -57q0 -56 40 -56zM285 5q41 0 41 56q0 27 -11 42t-30 15q-40 0 -40 -57
q0 -56 40 -56z" />
    <glyph glyph-name="guilsinglleft" unicode="&#x2039;" horiz-adv-x="159" 
d="M114 26q-9 0 -18 11l-68 79q-13 17 -2 33l72 84q8 10 19.5 8t15 -11.5t-2.5 -20.5l-63 -75l63 -75q8 -10 2.5 -21.5t-17.5 -11.5h-1z" />
    <glyph glyph-name="guilsinglright" unicode="&#x203a;" horiz-adv-x="159" 
d="M45 26h-1q-12 0 -17.5 11.5t2.5 21.5l63 75l-63 75q-8 10 -3 20t15 11.5t20 -7.5l72 -84q11 -16 -2 -33l-68 -79q-9 -11 -18 -11z" />
    <glyph glyph-name="fraction" unicode="&#x2044;" horiz-adv-x="312" 
d="M63 -35q-8 -14 -22 -13.5t-18.5 11.5t2.5 25l224 342q8 14 22 13.5t18.5 -11.5t-2.5 -25z" />
    <glyph glyph-name="Euro" unicode="&#x20ac;" horiz-adv-x="326" 
d="M296 22q-87 -55 -157 -29.5t-83 120.5h-17q-18 0 -17.5 19t17.5 19h14v30h-14q-18 0 -17.5 19t17.5 19h18q8 41 33 72t57 45t68.5 10t66.5 -28q8 -8 8 -17t-8 -14.5t-17 -0.5q-56 33 -103 14.5t-60 -81.5h104q12 0 17 -9.5t0 -19t-17 -9.5h-109v-30h100q18 0 18.5 -19
t-18.5 -19h-96q12 -72 61 -87t115 30q10 6 19 0t9.5 -16t-9.5 -18z" />
    <glyph glyph-name="trademark" unicode="&#x2122;" horiz-adv-x="345" 
d="M163 311v111q0 23 21.5 26.5t29.5 -17.5l24 -68l23 63q5 16 18.5 21t24.5 -2t11 -23v-110q0 -18 -19.5 -18.5t-19.5 18.5v48q-15 -38 -26.5 -49.5t-23.5 1t-27 51.5v-52q0 -11 -9 -16t-18 -0.5t-9 16.5zM69 312v96h-25q-14 0 -14 17.5t14 17.5h90q14 0 14 -17.5
t-14 -17.5h-25v-96q0 -14 -10 -19.5t-20 0t-10 19.5z" />
    <glyph glyph-name="minus" unicode="&#x2212;" horiz-adv-x="232" 
d="M209 179q0 -23 -21 -23h-144q-10 0 -16 6.5t-6 16.5v1q0 8 6 14.5t16 6.5h144q9 0 15 -6t6 -15v-1z" />
    <glyph glyph-name="lessequal" unicode="&#x2264;" horiz-adv-x="268" 
d="M238 235q0 -12 -10 -17l-137 -43l135 -43q12 -6 12 -18q0 -11 -9 -16t-20 -1l-168 58q-11 8 -11 19v1q0 13 11 19l168 59q11 4 20 -1t9 -16v-1zM215 72q10 0 16 -6.5t6 -15.5v-1q0 -22 -22 -22h-163q-21 0 -21 22v1q0 22 21 22h163z" />
    <glyph glyph-name="greaterequal" unicode="&#x2265;" horiz-adv-x="250" 
d="M218 194q10 -7 10 -19v-1q0 -11 -10 -19l-169 -58q-10 -4 -19.5 1t-9.5 16q0 12 13 18l134 43l-137 43q-10 6 -10 17v1q0 11 9 16t21 1zM206 72q10 0 16 -6.5t6 -15.5v-1q0 -22 -22 -22h-163q-21 0 -21 22v1q0 22 21 22h163z" />
    <glyph glyph-name="uniFBB2" unicode="&#xfbb2;" 
d="M0 260v16q0 14 11.5 20t23 0.5t11.5 -20.5v-16q0 -15 -11.5 -21t-23 0t-11.5 21z" />
    <glyph glyph-name="uniFBB3" unicode="&#xfbb3;" 
d="M0 260v16q0 14 11.5 20t23 0.5t11.5 -20.5v-16q0 -15 -11.5 -21t-23 0t-11.5 21z" />
    <glyph glyph-name="uniFBB4" unicode="&#xfbb4;" 
d="M0 260v16q0 14 11.5 20t23 0.5t11.5 -20.5v-16q0 -15 -11.5 -21t-23 0t-11.5 21zM62 260v16q0 14 11.5 20t23 0.5t11.5 -20.5v-16q0 -15 -11.5 -21t-23 0t-11.5 21z" />
    <glyph glyph-name="uniFBB5" unicode="&#xfbb5;" 
d="M0 260v16q0 14 11.5 20t23 0.5t11.5 -20.5v-16q0 -15 -11.5 -21t-23 0t-11.5 21zM62 260v16q0 14 11.5 20t23 0.5t11.5 -20.5v-16q0 -15 -11.5 -21t-23 0t-11.5 21z" />
    <glyph glyph-name="uniFBB6" unicode="&#xfbb6;" 
d="M31 220v16q0 14 11.5 20t23 0.5t11.5 -20.5v-16q0 -22 -23 -22t-23 22zM0 138v16q0 14 11.5 20t23 0.5t11.5 -20.5v-16q0 -15 -11.5 -21t-23 0t-11.5 21zM62 138v16q0 14 11.5 20t23 0.5t11.5 -20.5v-16q0 -15 -11.5 -21t-23 0t-11.5 21z" />
    <glyph glyph-name="uniFBB7" unicode="&#xfbb7;" 
d="M31 220v16q0 14 11.5 20t23 0.5t11.5 -20.5v-16q0 -22 -23 -22t-23 22zM0 138v16q0 14 11.5 20t23 0.5t11.5 -20.5v-16q0 -15 -11.5 -21t-23 0t-11.5 21zM62 138v16q0 14 11.5 20t23 0.5t11.5 -20.5v-16q0 -15 -11.5 -21t-23 0t-11.5 21z" />
    <glyph glyph-name="uniFBB8" unicode="&#xfbb8;" 
d="M0 252q0 15 11.5 21t23 0t11.5 -21v-16q0 -15 -11.5 -20.5t-23 0.5t-11.5 20v16zM62 252q0 15 11.5 21t23 0t11.5 -21v-16q0 -15 -11.5 -20.5t-23 0.5t-11.5 20v16zM31 170q0 15 11.5 21t23 0t11.5 -21v-16q0 -15 -11.5 -20.5t-23 0.5t-11.5 20v16z" />
    <glyph glyph-name="uniFBB9" unicode="&#xfbb9;" 
d="M0 252q0 15 11.5 21t23 0t11.5 -21v-16q0 -15 -11.5 -20.5t-23 0.5t-11.5 20v16zM62 252q0 15 11.5 21t23 0t11.5 -21v-16q0 -15 -11.5 -20.5t-23 0.5t-11.5 20v16zM31 170q0 15 11.5 21t23 0t11.5 -21v-16q0 -15 -11.5 -20.5t-23 0.5t-11.5 20v16z" />
    <glyph glyph-name="uniFBBD" unicode="&#xfbbd;" 
d="M0 241v16q0 14 11.5 20t23 0.5t11.5 -20.5v-16q0 -15 -11.5 -21t-23 0t-11.5 21zM0 159v16q0 14 11.5 20t23 0.5t11.5 -20.5v-16q0 -15 -11.5 -21t-23 0t-11.5 21z" />
    <glyph glyph-name="uniFBBE" unicode="&#xfbbe;" 
d="M0 241v16q0 14 11.5 20t23 0.5t11.5 -20.5v-16q0 -15 -11.5 -21t-23 0t-11.5 21zM0 159v16q0 14 11.5 20t23 0.5t11.5 -20.5v-16q0 -15 -11.5 -21t-23 0t-11.5 21z" />
    <glyph glyph-name="uniFCFB.001" horiz-adv-x="671" 
d="M599 242q0 20 21 20t21 -20v-95q0 -85 -32.5 -117t-113.5 -30v10q-21 -8 -62 -10h-5h-9q-28 1 -36.5 14t-9.5 46v1v34v81l-84 -1h-87q-18 0 -21 -15q-3 -18 24 -25l23 -3q75 0 105 -46t0 -91.5t-99 -44.5l-98 1q-42 1 -74 31.5t-32 69.5v85q0 14 10.5 20t21.5 0t11 -20
v-85q0 -22 19.5 -40t43.5 -18l98 -1q40 0 58 24t0.5 48.5t-64.5 24.5q-61 1 -83 46q-19 37 7 64q17 18 50 18l212 -1v-123q0 -52 5 -52h4h2h8q42 1 52 14t10 62v111q0 13 10.5 18.5t21 0t10.5 -18.5v-84v-15v-88q33 3 47.5 27.5t14.5 77.5v95z" />
    <glyph glyph-name="uniFD17.001" horiz-adv-x="704" 
d="M711 45l8 -22l-8 -23h-28q-49 0 -68 33q-33 -36 -116 -33v10q-21 -8 -62 -10h-5h-9q-28 1 -36.5 14t-9.5 46v1v34v81l-85 -1h-86q-19 0 -21 -15q-3 -18 24 -25q10 -3 23 -3q75 0 105 -46t0 -91.5t-99 -44.5l-98 1q-42 1 -74 31t-32 70v85q0 14 10.5 20t21.5 0t11 -20v-85
q0 -22 19.5 -40t43.5 -18l98 -1q40 0 58 24t0.5 48.5t-64.5 24.5q-61 1 -83 45q-19 37 5 64q18 19 52 19l212 -1v-152q0 -23 5 -23h4h2h8q42 1 52 14t10 62v111q0 13 10.5 18.5t21 0t10.5 -18.5v-84v-15v-88q33 3 47.5 27.5t14.5 77.5v95q0 20 21 20t21 -20v-95v-4v-47
q0 -51 38 -51h28z" />
    <glyph glyph-name="uniFD18.001" horiz-adv-x="705" 
d="M711 45l8 -22l-8 -23h-28q-49 0 -68 33q-33 -36 -116 -33v10q-21 -8 -62 -10h-5h-9q-28 1 -36.5 14t-9.5 46v1v34v81l-85 -1h-86q-19 0 -21 -15q-3 -18 24 -25q10 -3 23 -3q75 0 105 -46t0 -91.5t-99 -44.5l-98 1q-42 1 -74 31t-32 70v85q0 14 10.5 20t21.5 0t11 -20v-85
q0 -22 19.5 -40t43.5 -18l98 -1q40 0 58 24t0.5 48.5t-64.5 24.5q-61 1 -83 45q-19 37 5 64q18 19 52 19l212 -1v-152q0 -23 5 -23h4h2h8q42 1 52 14t10 62v111q0 13 10.5 18.5t21 0t10.5 -18.5v-84v-15v-88q33 3 47.5 27.5t14.5 77.5v95q0 20 21 20t21 -20v-95v-4v-47
q0 -51 38 -51h28zM147 -98q0 14 11.5 20t23.5 0.5t12 -20.5v-16q0 -23 -23.5 -23t-23.5 23v16zM210 -98q0 14 11.5 20t23 0.5t11.5 -20.5v-16q0 -15 -11.5 -21t-23 0t-11.5 21v16z" />
    <glyph glyph-name="uni06330626.001" horiz-adv-x="675" 
d="M102 199q15 0 15 -16t-15 -16h-75q-11 0 -16 8t-0.5 16t14.5 8h14q-16 28 -4.5 52t35.5 27t46 -15q9 -8 1 -18.5t-19 -1.5q-12 10 -26.5 6.5t-15.5 -17.5q-3 -16 5 -24.5t18 -8.5h23zM602 242q0 20 21.5 20t21.5 -20v-95q0 -84 -33 -116.5t-114 -30.5v10q-21 -8 -62 -10
h-5h-9q-28 1 -36.5 14t-9.5 46v7v28v81l-84 -1h-87q-18 0 -21 -15q-3 -18 24 -25l23 -3q75 0 105 -46t0.5 -91.5t-98.5 -44.5l-98 1q-42 1 -74.5 31t-32.5 70v85q0 14 10.5 20t21.5 0t11 -20v-85q0 -22 19.5 -40t44.5 -18l98 -1q39 0 57 24t0.5 48.5t-64.5 24.5
q-61 1 -83 46q-19 37 7 64q17 18 50 18l213 -1v-154q0 -21 4 -21h4h2h8q42 1 52 14t10 62v111q0 21 21.5 21t21.5 -21v-84v-8v-95q32 3 46.5 27t14.5 78v95z" />
    <glyph glyph-name="uni06330626.fina.001" horiz-adv-x="721" 
d="M113 199q16 0 16 -16t-16 -16h-75q-11 0 -15.5 8t0 16t14.5 8h14q-17 28 -5 52.5t36 27t46 -15.5q8 -8 0.5 -18.5t-18.5 -1.5q-13 10 -27.5 6.5t-15.5 -17.5q-2 -16 6 -24.5t18 -8.5h22zM732 45l9 -22l-9 -23h-28q-49 0 -69 31q-34 -34 -115 -31v10q-21 -9 -61 -10h-6h-9
q-28 1 -36.5 14t-9.5 46v7v28v81l-84 -1h-86q-19 0 -22 -15q-3 -18 24 -25l23 -3q76 0 105.5 -46t0 -91.5t-98.5 -44.5l-98 1q-42 1 -74.5 31t-32.5 70v85q0 14 10.5 20t21.5 0t11 -20v-85q0 -22 19.5 -40t44.5 -18l98 -1q40 0 58 24t0.5 48.5t-65.5 24.5q-61 1 -83 46
q-18 37 8 64q17 18 50 18l212 -1v-154q0 -21 4 -21h4h2h9q41 1 51 14t10 62v111q0 21 21.5 21t21.5 -21v-84v-15v-88q32 3 46.5 27t14.5 78v95q0 20 21.5 20t21.5 -20v-146q0 -51 37 -51h28z" />
    <glyph glyph-name="uniFCFD.001" horiz-adv-x="645" 
d="M511 390q0 -15 -11.5 -21t-23 0t-11.5 21v16q0 14 11.5 20t23 0.5t11.5 -20.5v-16zM471 326q0 -15 -11.5 -21t-23 0t-11.5 21v16q0 14 11.5 20t23 0.5t11.5 -20.5v-16zM505 326v16q0 14 11.5 20t23 0.5t11.5 -20.5v-16q0 -15 -11.5 -21t-23 0t-11.5 21zM581 242
q0 20 21.5 20t21.5 -20v-95q0 -84 -33 -116.5t-114 -30.5v10q-21 -8 -62 -10h-5h-9q-28 1 -36.5 14t-9.5 46v7v28v81l-84 -1h-86q-19 0 -22 -15q-3 -18 24 -25l23 -3q76 0 105.5 -46t0 -91.5t-98.5 -44.5l-98 1q-42 1 -74.5 31t-32.5 70v85q0 14 10.5 20t21.5 0t11 -20v-85
q0 -22 19.5 -40t44.5 -18l98 -1q40 0 58 24t0.5 48.5t-65.5 24.5q-61 1 -83 46q-18 37 8 64q17 18 50 18l212 -1v-154q0 -21 4 -21h4h2h8q42 1 52 14t10 62v111q0 21 21.5 21t21.5 -21v-84v-15v-88q32 3 46.5 27t14.5 78v95z" />
    <glyph glyph-name="uniFCFD.002" horiz-adv-x="645" 
d="M519 390q0 -23 -23.5 -23t-23.5 23v16q0 14 12 20t23.5 0.5t11.5 -20.5v-16zM479 326q0 -23 -23.5 -23t-23.5 23v16q0 14 12 20t23.5 0.5t11.5 -20.5v-16zM512 342q0 14 12 20t23.5 0.5t11.5 -20.5v-16q0 -23 -23.5 -23t-23.5 23v16zM581 242q0 20 21.5 20t21.5 -20v-95
q0 -84 -33 -116.5t-114 -30.5v10q-21 -8 -62 -10h-5h-9q-28 1 -36.5 14t-9.5 46v7v28v81l-84 -1h-86q-19 0 -22 -15q-3 -18 24 -25l23 -3q76 0 105.5 -46t0 -91.5t-98.5 -44.5l-98 1q-42 1 -74.5 31t-32.5 70v85q0 14 10.5 20t21.5 0t11 -20v-85q0 -22 19.5 -40t44.5 -18
l98 -1q40 0 58 24t0.5 48.5t-65.5 24.5q-61 1 -83 46q-18 37 8 64q17 18 50 18l212 -1v-154q0 -21 4 -21h4h2h8q42 1 52 14t10 62v111q0 21 21.5 21t21.5 -21v-84v-15v-88q32 3 46.5 27t14.5 78v95z" />
    <glyph glyph-name="uniFD19.001" horiz-adv-x="673" 
d="M510 390q0 -15 -11.5 -21t-23 0t-11.5 21v16q0 14 11.5 20t23 0.5t11.5 -20.5v-16zM470 326q0 -15 -11.5 -21t-23 0t-11.5 21v16q0 14 11.5 20t23 0.5t11.5 -20.5v-16zM504 326v16q0 14 11.5 20t23 0.5t11.5 -20.5v-16q0 -15 -11.5 -21t-23 0t-11.5 21zM689 45l9 -22
l-9 -23h-28q-49 0 -69 31q-34 -34 -115 -31v10q-21 -8 -62 -10h-5h-9q-28 1 -36.5 14t-9.5 46v7v28v81l-84 -1h-86q-19 0 -22 -15q-3 -18 24 -25l23 -3q76 0 105.5 -46t0 -91.5t-98.5 -44.5l-98 1q-42 1 -74.5 31t-32.5 70v85q0 14 10.5 20t21.5 0t11 -20v-85
q0 -22 19.5 -40t44.5 -18l98 -1q40 0 58 24t0.5 48.5t-65.5 24.5q-61 1 -83 46q-18 37 8 64q17 18 50 18l212 -1v-154q0 -21 4 -21h4h2h8q42 1 52 14t10 62v111q0 21 21.5 21t21.5 -21v-84v-15v-88q32 3 46.5 27t14.5 78v95q0 20 21.5 20t21.5 -20v-146q0 -51 37 -51h28z
" />
    <glyph glyph-name="uniFCFE.001" horiz-adv-x="682" 
d="M513 390q0 -15 -11.5 -21t-23 0t-11.5 21v16q0 14 11.5 20t23 0.5t11.5 -20.5v-16zM473 326q0 -15 -11.5 -21t-23 0t-11.5 21v16q0 14 11.5 20t23 0.5t11.5 -20.5v-16zM507 326v16q0 14 11.5 20t23 0.5t11.5 -20.5v-16q0 -15 -11.5 -21t-23 0t-11.5 21zM584 242
q0 20 21 20t21 -20v-95q0 -85 -32.5 -117t-113.5 -30v10q-21 -8 -62 -10h-5h-9q-28 1 -36.5 14t-9.5 46v1v34v81l-85 -1h-86q-19 0 -21 -15q-3 -18 24 -25q10 -3 23 -3q75 0 105 -46t0 -91.5t-99 -44.5l-98 1q-42 1 -74 31t-32 70v85q0 14 10.5 20t21.5 0t11 -20v-85
q0 -22 19.5 -40t43.5 -18l98 -1q40 0 58 24t0.5 48.5t-64.5 24.5q-61 1 -83 45q-19 37 5 64q18 19 52 19l212 -1v-152q0 -23 5 -23h4h2h8q42 1 52 14t10 62v111q0 13 10.5 18.5t21 0t10.5 -18.5v-84v-15v-88q33 3 47.5 27.5t14.5 77.5v95zM157 -96q0 14 11.5 20t23 0.5
t11.5 -20.5v-16q0 -15 -11.5 -21t-23 0t-11.5 21v16zM234 -96q0 14 12 20t23.5 0.5t11.5 -20.5v-16q0 -23 -23.5 -23t-23.5 23v16z" />
    <glyph glyph-name="uniFD1A.001" horiz-adv-x="708" 
d="M546 390q0 -23 -23.5 -23t-23.5 23v16q0 14 11.5 20t23.5 0.5t12 -20.5v-16zM506 326q0 -23 -23.5 -23t-23.5 23v16q0 14 11.5 20t23.5 0.5t12 -20.5v-16zM539 342q0 14 11.5 20t23.5 0.5t12 -20.5v-16q0 -23 -23.5 -23t-23.5 23v16zM717 45l9 -22l-9 -23h-28
q-49 0 -69 31q-34 -34 -115 -31v9q-23 -8 -61 -9h-5h-9q-29 1 -37.5 14t-9.5 46v8v27v81l-84 -1h-86q-19 0 -21 -15q-3 -18 24 -25q10 -3 23 -3q75 0 105 -46t0 -91.5t-99 -44.5l-98 1q-42 1 -74 31t-32 70v85q0 14 10.5 20t21 0t10.5 -20v-85q0 -22 19.5 -40t44.5 -18
l98 -1q40 0 58 24t0.5 48.5t-65.5 24.5q-61 1 -83 46q-18 37 8 64q17 18 50 18l212 -1v-152q0 -23 5 -23h4h2h8q41 1 51 14t10 62v111q0 21 21.5 21t21.5 -21v-84v-15v-88q32 3 46.5 27t14.5 78v95q0 20 21.5 20t21.5 -20v-146q0 -51 37 -51h28zM147 -97q0 14 11.5 20
t23 0.5t11.5 -20.5v-16q0 -15 -11.5 -21t-23 0t-11.5 21v16zM227 -97q0 14 11.5 20t23 0.5t11.5 -20.5v-16q0 -15 -11.5 -21t-23 0t-11.5 21v16z" />
    <glyph glyph-name="uni06340626.001" horiz-adv-x="670" 
d="M520 390q0 -15 -11.5 -21t-23 0t-11.5 21v16q0 14 11.5 20t23 0.5t11.5 -20.5v-16zM480 326q0 -15 -11.5 -21t-23 0t-11.5 21v16q0 14 11.5 20t23 0.5t11.5 -20.5v-16zM514 326v16q0 14 11.5 20t23 0.5t11.5 -20.5v-16q0 -15 -11.5 -21t-23 0t-11.5 21zM81 186h-52
q-8 0 -12 6t0 12t12 6h-1q-8 21 1 38t28 17q22 2 31 -13q7 -10 -1 -16.5t-17 0.5q-7 4 -13 0t-6 -13q0 -13 10 -13h20q8 0 12 -6t0 -12t-12 -6zM591 242q0 20 21 20t21 -20v-95q0 -85 -32.5 -117t-113.5 -30v10q-21 -8 -62 -10h-5h-9q-28 1 -36.5 14t-9.5 46v1v34v81l-84 -1
h-87q-18 0 -21 -15q-3 -18 24 -25l23 -3q75 0 105 -46t0 -91.5t-99 -44.5l-98 1q-42 1 -74 31.5t-32 69.5v85q0 14 10.5 20t21.5 0t11 -20v-85q0 -22 19.5 -40t43.5 -18l98 -1q40 0 58 24t0.5 48.5t-64.5 24.5q-61 1 -83 46q-19 37 7 64q17 18 50 18l212 -1v-123
q0 -52 5 -52h4h2h8q42 1 52 14t10 62v111q0 13 10.5 18.5t21 0t10.5 -18.5v-84v-15v-88q33 3 47.5 27.5t14.5 77.5v95z" />
    <glyph glyph-name="uni06340626.fina.001" horiz-adv-x="714" 
d="M519 390q0 -15 -11.5 -21t-23 0t-11.5 21v16q0 14 11.5 20t23 0.5t11.5 -20.5v-16zM479 326q0 -15 -11.5 -21t-23 0t-11.5 21v16q0 14 11.5 20t23 0.5t11.5 -20.5v-16zM513 326v16q0 14 11.5 20t23 0.5t11.5 -20.5v-16q0 -15 -11.5 -21t-23 0t-11.5 21zM697 45l8 -22
l-8 -23h-28q-49 0 -69 30q-33 -33 -114 -30v10q-21 -8 -62 -10h-5h-9q-28 1 -36.5 14t-9.5 46v1v34v81l-84 -1h-87q-18 0 -21 -15q-3 -18 24 -25l23 -3q75 0 105 -46t0 -91.5t-99 -44.5l-98 1q-42 1 -74 31.5t-32 69.5v85q0 14 10.5 20t21.5 0t11 -20v-85q0 -22 19.5 -40
t43.5 -18l98 -1q40 0 58 24t0.5 48.5t-64.5 24.5q-61 1 -83 46q-19 37 7 64q17 18 50 18l212 -1v-123q0 -52 5 -52h4h2h8q42 1 52 14t10 62v111q0 13 10.5 18.5t21 0t10.5 -18.5v-84v-15v-88q33 3 47.5 27.5t14.5 77.5v95q0 20 21 20t21 -20v-146q0 -51 37 -51h28zM81 179
h-52q-8 0 -12 6t0 12t12 6h-1q-8 22 0.5 38.5t28.5 17.5q22 0 31 -13q7 -11 -1 -17.5t-17 0.5q-7 4 -13 0.5t-6 -13.5q0 -5 3 -9t7 -4h20q8 0 12 -6t0 -12t-12 -6z" />
    <glyph glyph-name="uni06F4.urdu" horiz-adv-x="275" 
d="M234 347q21 0 21 -20v-4q0 -7 -4.5 -12.5t-11.5 -5.5q-65 -3 -72 -42q-3 -15 -18 -15h-4q-17 0 -20 17q-6 36 -30 36q-23 0 -28.5 -12t-5.5 -51v-219q0 -19 -19 -19h-3q-19 0 -19 19v219v5q0 17 0.5 26t4.5 24.5t11 24t22 15.5t37 7q30 0 55 -28q33 35 84 35z" />
    <glyph glyph-name="uni06F7.urdu" horiz-adv-x="281" 
d="M165 338q7 15 21.5 16.5t21.5 -9.5t0 -29l-130 -266h152q15 0 21.5 -12t0 -24.5t-21.5 -12.5h-178q-23 0 -29.5 16t5.5 39z" />
    <glyph glyph-name="exclamdown.cap" horiz-adv-x="100" 
d="M22 314q0 12 8 20t21 8q11 0 19 -8.5t8 -19.5t-8 -19.5t-19 -8.5q-12 0 -20.5 8.5t-8.5 19.5zM30 243q2 19 20 19h1q18 0 18 -19q3 -166 3 -245q0 -10 -6 -16t-15 -6h-1q-10 0 -16.5 6t-6.5 16z" />
    <glyph glyph-name="questiondown.cap" horiz-adv-x="236" 
d="M140 284q-11 0 -19.5 8.5t-8.5 19.5q0 12 8 19.5t20 7.5t20 -7.5t8 -19.5q0 -11 -8 -19.5t-20 -8.5zM22 62q0 27 10.5 47.5t25 33.5l29 26t25 31.5t10.5 43.5q0 19 20 19t20 -19q0 -33 -15 -59t-33 -40.5t-33 -36.5t-15 -47q0 -46 53 -46q13 0 23.5 2.5t15.5 5.5
t11.5 7.5t8.5 5.5q22 16 33 0q12 -16 -11 -35q-2 -1 -4 -3q-35 -22 -74 -23t-69.5 23.5t-30.5 63.5z" />
    <glyph glyph-name="bullet.cap" horiz-adv-x="118" 
d="M22 316q0 11 8 19t21 8q11 0 19 -8t8 -19t-8 -19.5t-19 -8.5q-12 0 -20.5 8.5t-8.5 19.5z" />
    <glyph glyph-name="hyphen.cap" horiz-adv-x="158" 
d="M43 304q-21 0 -21 20v1q0 19 21 19h73q20 0 20 -19v-1q0 -8 -5.5 -14t-14.5 -6h-73z" />
    <glyph glyph-name="endash.cap" horiz-adv-x="227" 
d="M42 305q-20 0 -20 19v1q0 19 20 19h144q19 0 19 -19v-1q0 -19 -19 -19h-144z" />
    <glyph glyph-name="emdash.cap" horiz-adv-x="353" 
d="M42 305q-20 0 -20 19v1q0 19 20 19h270q8 0 13.5 -6t5.5 -13v-1q0 -8 -5.5 -13.5t-13.5 -5.5h-270z" />
    <glyph glyph-name="quotedblleft.cap" horiz-adv-x="185" 
d="M22 263l45 124h23l-22 -124h-46zM92 263l45 124h23l-22 -124h-46z" />
    <glyph glyph-name="quotedblright.cap" horiz-adv-x="183" 
d="M90 367l-44 -123h-24l22 123h46zM160 367l-45 -123h-23l22 123h46z" />
    <glyph glyph-name="guillemotleft.cap" horiz-adv-x="319" 
d="M169 47l-140 101q-20 18 1 33l133 98q15 9 24 -3.5t-5 -24.5l-113 -86l119 -90q14 -11 5.5 -24t-24.5 -4zM271 47l-139 101q-9 8 -9 17t9 16l133 98q15 9 25 -4t-5 -24l-113 -86l119 -90q14 -11 5 -24t-25 -4z" />
    <glyph glyph-name="guillemotright.cap" horiz-adv-x="319" 
d="M48 47q-16 -9 -25 4t5 24l119 90l-113 86q-15 11 -5.5 24t24.5 4l133 -98q21 -15 1 -33zM150 47q-16 -9 -25 4t5 24l120 90l-114 86q-14 12 -4.5 24.5t24.5 3.5l133 -98q21 -15 1 -33z" />
    <glyph glyph-name="dollar.001" horiz-adv-x="261" 
d="M107 -43v30q-32 2 -53 12t-27.5 22t-1.5 21q5 14 21 5q2 -1 8.5 -5.5t11.5 -7t16 -5.5t25 -4v128q-48 15 -69 36t-21 58q0 38 24 62.5t66 29.5v22q0 18 19 18.5t19 -18.5v-21q34 -2 58 -14t24 -30q0 -14 -11.5 -18.5t-23.5 5.5q-2 1 -9 5.5t-16 8t-22 4.5v-115
q52 -14 74 -36t22 -62q0 -44 -25.5 -70t-70.5 -31v-30q0 -18 -19 -18.5t-19 18.5zM107 196v104q-48 -8 -48 -51q0 -21 11 -33t37 -20zM145 26q54 8 54 61q0 23 -11.5 34.5t-42.5 21.5v-117z" />
    <glyph glyph-name="greater.cap" horiz-adv-x="242" 
d="M54 -11q-10 -6 -20 -1.5t-11.5 13t7.5 16.5l140 101l-140 101q-9 8 -7 17.5t11.5 12.5t19.5 -2l157 -114q9 -6 9 -15t-8 -15z" />
    <glyph glyph-name="less.cap" horiz-adv-x="242" 
d="M188 -11l-158 114q-8 6 -8 15t9 15l157 114q10 6 20 2t11.5 -12.5t-7.5 -17.5l-140 -101l140 -101q9 -7 7 -16.5t-11.5 -13t-19.5 1.5z" />
    <glyph glyph-name="at.cap" horiz-adv-x="421" 
d="M194 -26q25 0 44 3t27 6.5t17.5 8.5t11.5 6q15 8 20 -4q4 -13 -15 -25q-41 -25 -89.5 -27t-87.5 15t-65.5 54t-26.5 84q0 74 51.5 123.5t124.5 49.5q69 0 112 -37.5t43 -99.5q0 -51 -27 -82t-68 -31q-35 0 -45 25q-62 -49 -94 -5q-25 34 -13 91q13 59 57 70q33 8 76 -19
q5 11 14 12t14.5 -6t1.5 -17q-40 -104 -24 -115q4 -3 15 -3q26 0 42 21t16 59q0 48 -32.5 76t-87.5 28q-59 0 -99.5 -39t-40.5 -101q0 -54 36 -87.5t92 -33.5zM222 85l14 68q-53 36 -79 -2q-20 -28 -11 -63q10 -36 41 -26q16 5 35 23z" />
    <glyph glyph-name="paragraph.cap" horiz-adv-x="265" 
d="M160 -13q-20 0 -20 19v144h2q-121 0 -121 95q0 50 31 72.5t93 22.5h77q22 0 22 -21v-313q0 -19 -20 -19h-1q-19 0 -19 19v295h-24v-295q0 -19 -19 -19h-1z" />
    <glyph glyph-name="dagger.cap" horiz-adv-x="239" 
d="M120 -32q-20 0 -20 19l1 195q-5 0 -25 -1.5t-30 -1.5q-24 0 -24 20v1q0 20 24 20q23 0 56 -3q-4 52 -4 77q0 22 22 22q21 0 21 -22q0 -25 -4 -77q33 3 57 3q23 0 23 -20v-1q0 -20 -23 -20q-11 0 -31.5 1.5t-24.5 1.5l1 -195q0 -19 -19 -19z" />
    <glyph glyph-name="daggerdbl.cap" horiz-adv-x="236" 
d="M118 -55q-21 0 -21 24q0 34 3 73q-40 -4 -56 -4q-10 0 -16.5 6t-6.5 15v1q0 20 23 20q15 0 55 -4q0 4 -1.5 26t-1.5 33t1.5 33t1.5 26q-25 -5 -55 -5q-23 0 -23 22q0 21 23 21q16 0 56 -4q-3 39 -3 74q0 22 21 22t21 -22q0 -35 -3 -74q40 4 56 4q23 0 23 -21
q0 -22 -23 -22q-15 0 -55 4q0 -4 1.5 -25.5t1.5 -32.5t-1.5 -33t-1.5 -26q40 4 55 4q23 0 23 -20v-1q0 -9 -6.5 -15t-16.5 -6q-16 0 -56 4q3 -39 3 -73q0 -24 -21 -24z" />
    <glyph glyph-name="grave" horiz-adv-x="600" 
d="M166 294l-89 13q-8 1 -10.5 8.5t0.5 14t10 6.5l91 -13q8 -1 11 -9t-1 -14.5t-12 -5.5z" />
    <glyph glyph-name="dotcenterar" 
d="M0 260v16q0 14 11.5 20t23 0.5t11.5 -20.5v-16q0 -15 -11.5 -21t-23 0t-11.5 21z" />
    <glyph glyph-name="waslaar" 
d="M16 466q-6 -9 -15 -3q-9 4 -1 18l12 19q7 10 18 4l17 -10q2 3 6.5 10t6.5 10t7 8t9 7t10 2t13 -3q24 -17 23 -35t-22 -28t-45 0q-7 3 -13 6l-9 4.5t-5.5 2.5t-4 0t-3.5 -4zM67 486q11 -3 19.5 -1t13.5 6l5 4q-8 15 -21 13q-4 -1 -8 -6.5t-6 -10.5z" />
    <glyph glyph-name="uni0654064B" 
d="M18 432q-11 0 -16 8t-0.5 15.5t14.5 7.5h14q-16 28 -4.5 52t35.5 27t46 -15q8 -8 0 -18.5t-19 -1.5q-12 11 -26.5 7t-15.5 -18q-2 -16 6 -24.5t18 -8.5h22q10 0 14 -7.5t0 -15.5t-14 -8h-74zM14 373q-8 -1 -12 5.5t-1 14.5t11 9l91 13q7 0 10 -6.5t0.5 -14t-10.5 -8.5z
M14 322q-8 -1 -12 5.5t-1 14.5t11 9l91 13q7 0 10 -6.5t0.5 -14t-10.5 -8.5z" />
    <glyph glyph-name="uni0654064C" 
d="M68 486q-12 6 -15 21.5t9 26.5q13 12 30 6t20.5 -21t-10.5 -29q-25 -20 -39 -20t-22.5 9t-15.5 7q-13 -2 -15 2q-7 10 8 15q12 5 20 -4q19 -19 30 -13zM72 501q6 -9 19 1q11 8 1 18q-9 11 -20 2q-9 -9 0 -21zM26 344q-11 0 -16 8t-0.5 16t14.5 8h14q-16 28 -4.5 52
t35.5 26.5t46 -15.5q8 -8 0 -18.5t-19 -1.5q-12 11 -26.5 7t-15.5 -18q-2 -15 6 -23.5t18 -8.5h22q16 0 16 -16t-16 -16h-74z" />
    <glyph glyph-name="uni0654064E" 
d="M15 380q-11 0 -15.5 8t-0.5 16t14 8h14q-16 28 -4.5 52t35.5 26.5t46 -15.5q8 -8 0.5 -18.5t-18.5 -1.5q-13 11 -27 7t-15 -18q-3 -15 5 -23.5t18 -8.5h22q16 0 16 -16t-16 -16h-74zM13 308q-8 -1 -12 5.5t-1 14.5t11 9l91 13q7 0 10 -6.5t0.5 -14t-10.5 -8.5z" />
    <glyph glyph-name="uni0654064F" 
d="M45 467q-12 -4 -15.5 6.5t9.5 13.5q9 4 22 13q-20 2 -26.5 23t5.5 39t38 13q38 -7 30 -42q-7 -36 -50 -59zM68 520q9 -2 15 5.5t3 16.5t-13 10q-17 1 -19 -14t14 -18zM30 346q-11 0 -15.5 8t-0.5 16t14 8h14q-16 28 -4.5 52t35.5 26.5t46 -15.5q8 -8 0.5 -18.5
t-18.5 -1.5q-13 11 -27 7t-15 -18q-3 -15 5 -23.5t18 -8.5h22q16 0 16 -16t-16 -16h-74z" />
    <glyph glyph-name="uni06540652" 
d="M14 517q0 17 12 28.5t28 11.5t28 -12t12 -28t-12 -27.5t-28 -11.5t-28 11.5t-12 27.5zM36 517q0 -18 18 -18t18 18t-18 18t-18 -18zM16 346q-11 0 -15.5 8t-0.5 16t14 8h14q-16 28 -4.5 52t35.5 26.5t46 -15.5q8 -8 0.5 -18.5t-18.5 -1.5q-13 11 -27 7t-15 -18
q-3 -15 5 -23.5t18 -8.5h22q16 0 16 -16t-16 -16h-74z" />
    <glyph glyph-name="uni06550650" 
d="M30 -102q-11 0 -15.5 8t-0.5 16t14 8h14q-14 23 -8.5 41t18.5 28.5t32.5 10t34.5 -15.5q8 -9 0.5 -19.5t-19.5 -1.5q-12 11 -26 7t-16 -18q-2 -15 6 -23.5t18 -8.5h22q16 0 16 -16t-16 -16h-74zM31 -145q-8 -1 -12 3t-1.5 9.5t10.5 6.5l83 12q9 -1 9 -9t-9 -10z" />
    <glyph glyph-name="uni0651064B" 
d="M22 441q-8 -1 -12 5.5t-1 14.5t11 9l91 13q7 0 10 -6.5t0.5 -14t-10.5 -8.5zM111 432q7 0 10 -6.5t0.5 -14t-10.5 -8.5h-2q8 -3 8 -11q0 -62 -35 -62q-15 0 -21 9q-12 -15 -27 -15q-34 0 -34 43q0 23 13 22q11 -3 12 -14q0 -30 9 -30q12 0 12 39q0 5 3 10l-27 -4
q-8 -1 -12 5.5t-1 14.5t11 9zM94 393q0 4 4 8l-32 -5q3 -3 3 -8q0 -37 13 -37q12 0 12 42z" />
    <glyph glyph-name="uniFC5E" 
d="M63 436q-12 6 -15 21.5t9 26.5q13 12 30 6t20.5 -21t-10.5 -29q-25 -20 -39 -20t-22.5 9t-15.5 7q-13 -2 -15 2q-7 10 7 15q13 5 22 -4q17 -19 29 -13zM67 451q6 -9 20 1q12 8 0 18q-9 9 -19 2q-9 -9 -1 -21zM34 324q-34 0 -34 43q0 23 13 22q11 -3 12 -14q0 -30 9 -30
q12 0 12 39q0 15 12 16q10 1 11 -12q0 -37 13 -37q12 0 12 42q0 7 6 9.5t11.5 -0.5t5.5 -10q0 -62 -35 -62q-15 0 -21 9q-12 -15 -27 -15z" />
    <glyph glyph-name="uniFC5F" 
d="M34 224q-34 0 -34 43q0 23 13 22q11 -3 12 -14q0 -30 9 -30q12 0 12 39q0 15 12 16q10 1 11 -12q0 -37 13 -37q12 0 12 42q0 7 6 9.5t11.5 -0.5t5.5 -10q0 -62 -35 -62q-15 0 -21 9q-12 -15 -27 -15zM14 186q-8 -1 -11.5 3t-1 9.5t10.5 6.5l83 11q8 -1 8.5 -9t-8.5 -10z
M14 156q-8 -1 -11.5 3t-1 9.5t10.5 6.5l83 11q8 -1 8.5 -9t-8.5 -10z" />
    <glyph glyph-name="uniFC60" 
d="M20 302q-8 -1 -12 5.5t-1 14.5t11 9l91 13q7 0 10 -6.5t0.5 -14t-10.5 -8.5zM34 224q-34 0 -34 43q0 23 13 22q11 -3 12 -14q0 -30 9 -30q12 0 12 39q0 15 12 16q10 1 11 -12q0 -37 13 -37q12 0 12 42q0 7 6 9.5t11.5 -0.5t5.5 -10q0 -62 -35 -62q-15 0 -21 9
q-12 -15 -27 -15z" />
    <glyph glyph-name="uniFC61" 
d="M46 308q-12 -5 -16 5.5t9 14.5q4 2 22 12q-20 2 -26.5 23.5t5.5 39.5t38 13q38 -7 30 -42q-7 -36 -49 -60q-6 -3 -13 -6zM69 361q9 -2 14.5 5.5t3 16.5t-12.5 10q-18 1 -20 -14t15 -18zM42 224q-34 0 -34 43q0 22 13 22q12 -2 13 -14q0 -30 8 -30q13 0 13 39q0 14 11 16
q9 1 11 -10v-2q0 -37 13 -37t13 42q0 7 5.5 9.5t11.5 -0.5t6 -10q0 -62 -36 -62q-14 0 -21 9q-12 -15 -27 -15z" />
    <glyph glyph-name="uniFC62" 
d="M34 224q-34 0 -34 43q0 23 13 22q11 -3 12 -14q0 -30 9 -30q12 0 12 39q0 15 12 16q10 1 11 -12q0 -37 13 -37q12 0 12 42q0 7 6 9.5t11.5 -0.5t5.5 -10q0 -62 -35 -62q-15 0 -21 9q-12 -15 -27 -15zM21 187q-8 -1 -12 3t-1.5 9.5t10.5 6.5l83 11q9 0 9 -8t-9 -10z" />
    <glyph glyph-name="uniFC63" 
d="M48 389q3 41 -12 82l21 11q14 -41 14 -87zM34 302q-34 0 -34 43q0 23 13 22q11 -3 12 -14q0 -30 9 -30q12 0 12 39q0 15 12 16q10 1 11 -12q0 -37 13 -37q12 0 12 42q0 7 6 9.5t11.5 -0.5t5.5 -10q0 -62 -35 -62q-15 0 -21 9q-12 -15 -27 -15z" />
    <glyph glyph-name="newc" horiz-adv-x="109" 
d="M-10 0v45h129l-1 -45h-128z" />
    </font>
</defs>
</svg>
